<svg width="40" height="40" viewBox="0 0 40 40" fill="none" xmlns="http://www.w3.org/2000/svg">
<path d="M8.20729 28.5879C8.34756 28.6081 8.48433 28.6195 8.62549 28.6274C8.96566 28.637 9.29881 28.6291 9.63548 28.5783C9.68282 28.5713 9.72228 28.5967 9.72578 28.6476C9.74682 28.9772 9.77751 29.3069 9.80118 29.6356C9.80556 29.7005 9.7214 29.7259 9.67932 29.6865C9.57323 29.5874 9.46539 29.491 9.35756 29.3937C9.18659 29.2402 9.07087 29.0886 8.82187 29.1035C8.52203 29.121 8.19764 29.455 7.94777 29.6277C7.89254 29.6654 7.83117 29.6032 7.84257 29.5471C7.90832 29.235 8.01353 28.9386 8.11874 28.6379C8.13364 28.5976 8.16696 28.5827 8.20729 28.5879Z" fill="#F5C888"/>
<path d="M26.5844 21.5114C26.587 21.5079 26.5905 21.5053 26.594 21.5018C26.5958 21.5 26.5975 21.4982 26.6002 21.4974C26.6107 21.4904 26.6221 21.4851 26.6379 21.4842C26.6545 21.4833 26.6712 21.4833 26.6878 21.4825C26.7334 21.4807 26.7694 21.5298 26.7571 21.5728C26.7062 21.7446 26.694 21.92 26.6975 22.0988C26.6992 22.1777 26.573 22.1979 26.5572 22.1181C26.5335 21.998 26.5055 21.8796 26.4757 21.7613C26.4494 21.6578 26.5195 21.6035 26.5765 21.5193C26.5782 21.5158 26.5818 21.514 26.5844 21.5114Z" fill="#F4F3F2"/>
<path d="M21.02 3.15039V3.85178C21.2111 3.85178 21.4075 3.85791 21.603 3.87019C23.8369 4.00696 26.1681 4.57333 28.3442 5.50968C29.5427 6.02519 30.4746 6.51879 31.2777 7.06324C31.7161 7.36046 32.079 7.65328 32.3885 7.95751C32.7015 8.26612 32.8041 8.43796 32.9295 8.86843C33.4012 10.635 33.3152 12.6305 32.6656 14.9687C32.2456 16.4802 31.5863 18.3485 30.1958 19.3936C29.5961 19.8442 29.0061 20.0924 28.5344 20.0924C28.4915 20.0924 28.4494 20.0906 28.409 20.0862C27.6787 20.0143 26.7441 19.7452 25.6298 19.2866C25.4203 19.2007 25.2125 19.1139 25.0047 19.0289C23.2714 18.3108 21.6345 17.6331 19.7706 17.2035C18.5485 16.9221 17.0273 16.5723 16.105 15.5991C15.223 14.6698 14.924 13.0803 15.216 10.8744C15.3422 9.91876 15.5693 8.91928 15.8893 7.90578C15.9244 7.79531 15.9595 7.68134 15.9945 7.56649C16.2304 6.80198 16.4978 5.93577 16.951 5.3808C17.9847 4.11743 19.7347 3.85178 21.02 3.85178V3.15039ZM21.02 3.15039C19.3287 3.15039 17.5139 3.58437 16.4075 4.93629C15.7929 5.68765 15.5071 6.78357 15.2195 7.69449C14.9012 8.70186 14.6584 9.73465 14.519 10.7823C14.2875 12.5349 14.2963 14.7119 15.5947 16.0813C16.631 17.1746 18.1969 17.5612 19.6119 17.8865C21.6398 18.3529 23.4345 19.142 25.3615 19.9345C26.2575 20.3028 27.3578 20.6859 28.338 20.7832C28.4029 20.7894 28.4678 20.7929 28.5327 20.7929C29.2788 20.7929 30.038 20.3878 30.6158 19.953C32.1167 18.8246 32.8541 16.9037 33.3398 15.1555C33.9263 13.0443 34.1779 10.8209 33.6037 8.67906C33.445 8.13286 33.2854 7.85756 32.8795 7.45777C32.5104 7.09393 32.0992 6.77305 31.6705 6.48285C30.7201 5.83845 29.6733 5.31855 28.6203 4.86528C26.4373 3.92542 24.0228 3.31522 21.6451 3.16968C21.4399 3.1574 21.2312 3.15039 21.02 3.15039Z" fill="#FFBB24"/>
<path d="M30.6167 19.9542C29.988 20.4267 29.1455 20.8642 28.338 20.7844C27.357 20.6871 26.2575 20.304 25.3615 19.9358C23.4345 19.1432 21.6407 18.3541 19.6119 17.8877C18.1969 17.5616 16.631 17.1749 15.5947 16.0825C14.2963 14.7131 14.2875 12.5361 14.519 10.7835C14.6575 9.73585 14.9004 8.70306 15.2195 7.6957C15.5071 6.78565 15.7929 5.68886 16.4075 4.9375C17.6516 3.41637 19.7925 3.05691 21.6451 3.17088C24.0219 3.31642 26.4364 3.92662 28.6203 4.86648C29.6733 5.31975 30.7201 5.83965 31.6705 6.48405C32.0992 6.77513 32.5104 7.09513 32.8795 7.45898C33.2854 7.85877 33.445 8.13494 33.6037 8.68027C34.1779 10.8221 33.9263 13.0455 33.3398 15.1567C32.855 16.9058 32.1176 18.8267 30.6167 19.9542Z" fill="url(#paint0_linear)"/>
<path d="M18.8065 5.53331C19.9416 5.10851 20.6845 4.29026 20.4657 3.70569C20.247 3.12112 19.1494 2.99159 18.0143 3.41639C16.8792 3.84118 16.1363 4.65943 16.3551 5.24401C16.5738 5.82858 17.6714 5.9581 18.8065 5.53331Z" fill="#F2CD79"/>
<path d="M14.106 18.3809C13.5142 18.3291 12.911 18.3528 12.3236 18.295C12.1211 18.2748 12.0352 17.9513 12.271 17.9083C12.8742 17.7987 13.5659 17.9171 14.1437 18.1021C14.2884 18.1485 14.2735 18.3958 14.106 18.3809Z" fill="#F2CD79"/>
<path d="M10.8594 18.5475C10.5026 18.6369 10.1511 18.7596 9.82228 18.9253C9.57153 19.0525 9.33569 19.3102 9.05426 19.3286C8.97448 19.3339 8.91661 19.2462 8.93678 19.1743C9.02445 18.8561 9.45931 18.6807 9.73723 18.5519C10.0844 18.3914 10.4456 18.3143 10.8253 18.2932C10.9717 18.2844 11.0006 18.5115 10.8594 18.5475Z" fill="#F2CD79"/>
<path d="M6.71165 20.3C6.29082 20.4368 5.89278 20.6866 5.60609 21.0259C5.46581 21.1934 5.34395 21.3784 5.26241 21.5818C5.19666 21.7466 5.18351 21.9062 5.01956 22.0008C4.9766 22.0254 4.90821 22.0228 4.8749 21.9824C4.58908 21.6396 5.04323 20.9698 5.27995 20.6998C5.64467 20.2833 6.11985 20.0378 6.67044 19.9966C6.85105 19.9826 6.87121 20.2483 6.71165 20.3Z" fill="#F2CD79"/>
<path d="M32.9127 22.0175C32.5594 22.4988 31.9852 22.9048 31.4617 23.1818C31.3714 23.2292 31.2566 23.2204 31.1838 23.1459C31.1531 23.1143 31.1347 23.088 31.1251 23.0442C31.1014 22.9425 31.1417 22.8399 31.2303 22.7847C31.481 22.6295 31.7335 22.4813 31.9703 22.3051C32.2052 22.1315 32.4174 21.9272 32.6567 21.7606C32.8067 21.6581 33.0223 21.8676 32.9127 22.0175Z" fill="#F2CD79"/>
<path d="M29.9415 23.826C29.6039 24.0479 29.2576 24.232 28.8745 24.3635C28.5861 24.4625 28.1626 24.6686 27.8908 24.4661C27.8321 24.4222 27.7909 24.3381 27.8391 24.2679C28.0171 24.011 28.3379 24.0356 28.6229 23.9576C29.0148 23.8506 29.4023 23.7077 29.7696 23.5341C29.966 23.4412 30.1256 23.7051 29.9415 23.826Z" fill="#F2CD79"/>
<path d="M26.9205 24.8573C26.6522 24.937 26.3558 25.0379 26.0735 25.0291C25.8692 25.023 25.8324 24.7389 26.0262 24.6766C26.2953 24.5899 26.6083 24.6056 26.8871 24.6083C27.0309 24.6091 27.059 24.816 26.9205 24.8573Z" fill="#F2CD79"/>
<path d="M13.9044 20.9999C13.5475 21.0876 13.1846 21.1218 12.8207 21.0481C12.5998 21.0034 12.6472 20.6361 12.8742 20.6519C13.2091 20.6747 13.5414 20.7387 13.8746 20.7799C13.9903 20.7939 14.0376 20.9675 13.9044 20.9999Z" fill="#F2CD79"/>
<path d="M11.6406 20.98C10.9682 21.065 10.4193 21.3359 9.80648 21.5946C9.62324 21.6717 9.3874 21.4481 9.57064 21.2895C10.1256 20.8107 10.9305 20.6626 11.6406 20.7108C11.8168 20.7222 11.8098 20.958 11.6406 20.98Z" fill="#F2CD79"/>
<path d="M8.72201 21.9575C8.54403 22.0513 8.39411 22.1758 8.27137 22.3362C8.22052 22.4029 8.16704 22.4695 8.1232 22.5414C8.07586 22.6186 8.0478 22.7054 7.97679 22.7641C7.93909 22.7948 7.87859 22.7869 7.86457 22.7343C7.81635 22.5572 7.96013 22.3135 8.0706 22.1811C8.21701 22.0048 8.40814 21.8681 8.6168 21.7769C8.73691 21.7234 8.84387 21.8926 8.72201 21.9575Z" fill="#F2CD79"/>
<path d="M19.7223 31.3497C19.7232 31.3506 19.7249 31.3515 19.7258 31.3524C19.7872 31.3883 19.8363 31.4628 19.831 31.5365C19.8205 31.6908 19.753 31.8179 19.6478 31.9302C19.5636 32.0196 19.4006 32.0213 19.3164 31.9302C19.2322 31.8381 19.2217 31.6899 19.3164 31.5987C19.3287 31.5873 19.3401 31.5751 19.3515 31.5628C19.3813 31.5321 19.3374 31.5873 19.3515 31.5637C19.3672 31.5374 19.3848 31.5119 19.4006 31.4856C19.4225 31.4514 19.4391 31.4155 19.4663 31.3857C19.5303 31.3182 19.6452 31.3042 19.7223 31.3497Z" fill="#F2CD79"/>
<path d="M18.4054 32.9442C18.0503 33.294 17.6348 33.5438 17.135 33.6131C16.8685 33.6499 16.7528 33.2422 17.0228 33.2045C17.4638 33.1432 17.8917 33.0108 18.2546 32.7478C18.3703 32.6645 18.5045 32.8468 18.4054 32.9442Z" fill="#F2CD79"/>
<path d="M15.9252 33.8103C15.7551 33.8235 15.578 33.8998 15.4097 33.891C15.2282 33.8822 15.1563 33.6455 15.3168 33.5464C15.4851 33.4421 15.7359 33.4579 15.9252 33.4763C16.1383 33.4965 16.1418 33.7937 15.9252 33.8103Z" fill="#F2CD79"/>
<path d="M6.31797 33.2128C6.07073 33.4346 5.84015 33.6757 5.61658 33.9212C5.39477 34.1649 5.21767 34.4578 4.98271 34.6866C4.8512 34.8146 4.60746 34.6875 4.66621 34.5025C4.87837 33.8335 5.53242 33.29 6.11895 32.9551C6.27676 32.8639 6.46088 33.0848 6.31797 33.2128Z" fill="#F2CD79"/>
<path d="M14.5383 32.5647C14.348 32.954 14.1701 33.3976 13.8746 33.7229C13.559 34.0709 13.2267 34.3778 12.9277 34.7478C12.7524 34.9643 12.4473 34.6566 12.6209 34.4409C12.9023 34.0928 13.1723 33.8088 13.5073 33.5168C13.843 33.224 14.0859 32.783 14.3656 32.4323C14.448 32.3289 14.59 32.4595 14.5383 32.5647Z" fill="#F2CD79"/>
<path d="M11.8002 35.6752C11.5285 35.883 11.254 36.0557 10.9498 36.2118C10.7166 36.331 10.4781 36.523 10.2221 36.3907C10.1599 36.3582 10.131 36.2758 10.1485 36.2109C10.2221 35.9453 10.5342 35.8927 10.7613 35.7857C11.0506 35.6489 11.3382 35.5166 11.6319 35.3877C11.8301 35.3 11.9712 35.5446 11.8002 35.6752Z" fill="#F2CD79"/>
<path d="M9.25594 37.4122C9.11567 37.513 8.9824 37.627 8.81845 37.6849C8.71412 37.7217 8.587 37.6603 8.53352 37.5691C8.48091 37.4797 8.48705 37.3333 8.57297 37.2631C8.64837 37.2018 8.71938 37.1623 8.80793 37.1246C8.88246 37.0931 8.95698 37.0615 9.0315 37.0291C9.14197 36.9826 9.26909 36.9957 9.33485 37.1088C9.4006 37.2211 9.35326 37.3421 9.25594 37.4122Z" fill="#F2CD79"/>
<path d="M15.6675 30.6377C15.5903 30.792 15.5588 30.9603 15.4842 31.1155C15.3957 31.2996 15.0722 31.2155 15.0923 31.0094C15.1125 30.8008 15.2195 30.6149 15.3404 30.4466C15.4816 30.2502 15.7771 30.4168 15.6675 30.6377Z" fill="#F2CD79"/>
<path d="M21.9737 31.6897C21.9281 31.9395 21.8001 32.1464 21.6783 32.3665C21.5652 32.5708 21.474 32.7961 21.2864 32.9399C21.1952 33.01 21.033 32.9162 21.0462 32.8022C21.0742 32.5673 21.2241 32.3709 21.3425 32.1701C21.4696 31.9536 21.5818 31.7396 21.7738 31.5731C21.8668 31.4924 21.9956 31.5704 21.9737 31.6897Z" fill="#F2CD79"/>
<path d="M20.5508 34.0621C19.9678 34.5513 19.3593 34.9652 18.6387 35.2247C18.3634 35.3237 18.245 34.8854 18.5177 34.7872C19.1752 34.5505 19.7618 34.1656 20.3667 33.8236C20.5114 33.7412 20.6867 33.9473 20.5508 34.0621Z" fill="#F2CD79"/>
<path d="M17.1334 35.4398C16.3829 35.5775 15.5842 35.5214 14.8521 35.3188C14.6601 35.2654 14.6978 34.9717 14.8994 34.9717C15.6219 34.9717 16.361 34.9813 17.0808 35.0488C17.2859 35.0672 17.3718 35.396 17.1334 35.4398Z" fill="#F2CD79"/>
<path d="M25.506 24.0151C25.6086 25.5362 25.2535 27.2248 24.3014 28.4461C23.4457 29.5438 22.0333 30.3916 20.6007 30.1408C20.2588 30.0812 20.3649 29.5806 20.6787 29.5631C22.0289 29.4868 23.1722 28.8547 23.934 27.7237C24.7003 26.5865 24.9774 25.2969 25.3 23.987C25.3298 23.8678 25.499 23.9011 25.506 24.0151Z" fill="#F2CD79"/>
<path d="M19.3059 29.7741C18.2398 29.9652 17.0676 29.5864 16.0883 29.1796C15.0353 28.7421 14.0867 28.0732 13.231 27.3236C12.9908 27.1132 13.3476 26.7528 13.5835 26.9711C14.3918 27.7199 15.3325 28.2591 16.3531 28.6685C17.3148 29.0543 18.3301 29.1472 19.305 29.4567C19.4488 29.5023 19.476 29.7434 19.3059 29.7741Z" fill="#F2CD79"/>
<path d="M14.155 3.59958C13.7771 3.87487 13.9227 4.60168 13.4343 4.75423C13.3361 4.78492 13.2204 4.70075 13.2266 4.59554C13.2397 4.34743 13.4045 4.06687 13.5027 3.83892C13.5992 3.61273 13.7596 3.41546 13.9867 3.31113C14.1831 3.22083 14.3295 3.47245 14.155 3.59958Z" fill="#F2CD79"/>
<path d="M11.8546 10.4793C11.8905 11.3955 11.8546 12.3231 12.0168 13.2287C12.1641 14.0528 12.4867 14.7534 12.9505 15.4451C13.1039 15.6739 12.7524 15.9475 12.5674 15.7414C11.3215 14.3501 11.1743 12.181 11.5469 10.4372C11.5846 10.2592 11.8476 10.3083 11.8546 10.4793Z" fill="#F2CD79"/>
<path d="M30.7885 3.79643C32.1553 4.66001 33.0636 5.84448 33.651 7.35158C34.3103 9.04104 34.3866 10.9164 34.1472 12.6979C33.9044 14.5075 33.4029 16.381 32.5691 18.0135C31.8283 19.4645 30.6973 20.6507 29.1218 21.1618C28.1872 21.4652 27.193 21.5371 26.2172 21.566C25.4246 21.5897 24.1218 21.7799 23.5528 21.0777C23.4494 20.9497 23.5458 20.7796 23.7098 20.8085C24.1113 20.8778 24.476 21.0032 24.889 21.0207C25.2747 21.0365 25.6622 21.0154 26.048 20.9996C26.8651 20.9672 27.6849 20.9085 28.4818 20.7147C30.0547 20.3316 31.1716 19.3076 31.9317 17.9074C32.7015 16.4897 33.1872 14.8757 33.4932 13.2967C33.822 11.5985 33.8676 9.8187 33.3994 8.14151C32.9505 6.53622 32.0308 4.94407 30.7096 3.89989C30.65 3.85255 30.7262 3.75698 30.7885 3.79643Z" fill="#FFBB24"/>
<path d="M23.2143 21.0705C21.7344 20.4007 20.1712 20.0781 18.6097 19.6625C17.1324 19.2688 15.7078 18.6858 14.3883 17.9117C13.1477 17.1831 11.7984 16.2932 11.0812 15.0053C10.3913 13.7665 10.372 12.2489 10.3439 10.868C10.3404 10.7137 10.5736 10.7155 10.5824 10.868C10.6665 12.3093 10.8568 13.8051 11.6687 15.0412C12.484 16.2827 13.9552 17.1489 15.2405 17.8301C16.5652 18.5324 17.9653 19.0049 19.4172 19.3635C20.7797 19.6993 22.2008 19.9878 23.3757 20.7926C23.5501 20.911 23.402 21.1564 23.2143 21.0705Z" fill="#FFBB24"/>
<path d="M32.5488 5.64915C31.274 4.37175 29.9055 3.21096 28.3054 2.36053C26.5853 1.44698 24.6951 0.881485 22.7698 0.609698C21.758 0.466791 20.7191 0.384378 19.6977 0.423831C18.6465 0.464161 17.6987 0.776277 16.7352 1.17344C14.9072 1.92655 13.2134 2.84887 12.5339 4.81889C12.4454 5.07489 12.0771 4.97231 12.1298 4.70754C12.405 3.3074 13.6342 2.279 14.8187 1.62057C16.2013 0.851676 17.8259 0.147661 19.4163 0.0363158C22.6347 -0.188127 26.1557 0.636877 28.9393 2.25883C30.385 3.10137 31.7194 4.16923 32.6488 5.572C32.6891 5.63337 32.5997 5.69913 32.5488 5.64915Z" fill="#FFBB24"/>
<path d="M12.2956 4.91076C11.9089 4.95898 11.4732 4.97739 11.1365 5.19745C10.8604 5.37718 10.7008 5.68579 10.5711 5.97862C10.2668 6.6651 10.138 7.41471 10.0748 8.15818C9.98102 9.27338 9.76271 10.8988 10.6508 11.7545C10.8358 11.9325 10.5544 12.2131 10.3694 12.036C9.86178 11.5485 9.68556 10.8962 9.63296 10.2124C9.56896 9.38473 9.61104 8.51764 9.71888 7.69614C9.82233 6.90533 10.0213 6.05139 10.4772 5.38244C10.9051 4.7547 11.5793 4.63898 12.2956 4.67755C12.4499 4.68369 12.4429 4.89235 12.2956 4.91076Z" fill="#FFBB24"/>
<path d="M33.5694 8.0349C32.5761 6.37174 30.5964 5.30827 28.8973 4.50167C27.1009 3.64861 25.1765 3.07172 23.2205 2.72279C21.1558 2.35456 18.8526 2.11521 16.9326 3.14712C16.2706 3.50308 15.5903 4.03087 15.2265 4.7042C15.0844 4.96634 14.981 5.25829 14.8705 5.53446C14.3655 6.80046 13.9631 8.11468 13.715 9.45521C13.4099 11.1017 13.2871 12.935 13.8842 14.5341C14.8635 17.1582 18.0644 17.437 20.4114 18.0498C22.2394 18.5268 23.9982 19.1817 25.7341 19.9234C26.6459 20.3127 27.7751 20.9641 28.7956 20.6423C28.9868 20.5818 29.0604 20.872 28.8772 20.9386C27.989 21.2639 27.0667 20.9009 26.2452 20.5511C24.5505 19.8296 22.8768 19.1124 21.1014 18.6039C19.5908 18.1717 18.0197 17.9087 16.5415 17.3677C15.4316 16.9618 14.4242 16.3305 13.8447 15.2688C13.06 13.8327 13.0364 12.0363 13.2284 10.4538C13.4221 8.85728 13.8623 7.29231 14.4409 5.79485C14.8083 4.84448 15.1493 4.0861 15.9804 3.4268C17.5743 2.16343 19.6855 2.01088 21.6354 2.21866C23.9271 2.46327 26.2031 3.03753 28.3213 3.94758C29.4383 4.42715 30.5105 5.00579 31.5126 5.69228C32.3946 6.29722 33.2442 6.96529 33.7097 7.95161C33.7544 8.04542 33.6247 8.12608 33.5694 8.0349Z" fill="#FFBB24"/>
<path d="M32.0281 18.2942C32.6103 17.9628 33.2109 17.5972 33.6527 17.0852C34.1297 16.532 34.2393 15.8315 34.5259 15.1827C34.8679 14.4085 35.8077 13.5563 36.6643 14.2174C37.0273 14.498 37.0799 14.9653 37.0264 15.3905C36.9378 16.0866 36.2978 16.7363 36.4574 17.428C36.6836 18.4064 36.5117 19.6005 35.5771 20.1766C35.3851 20.2949 35.1966 20.031 35.3431 19.8723C35.6981 19.4883 35.9962 19.1315 36.1076 18.6019C36.2163 18.0812 35.9936 17.6735 35.9804 17.1729C35.9699 16.7661 36.2128 16.4382 36.382 16.0892C36.6327 15.572 36.901 14.4243 35.998 14.4155C34.8565 14.4041 34.7425 16.1462 34.3076 16.8923C33.8342 17.705 33.0171 18.1864 32.1798 18.5537C32.0071 18.6291 31.8563 18.3915 32.0281 18.2942Z" fill="#FFBB24"/>
<path d="M36.2925 16.7015C36.7528 16.1755 37.2499 15.6871 37.9785 15.6021C38.5159 15.5398 39.0235 15.7617 39.3172 16.2211C39.6635 16.762 39.6951 17.4765 39.6749 18.0981C39.653 18.8039 39.5154 19.5158 39.1743 20.1401C38.8692 20.7003 38.401 21.1834 37.8163 21.4499C37.1017 21.7743 36.3048 21.7357 35.5464 21.8672C34.689 22.0154 33.949 22.4713 33.2239 22.9281C32.5261 23.3682 31.8247 23.803 31.0987 24.1949C29.5601 25.0252 27.8759 25.6854 26.104 25.6775C25.8077 25.6766 25.8085 25.2269 26.104 25.2181C27.8382 25.1672 29.4294 24.5702 30.9401 23.7487C32.3332 22.9921 33.6807 21.7936 35.2562 21.4543C36.04 21.2851 36.886 21.3631 37.6304 21.0299C38.4449 20.6652 38.9367 19.8683 39.1393 19.0257C39.3172 18.284 39.4075 17.1776 39.0007 16.4858C38.3572 15.3926 37.1044 16.3263 36.4398 16.8497C36.3363 16.9321 36.2013 16.8058 36.2925 16.7015Z" fill="#FFBB24"/>
<path d="M26.2662 21.2718C26.7432 22.4659 26.6494 23.8924 26.4626 25.1373C26.2741 26.3946 25.976 27.8657 25.2799 28.9494C23.9385 31.036 21.1943 31.5673 18.9069 31.1018C18.6781 31.0553 18.7254 30.666 18.963 30.6897C21.1882 30.9106 23.8122 30.6196 24.9844 28.419C25.5306 27.3949 25.7893 26.1403 25.9848 25.005C26.2013 23.746 26.1137 22.5668 26.0032 21.306C25.9892 21.1447 26.2145 21.143 26.2662 21.2718Z" fill="#FFBB24"/>
<path d="M17.6208 19.6209C17.6568 20.4888 17.0957 21.2069 16.3373 21.5777C15.3317 22.0696 14.1595 21.9197 13.0864 21.8311C11.7792 21.7224 10.4211 21.8723 9.29714 22.6219C8.82809 22.9349 8.9745 23.4767 8.60277 23.8274C8.31257 24.101 7.92506 24.0194 7.57086 23.9686C7.01764 23.8879 6.62223 24.2193 6.08918 24.2667C5.6438 24.3061 5.18527 24.1957 4.81178 23.9493C4.1139 23.489 3.78864 22.5807 4.02185 21.7803C4.29539 20.8404 4.95644 19.8944 5.82791 19.4438C6.19877 19.2518 6.45302 19.1246 6.86772 19.0773C7.19474 19.0405 7.34291 19.03 7.60154 18.8213C7.82248 18.6433 8.01711 18.4496 8.25208 18.2874C9.07094 17.7254 10.1362 17.3107 11.1181 17.1748C12.1342 17.0345 13.3766 17.024 14.3471 17.3975C14.5216 17.4641 14.5198 17.785 14.2989 17.7561C13.4809 17.65 12.684 17.5272 11.8546 17.5597C10.9919 17.5939 10.2081 17.8288 9.41988 18.1708C9.0464 18.3321 8.67992 18.5188 8.34764 18.7555C8.03728 18.9765 7.79968 19.3245 7.42181 19.4271C7.09304 19.5165 6.74059 19.4604 6.42409 19.5972C5.95066 19.8015 5.47985 20.0899 5.17124 20.509C4.57857 21.3147 3.9859 22.5097 4.80126 23.3724C5.14582 23.7363 5.68062 23.902 6.17159 23.8143C6.58629 23.7406 6.91155 23.4768 7.34729 23.4969C7.52176 23.5057 7.69097 23.5513 7.86456 23.5679C8.22051 23.6012 8.33887 23.4233 8.45022 23.1059C8.57471 22.7508 8.68694 22.5009 9.00782 22.2756C9.68466 21.8022 10.6605 21.4743 11.4714 21.3735C12.6147 21.2306 13.7518 21.533 14.8959 21.4769C16.0313 21.4217 17.2701 20.8404 17.4385 19.5946C17.4543 19.4894 17.6173 19.5218 17.6208 19.6209Z" fill="#FFBB24"/>
<path d="M23.4317 30.5223C23.3099 31.0817 23.0556 31.6016 22.8268 32.125C22.6024 32.6396 22.3762 33.1586 22.0965 33.6461C21.5731 34.557 20.8068 35.2163 19.8608 35.6643C17.918 36.5849 15.514 36.748 13.5089 35.9186C13.2275 35.802 13.3309 35.3505 13.6387 35.4478C15.6341 36.0799 17.7567 36.1036 19.6714 35.1734C20.5964 34.7236 21.2697 34.0669 21.7721 33.1718C22.2736 32.2775 22.605 31.2535 23.2327 30.4381C23.3055 30.3443 23.4598 30.3943 23.4317 30.5223Z" fill="#FFBB24"/>
<path d="M16.7082 30.4379C15.9191 33.6318 13.6361 36.3892 10.6491 37.7411C9.75482 38.1461 8.95787 38.5626 8.21528 39.2131C7.58579 39.7637 6.8809 40.0329 6.03748 39.9978C5.32295 39.968 4.57422 39.7313 4.07974 39.1921C3.82023 38.9098 3.68258 38.5626 3.53529 38.2154C3.35907 37.7998 3.1241 37.3957 3.05396 36.945C2.91018 36.0227 3.31435 34.9732 3.67644 34.1377C4.04116 33.2961 4.57334 32.5517 5.37292 32.0809C5.64646 31.9196 5.89457 32.3457 5.62103 32.5052C4.95998 32.8928 4.51372 33.4916 4.18933 34.1754C3.85793 34.8733 3.49408 35.7965 3.50986 36.5768C3.51863 37.016 3.7159 37.3922 3.89124 37.7841C4.07273 38.1891 4.20424 38.6196 4.53301 38.9343C5.06343 39.4402 5.89984 39.5577 6.59859 39.4595C7.45866 39.3376 7.93035 38.6994 8.60192 38.2312C9.24807 37.7797 9.98453 37.4851 10.6964 37.1554C11.887 36.6031 12.8839 35.8316 13.7597 34.8549C14.931 33.5486 15.8288 32.0029 16.4706 30.3739C16.5276 30.2284 16.7468 30.2801 16.7082 30.4379Z" fill="#FFBB24"/>
<path d="M24.561 21.4649C22.8408 22.6818 20.7656 23.5743 18.7798 24.2643C16.7195 24.9789 14.5364 25.0341 12.3788 25.1095C12.1412 25.1183 12.1421 24.7492 12.3788 24.7404C14.497 24.6615 16.6423 24.5379 18.6676 23.8575C20.6516 23.1912 22.6287 22.3057 24.433 21.2457C24.5759 21.1624 24.6925 21.372 24.561 21.4649Z" fill="#FFBB24"/>
<path d="M26.0224 21.4836C26.0224 21.4994 26.0224 21.5151 26.0206 21.5309C26.0101 21.6405 25.8602 21.6405 25.8497 21.5309C25.8479 21.5151 25.8479 21.4994 25.8479 21.4836C25.8488 21.3714 26.0224 21.3714 26.0224 21.4836Z" fill="#FFBB24"/>
<path d="M26.5741 21.4683C25.9586 22.4134 25.0214 23.1104 24.0666 23.6873C23.0066 24.3274 21.8572 24.8981 20.6815 25.2926C18.1609 26.1378 15.4799 25.9958 12.8646 25.9204C12.6673 25.9142 12.6664 25.6074 12.8646 25.6127C15.3431 25.6793 17.9137 25.6845 20.3072 24.9533C22.5814 24.259 24.704 23.0044 26.361 21.3044C26.4671 21.1957 26.66 21.3368 26.5741 21.4683Z" fill="#FFBB24"/>
<path d="M12.2675 24.8627C12.0799 24.384 11.8493 24.1586 11.3689 23.9693C11.0918 23.8597 10.8095 23.7711 10.543 23.6352C10.066 23.3924 9.5207 23.0127 9.26031 22.5349C9.1551 22.3412 9.39357 22.1772 9.55314 22.3096C9.87139 22.5735 10.123 22.8847 10.4781 23.1109C10.8498 23.3485 11.2645 23.4651 11.6626 23.6449C12.1237 23.8535 12.6997 24.284 12.5428 24.8627C12.5033 25.0091 12.3157 24.9871 12.2675 24.8627Z" fill="#FFBB24"/>
<path d="M12.5164 25.0251C11.8606 25.2241 11.6406 26.3867 11.4188 26.9417C11.2171 27.4475 10.9629 27.9455 10.507 28.2681C9.93271 28.6741 9.1831 28.7232 8.50364 28.6986C7.65671 28.6671 7.03686 28.3777 6.32496 27.9367C5.05545 27.1512 3.96041 26.2052 3.20642 24.8971C2.90571 24.3763 2.50504 23.7258 2.72598 23.1086C2.97058 22.4265 3.66934 21.7505 4.15154 21.235C4.34092 21.0325 4.61884 21.3271 4.45051 21.534C4.20853 21.8329 3.94726 22.1161 3.70002 22.4107C3.40807 22.7596 3.00828 23.1445 3.08281 23.6425C3.16872 24.2194 3.67372 24.8954 4.01389 25.3565C4.83715 26.4717 6.01898 27.3528 7.25605 27.9657C7.91973 28.2944 8.79647 28.3321 9.51889 28.1892C10.2036 28.0542 10.6253 27.636 10.9129 27.0214C11.2522 26.2955 11.4758 24.8454 12.4866 24.7928C12.6208 24.7866 12.6401 24.9874 12.5164 25.0251Z" fill="#FFBB24"/>
<path d="M12.9408 25.7133C12.7199 26.683 12.392 27.6237 12.1929 28.5995C12.0229 29.4351 11.9475 30.3057 11.5573 31.0772C10.7884 32.5992 9.00865 32.7658 7.47349 32.6623C5.83488 32.5527 4.24361 31.9934 2.8575 31.121C1.64586 30.3574 0.023028 29.1343 0.00023302 27.5492C-0.0111645 26.7093 0.397392 25.851 0.819977 25.1461C1.28464 24.3711 1.86679 23.6855 2.57782 23.1261C2.81805 22.9367 3.08457 23.2751 2.83646 23.461C1.68005 24.3263 0.844526 25.5485 0.534163 26.9671C0.169442 28.6346 1.86942 29.9111 3.11175 30.6879C4.35233 31.4629 5.76913 31.9925 7.22976 32.1354C8.66146 32.2766 10.4588 32.2275 11.1566 30.7554C11.5354 29.9558 11.5968 29.0432 11.8037 28.1936C12.0185 27.3116 12.3201 26.4366 12.6997 25.6116C12.7646 25.4705 12.9732 25.5731 12.9408 25.7133Z" fill="#FFBB24"/>
<path d="M9.84163 28.3786C10.0275 28.9397 10.0556 29.5701 10.0512 30.1566C10.0494 30.3337 9.81971 30.4389 9.69346 30.3048C9.54617 30.1478 9.39625 29.9927 9.24019 29.8454C9.11044 29.7226 8.85881 29.4166 8.68697 29.407C8.5467 29.3991 8.37135 29.5894 8.25825 29.6735C8.06449 29.8182 7.86635 29.9576 7.66646 30.0935C7.54897 30.1733 7.38853 30.0672 7.38941 29.9348C7.39204 29.4245 7.64541 28.9134 7.7892 28.4286C7.85057 28.2208 8.18022 28.312 8.11359 28.518C7.97068 28.9607 7.74624 29.4649 7.75764 29.9348C7.66558 29.8822 7.57265 29.8287 7.48059 29.7761C7.74975 29.599 8.01452 29.4158 8.27316 29.2229C8.40993 29.1203 8.55809 28.9546 8.74571 28.9713C8.93334 28.9879 9.15076 29.2264 9.28666 29.3439C9.53127 29.5543 9.7636 29.7796 9.9898 30.0102C9.87056 30.0593 9.75133 30.1093 9.63209 30.1584C9.62508 29.5762 9.54354 29.0037 9.5225 28.4233C9.51549 28.2322 9.78552 28.2094 9.84163 28.3786Z" fill="#FFBB24"/>
<path d="M6.23119 27.6679C6.13475 28.065 5.97694 28.4113 5.8051 28.7805C5.75776 28.8822 5.60433 28.89 5.53244 28.8155C5.19139 28.4648 5.16333 27.9344 5.10634 27.4697C5.05374 27.0454 4.85647 27.041 4.49614 26.9621C4.21208 26.8999 3.94555 26.7955 3.67902 26.6807C3.53787 26.6202 3.57995 26.4308 3.67902 26.3598C3.87278 26.2204 4.06128 26.0854 4.27958 25.9872C4.44879 25.9109 4.67411 26.1336 4.49877 26.2712C4.29975 26.4282 4.08407 26.5509 3.86577 26.6798C3.86577 26.5728 3.86577 26.4659 3.86577 26.3589C4.19805 26.5237 4.5426 26.629 4.90732 26.6938C5.06689 26.7228 5.2212 26.714 5.33254 26.8508C5.45353 26.9998 5.43599 27.3251 5.46317 27.5074C5.51578 27.8511 5.51928 28.3009 5.77704 28.5683C5.68586 28.5797 5.59468 28.592 5.50438 28.6034C5.68937 28.2474 5.87085 27.916 6.1216 27.603C6.16544 27.5504 6.24522 27.61 6.23119 27.6679Z" fill="#FFBB24"/>
<path d="M13.1626 21.6533C12.7426 22.4002 12.3174 23.1463 11.872 23.8793C11.7423 24.0932 11.424 23.9047 11.538 23.6838C11.7695 23.2349 12.0377 22.8079 12.3104 22.3836C12.5042 22.082 12.6813 21.6647 13.0258 21.5174C13.1135 21.4797 13.2161 21.5594 13.1626 21.6533Z" fill="#FFBB24"/>
<path d="M10.4781 17.3171C11.2523 17.6547 11.7818 18.3332 12.0361 19.1284C12.2622 19.8368 12.4797 20.9433 11.9992 21.5877C11.9072 21.7113 11.6994 21.5999 11.7871 21.4632C12.1877 20.8381 12.0027 19.8631 11.7914 19.1951C11.5565 18.4498 11.0936 17.823 10.3773 17.4881C10.2607 17.4337 10.3624 17.2663 10.4781 17.3171Z" fill="#FFBB24"/>
<path d="M9.2821 22.272C9.26105 20.9823 9.0559 19.5515 7.72063 18.972C7.60403 18.9211 7.68907 18.7142 7.80831 18.7633C8.47725 19.0395 8.84899 19.5638 9.15585 20.2003C9.44955 20.8105 9.74589 21.6618 9.44078 22.3141C9.40309 22.3948 9.28297 22.3509 9.2821 22.272Z" fill="#FFBB24"/>
<path d="M8.50284 21.0224C8.32837 20.627 8.08113 20.2684 7.76813 19.9695C7.46742 19.6828 7.07902 19.5583 6.77392 19.2997C6.72395 19.2576 6.7634 19.1611 6.82915 19.1673C7.22281 19.2041 7.63049 19.5723 7.89438 19.8441C8.21264 20.1729 8.43357 20.5586 8.57911 20.9909C8.59314 21.0347 8.52125 21.0663 8.50284 21.0224Z" fill="#FFBB24"/>
<path d="M13.921 21.5179C14.4847 21.1067 14.6969 20.1247 14.7162 19.4742C14.732 18.9376 14.5452 17.5936 13.8877 17.4218C13.7553 17.3876 13.7798 17.1745 13.9201 17.1798C14.696 17.2113 14.9547 18.6562 14.9967 19.2419C15.0555 20.0634 14.8679 21.3092 14.0157 21.6792C13.9052 21.7283 13.8219 21.5906 13.921 21.5179Z" fill="#FFBB24"/>
<path d="M22.022 33.5877C21.3259 33.6149 20.6964 33.5062 20.0564 33.2186C19.597 33.0126 18.7579 32.5865 18.608 32.0604C18.5913 32.0026 18.6492 31.9377 18.7106 31.9579C18.9394 32.0359 19.0665 32.2051 19.2524 32.3568C19.504 32.5619 19.7819 32.7373 20.0686 32.8881C20.6631 33.2002 21.3539 33.3931 22.022 33.4527C22.107 33.4614 22.1088 33.5842 22.022 33.5877Z" fill="#FFBB24"/>
<path d="M19.1822 35.6423C18.3712 35.9378 17.6725 35.2688 17.185 34.6849C16.6949 34.0975 16.2408 33.2997 16.3319 32.5071C16.3565 32.2958 16.6467 32.2906 16.6651 32.5071C16.7677 33.7503 17.7093 35.5134 19.1647 35.5029C19.2462 35.5029 19.2541 35.616 19.1822 35.6423Z" fill="#FFBB24"/>
<path d="M13.6807 35.3208C12.8171 35.6171 11.9009 34.9999 11.2302 34.5054C10.4973 33.9654 9.838 33.3148 9.36632 32.5328C9.25585 32.3504 9.52764 32.2014 9.64775 32.3688C10.0931 32.9887 10.5692 33.5831 11.1601 34.0714C11.7992 34.6001 12.7715 35.3427 13.643 35.1849C13.7324 35.1682 13.7675 35.291 13.6807 35.3208Z" fill="#FFBB24"/>
<path d="M11.41 37.1398C10.3185 37.7167 9.11123 36.7111 8.4379 35.9071C7.61202 34.9217 7.14472 33.7188 6.9422 32.4598C6.90976 32.2599 7.21925 32.1784 7.24555 32.3765C7.38582 33.4163 7.74528 34.4448 8.35724 35.3031C8.97446 36.1693 10.2054 37.3774 11.3776 37.0609C11.4232 37.0478 11.4547 37.1161 11.41 37.1398Z" fill="#FFBB24"/>
<path d="M8.11793 37.7683C7.74445 37.3791 7.29556 37.0319 6.82826 36.7627C6.39691 36.5146 5.88315 36.3945 5.47897 36.1104C5.44303 36.085 5.43864 36.0131 5.493 36.0044C6.567 35.8413 7.67431 36.8811 8.23191 37.6798C8.27925 37.7482 8.17404 37.8271 8.11793 37.7683Z" fill="#FFBB24"/>
<path d="M15.1159 32.2768C14.7197 31.7797 14.2191 31.3668 13.6448 31.0915C13.0171 30.7899 12.2666 30.7934 11.666 30.4725C11.6231 30.4497 11.6318 30.3778 11.68 30.3664C12.3455 30.2191 13.2047 30.5488 13.7965 30.8328C14.4198 31.1318 14.9275 31.5623 15.2352 32.1848C15.2711 32.2567 15.1729 32.3487 15.1159 32.2768Z" fill="#FFBB24"/>
<path d="M17.0579 30.488C15.9602 30.3959 15.0475 29.8392 14.1261 29.2737C13.4475 28.8572 12.2771 28.1909 12.1157 27.3335C12.0921 27.2072 12.2288 27.1257 12.327 27.2107C12.6427 27.4825 12.8496 27.8613 13.1713 28.1401C13.5448 28.4645 13.9656 28.731 14.3874 28.987C15.2404 29.506 16.1172 30.0373 17.0807 30.324C17.1657 30.3503 17.1543 30.4967 17.0579 30.488Z" fill="#FFBB24"/>
<path d="M33.509 17.6552C33.0303 18.2417 33.0259 19.2114 33.0838 19.9285C33.1486 20.7272 33.402 21.4742 33.8018 22.1659C33.9105 22.3544 33.6124 22.5263 33.5116 22.336C33.0899 21.5391 32.8409 20.6623 32.8058 19.7602C32.7778 19.0369 32.8032 18.0506 33.4038 17.5508C33.4774 17.4886 33.5695 17.5806 33.509 17.6552Z" fill="#FFBB24"/>
<path d="M31.3345 23.8209C30.0247 23.4693 29.4417 22.1042 29.2277 20.8803C29.19 20.6664 29.5179 20.5743 29.5556 20.79C29.7678 22.0025 30.2719 23.0642 31.4064 23.6525C31.5002 23.7008 31.4345 23.8472 31.3345 23.8209Z" fill="#FFBB24"/>
<path d="M28.0521 25.2555C27.4279 24.9635 27.0386 24.2034 26.823 23.5809C26.6213 22.9996 26.3101 21.9081 26.6599 21.3408C26.7344 21.2207 26.9308 21.297 26.8913 21.4382C26.7046 22.1054 26.8975 22.9558 27.1307 23.5905C27.3604 24.2174 27.769 24.6268 28.1635 25.1432C28.2178 25.216 28.1161 25.2853 28.0521 25.2555Z" fill="#FFBB24"/>
<path d="M12.2236 4.64788C12.7058 4.72591 12.9004 5.40274 12.9662 5.81218C13.0705 6.45657 12.9697 7.16585 12.6593 7.74099C12.6242 7.80499 12.5182 7.77693 12.5208 7.70329C12.5576 6.67488 12.9513 5.65086 12.135 4.79955C12.0684 4.72854 12.1377 4.63385 12.2236 4.64788Z" fill="#FFBB24"/>
<path d="M11.3162 6.10574C12.008 6.4652 11.7967 7.59093 11.6836 8.19938C11.6003 8.64651 11.5073 10.0379 10.7989 9.95723C10.7156 9.94758 10.6692 9.85728 10.7297 9.79065C11.1356 9.34877 11.1926 8.76838 11.3031 8.19324C11.4302 7.53306 11.5573 6.84307 11.1654 6.25566C11.1005 6.1601 11.2241 6.0584 11.3162 6.10574Z" fill="#FFBB24"/>
<defs>
<linearGradient id="paint0_linear" x1="17.3469" y1="16.8866" x2="26.7485" y2="9.99213" gradientUnits="userSpaceOnUse">
<stop stop-color="#FFBB24" stop-opacity="0"/>
<stop offset="0.8391" stop-color="#FFBB24" stop-opacity="0.9"/>
<stop offset="1" stop-color="#FFBB24"/>
</linearGradient>
</defs>
</svg>
