<svg width="24" height="24" viewBox="0 0 24 24" fill="none" xmlns="http://www.w3.org/2000/svg">
<path d="M13.438 17.5361H3.84185C3.04598 17.5361 2.40015 18.182 2.40015 18.9781V21.5999H14.8797V18.9781C14.8797 18.182 14.2339 17.5361 13.438 17.5361Z" fill="#84C87E"/>
<path d="M21.3413 17.7394L12.5816 8.97867L14.2735 7.28955C14.5525 7.53558 14.9815 7.52355 15.2455 7.25954C15.5215 6.98054 15.5215 6.53347 15.2455 6.25446L11.5977 2.60916C11.3217 2.33015 10.8717 2.33015 10.5957 2.60916C10.3167 2.8852 10.3167 3.33523 10.5957 3.61123L10.5657 3.58123L5.93387 8.2106L5.96387 8.24357C5.68786 7.96456 5.23788 7.96456 4.96192 8.24357C4.68294 8.51961 4.68294 8.96965 4.96192 9.24569L8.60677 12.894C8.88575 13.17 9.33573 13.17 9.61174 12.894C9.88774 12.615 9.88774 12.1679 9.61174 11.889L9.64174 11.9189L11.3337 10.2298L20.0903 18.9875C20.4353 19.3325 20.9963 19.3325 21.3413 18.9875C21.6863 18.6425 21.6863 18.0844 21.3413 17.7394Z" fill="#84C87E"/>
</svg>
