<svg width="17" height="16" viewBox="0 0 17 16" fill="none" xmlns="http://www.w3.org/2000/svg">
<path d="M9.69821 12.6135H1.70142C1.0382 12.6135 0.5 13.1517 0.5 13.8151V16H10.8996V13.8151C10.8996 13.1517 10.3614 12.6135 9.69821 12.6135Z" fill="white"/>
<path d="M16.2844 12.7829L8.98465 5.48231L10.3946 4.0747C10.6271 4.27973 10.9846 4.26971 11.2046 4.0497C11.4346 3.81719 11.4346 3.44464 11.2046 3.21213L8.1647 0.17438C7.93469 -0.0581266 7.55971 -0.0581266 7.32974 0.17438C7.09726 0.404412 7.09726 0.779443 7.32974 1.00944L7.30474 0.98444L3.44486 4.84225L3.46986 4.86972C3.23986 4.63722 2.86487 4.63722 2.6349 4.86972C2.40242 5.09976 2.40242 5.47479 2.6349 5.70482L5.67228 8.74505C5.90476 8.97508 6.27975 8.97508 6.50975 8.74505C6.73975 8.51254 6.73975 8.14001 6.50975 7.90754L6.53475 7.93248L7.94469 6.52487L15.2419 13.823C15.5294 14.1105 15.9969 14.1105 16.2844 13.823C16.5719 13.5355 16.5719 13.0704 16.2844 12.7829Z" fill="white"/>
</svg>
