<svg width="20" height="20" viewBox="0 0 20 20" fill="none" xmlns="http://www.w3.org/2000/svg">
<path d="M1.875 6.87499V6.90078C1.87408 7.06183 1.81593 7.21731 1.71094 7.33945V7.3414C1.5 7.59062 1.25 8.03671 1.25 8.74999C1.25 9.39648 1.45703 9.85273 1.70625 10.1527C1.81559 10.2858 1.87525 10.4528 1.875 10.625C1.875 10.9565 2.0067 11.2745 2.24112 11.5089C2.47554 11.7433 2.79348 11.875 3.125 11.875H3.4375C3.52038 11.875 3.59987 11.8421 3.65847 11.7835C3.71708 11.7249 3.75 11.6454 3.75 11.5625V5.9375C3.75 5.85461 3.71708 5.77513 3.65847 5.71652C3.59987 5.65792 3.52038 5.625 3.4375 5.625H3.125C2.79348 5.625 2.47554 5.75669 2.24112 5.99111C2.0067 6.22553 1.875 6.54347 1.875 6.87499ZM17.6633 7.2871L17.627 7.28046C17.5912 7.27365 17.559 7.25458 17.5358 7.22656C17.5127 7.19854 17.5 7.16331 17.5 7.12695V2.42187C17.5 1.92812 17.1723 1.48437 16.684 1.31562C16.2184 1.15507 15.7332 1.28593 15.4465 1.64882C14.8365 2.37719 14.166 3.05265 13.4422 3.66796C12.5191 4.44921 11.6359 5.00585 10.825 5.3207C10.7659 5.34325 10.715 5.38321 10.679 5.43532C10.6431 5.48742 10.6239 5.54921 10.6238 5.61249V11.6797C10.6239 11.8019 10.6598 11.9213 10.7271 12.0233C10.7944 12.1253 10.8901 12.2053 11.0023 12.2535C11.7578 12.5773 12.5742 13.1062 13.4242 13.8269C14.1535 14.4478 14.8289 15.1294 15.443 15.8644C15.5414 15.9879 15.6669 16.0869 15.8099 16.1538C15.9529 16.2207 16.1094 16.2536 16.2672 16.25C16.4059 16.2494 16.5436 16.2264 16.675 16.182C17.1762 16.0156 17.5 15.5879 17.5 15.0937V10.3723C17.5 10.3354 17.5131 10.2997 17.5369 10.2715C17.5607 10.2434 17.5937 10.2245 17.6301 10.2184L17.6633 10.2129C18.0391 10.1109 18.75 9.6746 18.75 8.74999C18.75 7.82539 18.0391 7.38906 17.6633 7.2871ZM9.375 12.5V5.9375C9.375 5.85461 9.34208 5.77513 9.28347 5.71652C9.22487 5.65792 9.14538 5.625 9.0625 5.625H5.3125C5.22962 5.625 5.15013 5.65792 5.09153 5.71652C5.03292 5.77513 5 5.85461 5 5.9375V17.8125C5 18.0611 5.09877 18.2996 5.27459 18.4754C5.4504 18.6512 5.68886 18.75 5.9375 18.75H7.98633C8.18108 18.7516 8.37362 18.7086 8.54919 18.6243C8.72477 18.54 8.87871 18.4167 8.99922 18.2637C9.12278 18.1053 9.20588 17.9192 9.24134 17.7215C9.2768 17.5237 9.26355 17.3203 9.20273 17.1289C9.13945 16.9266 9.06094 16.6992 8.97734 16.4574C8.66836 15.5629 8.26094 15.0094 8.15234 13.7496C8.47903 13.7425 8.78994 13.6077 9.01847 13.3741C9.24699 13.1405 9.37498 12.8268 9.375 12.5Z" fill="#35A5FC"/>
</svg>
