<svg width="16" height="16" viewBox="0 0 16 16" fill="none" xmlns="http://www.w3.org/2000/svg">
<rect width="16" height="16" rx="8" fill="url(#paint0_linear)"/>
<path d="M13.2295 7.09083C13.4341 7.09083 13.6 6.92457 13.6 6.71949C13.6 6.5144 13.4341 6.34814 13.2295 6.34814C13.0249 6.34814 12.859 6.5144 12.859 6.71949C12.859 6.92457 13.0249 7.09083 13.2295 7.09083Z" fill="white"/>
<path d="M11.9219 5.77625C12.1265 5.77625 12.2924 5.61 12.2924 5.40491C12.2924 5.19982 12.1265 5.03357 11.9219 5.03357C11.7173 5.03357 11.5514 5.19982 11.5514 5.40491C11.5514 5.61 11.7173 5.77625 11.9219 5.77625Z" fill="white"/>
<path d="M10.6149 4.43177C10.8195 4.43177 10.9854 4.26552 10.9854 4.06043C10.9854 3.85534 10.8195 3.68909 10.6149 3.68909C10.4103 3.68909 10.2444 3.85534 10.2444 4.06043C10.2444 4.26552 10.4103 4.43177 10.6149 4.43177Z" fill="white"/>
<path d="M9.30729 3.14271C9.51191 3.14271 9.67779 2.97645 9.67779 2.77137C9.67779 2.56628 9.51191 2.40002 9.30729 2.40002C9.10267 2.40002 8.9368 2.56628 8.9368 2.77137C8.9368 2.97645 9.10267 3.14271 9.30729 3.14271Z" fill="white"/>
<path d="M6.68831 3.14271C6.89292 3.14271 7.0588 2.97645 7.0588 2.77137C7.0588 2.56628 6.89292 2.40002 6.68831 2.40002C6.48369 2.40002 6.31781 2.56628 6.31781 2.77137C6.31781 2.97645 6.48369 3.14271 6.68831 3.14271Z" fill="white"/>
<path d="M11.9219 8.3628C12.1265 8.3628 12.2924 8.19655 12.2924 7.99146C12.2924 7.78637 12.1265 7.62012 11.9219 7.62012C11.7173 7.62012 11.5514 7.78637 11.5514 7.99146C11.5514 8.19655 11.7173 8.3628 11.9219 8.3628Z" fill="white"/>
<path d="M10.6149 7.09083C10.8195 7.09083 10.9854 6.92457 10.9854 6.71949C10.9854 6.5144 10.8195 6.34814 10.6149 6.34814C10.4103 6.34814 10.2444 6.5144 10.2444 6.71949C10.2444 6.92457 10.4103 7.09083 10.6149 7.09083Z" fill="white"/>
<path d="M9.30729 5.77625C9.51191 5.77625 9.67779 5.61 9.67779 5.40491C9.67779 5.19982 9.51191 5.03357 9.30729 5.03357C9.10267 5.03357 8.9368 5.19982 8.9368 5.40491C8.9368 5.61 9.10267 5.77625 9.30729 5.77625Z" fill="white"/>
<path d="M8.00025 4.43177C8.20487 4.43177 8.37075 4.26552 8.37075 4.06043C8.37075 3.85534 8.20487 3.68909 8.00025 3.68909C7.79564 3.68909 7.62976 3.85534 7.62976 4.06043C7.62976 4.26552 7.79564 4.43177 8.00025 4.43177Z" fill="white"/>
<path d="M5.38948 4.43177C5.5941 4.43177 5.75997 4.26552 5.75997 4.06043C5.75997 3.85534 5.5941 3.68909 5.38948 3.68909C5.18486 3.68909 5.01898 3.85534 5.01898 4.06043C5.01898 4.26552 5.18486 4.43177 5.38948 4.43177Z" fill="white"/>
<path d="M10.6149 9.63904C10.8195 9.63904 10.9854 9.47279 10.9854 9.2677C10.9854 9.06262 10.8195 8.89636 10.6149 8.89636C10.4103 8.89636 10.2444 9.06262 10.2444 9.2677C10.2444 9.47279 10.4103 9.63904 10.6149 9.63904Z" fill="white"/>
<path d="M9.30729 8.3628C9.51191 8.3628 9.67779 8.19655 9.67779 7.99146C9.67779 7.78637 9.51191 7.62012 9.30729 7.62012C9.10267 7.62012 8.9368 7.78637 8.9368 7.99146C8.9368 8.19655 9.10267 8.3628 9.30729 8.3628Z" fill="white"/>
<path d="M8.00025 7.09083C8.20487 7.09083 8.37075 6.92457 8.37075 6.71949C8.37075 6.5144 8.20487 6.34814 8.00025 6.34814C7.79564 6.34814 7.62976 6.5144 7.62976 6.71949C7.62976 6.92457 7.79564 7.09083 8.00025 7.09083Z" fill="white"/>
<path d="M6.68831 5.77625C6.89292 5.77625 7.0588 5.61 7.0588 5.40491C7.0588 5.19982 6.89292 5.03357 6.68831 5.03357C6.48369 5.03357 6.31781 5.19982 6.31781 5.40491C6.31781 5.61 6.48369 5.77625 6.68831 5.77625Z" fill="white"/>
<path d="M4.08189 5.77625C4.28651 5.77625 4.45238 5.61 4.45238 5.40491C4.45238 5.19982 4.28651 5.03357 4.08189 5.03357C3.87727 5.03357 3.7114 5.19982 3.7114 5.40491C3.7114 5.61 3.87727 5.77625 4.08189 5.77625Z" fill="white"/>
<path d="M9.30729 10.9536C9.51191 10.9536 9.67779 10.7874 9.67779 10.5823C9.67779 10.3772 9.51191 10.2109 9.30729 10.2109C9.10267 10.2109 8.9368 10.3772 8.9368 10.5823C8.9368 10.7874 9.10267 10.9536 9.30729 10.9536Z" fill="white"/>
<path d="M8.00025 9.63904C8.20487 9.63904 8.37075 9.47279 8.37075 9.2677C8.37075 9.06262 8.20487 8.89636 8.00025 8.89636C7.79564 8.89636 7.62976 9.06262 7.62976 9.2677C7.62976 9.47279 7.79564 9.63904 8.00025 9.63904Z" fill="white"/>
<path d="M6.68831 8.3628C6.89292 8.3628 7.0588 8.19655 7.0588 7.99146C7.0588 7.78637 6.89292 7.62012 6.68831 7.62012C6.48369 7.62012 6.31781 7.78637 6.31781 7.99146C6.31781 8.19655 6.48369 8.3628 6.68831 8.3628Z" fill="white"/>
<path d="M5.38948 7.09083C5.5941 7.09083 5.75997 6.92457 5.75997 6.71949C5.75997 6.5144 5.5941 6.34814 5.38948 6.34814C5.18486 6.34814 5.01898 6.5144 5.01898 6.71949C5.01898 6.92457 5.18486 7.09083 5.38948 7.09083Z" fill="white"/>
<path d="M2.77049 7.09083C2.97511 7.09083 3.14098 6.92457 3.14098 6.71949C3.14098 6.5144 2.97511 6.34814 2.77049 6.34814C2.56587 6.34814 2.39999 6.5144 2.39999 6.71949C2.39999 6.92457 2.56587 7.09083 2.77049 7.09083Z" fill="white"/>
<path d="M8.00025 12.2683C8.20487 12.2683 8.37075 12.1021 8.37075 11.897C8.37075 11.6919 8.20487 11.5256 8.00025 11.5256C7.79564 11.5256 7.62976 11.6919 7.62976 11.897C7.62976 12.1021 7.79564 12.2683 8.00025 12.2683Z" fill="white"/>
<path d="M6.68831 10.9536C6.89292 10.9536 7.0588 10.7874 7.0588 10.5823C7.0588 10.3772 6.89292 10.2109 6.68831 10.2109C6.48369 10.2109 6.31781 10.3772 6.31781 10.5823C6.31781 10.7874 6.48369 10.9536 6.68831 10.9536Z" fill="white"/>
<path d="M5.38948 9.63904C5.5941 9.63904 5.75997 9.47279 5.75997 9.2677C5.75997 9.06262 5.5941 8.89636 5.38948 8.89636C5.18486 8.89636 5.01898 9.06262 5.01898 9.2677C5.01898 9.47279 5.18486 9.63904 5.38948 9.63904Z" fill="white"/>
<path d="M4.08189 8.3628C4.28651 8.3628 4.45238 8.19655 4.45238 7.99146C4.45238 7.78637 4.28651 7.62012 4.08189 7.62012C3.87727 7.62012 3.7114 7.78637 3.7114 7.99146C3.7114 8.19655 3.87727 8.3628 4.08189 8.3628Z" fill="white"/>
<path d="M13.2295 9.63904C13.4341 9.63904 13.6 9.47279 13.6 9.2677C13.6 9.06262 13.4341 8.89636 13.2295 8.89636C13.0249 8.89636 12.859 9.06262 12.859 9.2677C12.859 9.47279 13.0249 9.63904 13.2295 9.63904Z" fill="white"/>
<path d="M11.9219 10.9536C12.1265 10.9536 12.2924 10.7874 12.2924 10.5823C12.2924 10.3772 12.1265 10.2109 11.9219 10.2109C11.7173 10.2109 11.5514 10.3772 11.5514 10.5823C11.5514 10.7874 11.7173 10.9536 11.9219 10.9536Z" fill="white"/>
<path d="M10.6149 12.2683C10.8195 12.2683 10.9854 12.1021 10.9854 11.897C10.9854 11.6919 10.8195 11.5256 10.6149 11.5256C10.4103 11.5256 10.2444 11.6919 10.2444 11.897C10.2444 12.1021 10.4103 12.2683 10.6149 12.2683Z" fill="white"/>
<path d="M9.30729 13.6C9.51191 13.6 9.67779 13.4337 9.67779 13.2286C9.67779 13.0236 9.51191 12.8573 9.30729 12.8573C9.10267 12.8573 8.9368 13.0236 8.9368 13.2286C8.9368 13.4337 9.10267 13.6 9.30729 13.6Z" fill="white"/>
<path d="M6.68831 13.6C6.89292 13.6 7.0588 13.4337 7.0588 13.2286C7.0588 13.0236 6.89292 12.8573 6.68831 12.8573C6.48369 12.8573 6.31781 13.0236 6.31781 13.2286C6.31781 13.4337 6.48369 13.6 6.68831 13.6Z" fill="white"/>
<path d="M5.38948 12.2683C5.5941 12.2683 5.75997 12.1021 5.75997 11.897C5.75997 11.6919 5.5941 11.5256 5.38948 11.5256C5.18486 11.5256 5.01898 11.6919 5.01898 11.897C5.01898 12.1021 5.18486 12.2683 5.38948 12.2683Z" fill="white"/>
<path d="M4.08189 10.9536C4.28651 10.9536 4.45238 10.7874 4.45238 10.5823C4.45238 10.3772 4.28651 10.2109 4.08189 10.2109C3.87727 10.2109 3.7114 10.3772 3.7114 10.5823C3.7114 10.7874 3.87727 10.9536 4.08189 10.9536Z" fill="white"/>
<path d="M2.77049 9.63904C2.97511 9.63904 3.14098 9.47279 3.14098 9.2677C3.14098 9.06262 2.97511 8.89636 2.77049 8.89636C2.56587 8.89636 2.39999 9.06262 2.39999 9.2677C2.39999 9.47279 2.56587 9.63904 2.77049 9.63904Z" fill="white"/>
<path d="M9.13256 2.64758H6.84998V2.861H9.13256V2.64758Z" fill="white"/>
<path d="M4.04785 5.30673C4.03507 5.2982 4.01804 5.28966 4.00526 5.27686L2.71066 6.57442C2.78306 6.59149 2.84694 6.64698 2.87249 6.71527L4.12876 5.45612C4.08618 5.41771 4.05211 5.36222 4.04785 5.30673Z" fill="white"/>
<path d="M5.56855 4.01345L6.84612 2.73296C6.80354 2.70735 6.76521 2.68601 6.72262 2.6604C6.68004 2.66894 6.63319 2.68174 6.58635 2.68601L5.38544 3.89394C5.47061 3.89394 5.53449 3.94516 5.56855 4.01345Z" fill="white"/>
<path d="M6.9227 13.1818H9.20954V13.3952H6.9227V13.1818Z" fill="white"/>
<path d="M13.136 9.22925L11.8457 10.5225C11.9181 10.5482 11.9734 10.6079 11.9947 10.6762L13.2553 9.41278C13.2042 9.34022 13.1658 9.289 13.136 9.22925Z" fill="white"/>
<path d="M10.4784 11.897L9.11566 13.2586C9.18806 13.2756 9.25194 13.3269 9.26471 13.4122L10.6445 12.0293C10.5721 12.0165 10.5082 11.961 10.4784 11.897Z" fill="white"/>
<path d="M9.28592 5.34949L5.31268 9.3318C5.38508 9.35315 5.4447 9.4129 5.46599 9.48119L9.44348 5.49461C9.37109 5.4818 9.31147 5.42205 9.28592 5.34949Z" fill="white"/>
<path d="M10.5976 6.56165L6.53494 10.6336C6.54772 10.6379 6.56049 10.6379 6.57327 10.6421H6.73084C6.76065 10.6421 6.79046 10.6464 6.81175 10.6592L10.6232 6.83908C10.5721 6.74945 10.5721 6.65555 10.5976 6.56165Z" fill="white"/>
<path d="M13.2039 6.7409C13.1954 6.67687 13.1954 6.60858 13.1996 6.54029L12.0796 5.41772C12.0456 5.50309 11.9732 5.54151 11.8965 5.54151L13.1656 6.81346C13.1783 6.78358 13.1911 6.76224 13.2039 6.7409Z" fill="white"/>
<path d="M10.6105 3.94091L9.23077 2.55798C9.17966 2.6092 9.12004 2.65189 9.06042 2.6903L10.5083 4.14152C10.5041 4.05615 10.5509 3.98359 10.6105 3.94091Z" fill="white"/>
<path d="M4.12469 10.5482L2.74492 9.16528C2.74066 9.17382 2.74066 9.17809 2.73641 9.18662C2.74492 9.25919 2.69808 9.32321 2.63846 9.36163L3.96287 10.6891C4.0012 10.625 4.05656 10.5738 4.12469 10.5482Z" fill="white"/>
<path d="M6.67548 13.1049L5.47883 11.9055C5.47031 11.9781 5.45327 12.0506 5.41921 12.1317C5.41921 12.136 5.41495 12.1403 5.41495 12.1445L6.49236 13.2244C6.54347 13.1732 6.60734 13.1305 6.67548 13.1049Z" fill="white"/>
<path d="M10.5639 9.35313C10.5852 9.28911 10.632 9.24642 10.6831 9.22508L9.41834 7.9574C9.40131 8.00862 9.37575 8.05557 9.34169 8.10679C9.32891 8.12386 9.32039 8.13667 9.30762 8.14947L10.5554 9.40008C10.5554 9.38728 10.5596 9.3702 10.5639 9.35313Z" fill="white"/>
<path d="M8.05101 6.58725L6.64568 5.17871C6.62013 5.25127 6.54774 5.29822 6.47534 5.31103L7.89344 6.73237C7.91899 6.66408 7.98287 6.60859 8.05101 6.58725Z" fill="white"/>
<path d="M6.69668 7.89765C6.70945 7.89338 6.71797 7.89338 6.73074 7.89338L5.29987 6.4635C5.28709 6.48911 5.27432 6.51045 5.25302 6.53179C5.23173 6.57875 5.1934 6.60435 5.15082 6.62143L6.55614 8.02996C6.57744 7.96167 6.62428 7.91045 6.69668 7.89765Z" fill="white"/>
<path d="M8.10226 9.27197C8.08522 9.30185 8.05967 9.33173 8.0256 9.35734C8.00431 9.37868 7.9745 9.40002 7.94469 9.40856C7.94469 9.40856 7.94043 9.40856 7.94043 9.41283L9.23929 10.7147C9.28188 10.6677 9.32872 10.625 9.38408 10.5695C9.38834 10.5653 9.38834 10.5653 9.3926 10.561L8.10226 9.27197Z" fill="white"/>
<path d="M8.10197 6.5702V3.8385C8.03383 3.8513 7.96143 3.84703 7.88904 3.83423V6.5702C7.95292 6.53606 8.03383 6.54033 8.10197 6.5702Z" fill="white"/>
<path d="M7.97036 11.8927C8.01721 11.8713 8.05979 11.8671 8.09812 11.8756V9.39146C8.00443 9.42987 7.9363 9.4128 7.88519 9.37012V11.9439C7.915 11.9226 7.94055 11.9055 7.97036 11.8927Z" fill="white"/>
<path d="M6.72225 8.09818C6.68818 8.03416 6.69244 7.94879 6.72651 7.88477H3.79236C3.80513 7.92318 3.81365 7.96586 3.81791 8.01281C3.82217 8.04269 3.81365 8.07257 3.80088 8.10245H6.72225V8.09818Z" fill="white"/>
<path d="M11.8881 8.09818C11.8583 8.02989 11.8668 7.94452 11.9052 7.88477H9.28614C9.31595 7.94879 9.30318 8.03416 9.26059 8.09818H11.8881Z" fill="white"/>
<path d="M2.67707 6.63843H2.67281H2.66855V9.37867C2.73669 9.37013 2.81334 9.38294 2.88148 9.41709V6.72379C2.80908 6.73233 2.73669 6.70672 2.67707 6.63843Z" fill="white"/>
<path d="M13.0974 6.92017V9.41712C13.1571 9.37443 13.2252 9.34029 13.3104 9.31895V6.95858C13.2422 6.97992 13.1571 6.96712 13.0974 6.92017Z" fill="white"/>
<path d="M10.7257 6.66402V4.11584C10.7215 4.11584 10.7215 4.11584 10.7172 4.11584C10.6746 4.13719 10.6235 4.14572 10.5639 4.13292C10.5426 4.12865 10.5256 4.12011 10.5085 4.11584V6.72377C10.5682 6.67255 10.6533 6.64694 10.7257 6.66402Z" fill="white"/>
<path d="M10.7002 10.561C10.632 10.5952 10.5639 10.5909 10.5085 10.5653V12.0208C10.5809 11.961 10.6576 11.9055 10.7215 11.8586V10.5482C10.7172 10.5525 10.7087 10.5568 10.7002 10.561Z" fill="white"/>
<path d="M5.44932 9.34457C5.40248 9.40859 5.33434 9.43847 5.2662 9.44274V11.897C5.33008 11.8543 5.41525 11.8415 5.47913 11.8757V9.30615C5.47062 9.31896 5.4621 9.33176 5.44932 9.34457Z" fill="white"/>
<path d="M5.48295 5.35373V4.09458C5.41055 4.09458 5.33816 4.08604 5.27002 4.06897V5.34092C5.3339 5.31531 5.41055 5.33238 5.48295 5.35373Z" fill="white"/>
<path d="M11.9691 5.31525C11.9734 5.29391 11.9819 5.27684 11.9861 5.25977H10.5638C10.5808 5.33233 10.5936 5.40062 10.6064 5.47318H11.9861C11.9861 5.46891 11.9861 5.46891 11.9861 5.46464C11.9606 5.42623 11.9521 5.37501 11.9691 5.31525Z" fill="white"/>
<path d="M6.73087 5.35794C6.77345 5.32379 6.81604 5.28964 6.86288 5.25977H4.09482C4.15444 5.33233 4.2098 5.40915 4.25664 5.47318H6.65847C6.66699 5.43476 6.68828 5.39635 6.73087 5.35794Z" fill="white"/>
<path d="M9.36298 10.7104H11.9096C11.9096 10.7061 11.9096 10.7061 11.9096 10.7018C11.8883 10.6591 11.8798 10.6079 11.8926 10.5482C11.8968 10.5268 11.9053 10.5097 11.9096 10.4927H9.30762C9.35872 10.5482 9.38001 10.6335 9.36298 10.7104Z" fill="white"/>
<path d="M5.32148 10.6165C5.32148 10.5652 5.33425 10.5226 5.3598 10.4927H4.02261C4.08223 10.5652 4.13759 10.6421 4.18444 10.7061H5.32999C5.32573 10.6805 5.32148 10.6506 5.32148 10.6165Z" fill="white"/>
<defs>
<linearGradient id="paint0_linear" x1="18.64" y1="8" x2="-2.76" y2="8" gradientUnits="userSpaceOnUse">
<stop stop-color="#19A3DD"/>
<stop offset="1" stop-color="#BADEB7"/>
</linearGradient>
</defs>
</svg>
