<?xml version="1.0" encoding="utf-8"?>
<!-- Generator: Adobe Illustrator 23.0.0, SVG Export Plug-In . SVG Version: 6.00 Build 0)  -->
<svg version="1.1" id="Layer_1" xmlns:v="https://vecta.io/nano"
	 xmlns="http://www.w3.org/2000/svg" xmlns:xlink="http://www.w3.org/1999/xlink" x="0px" y="0px" viewBox="0 0 122 116"
	 style="enable-background:new 0 0 122 116;" xml:space="preserve">
<style type="text/css">
	.st0{fill:#F0B90B;}
	.st1{fill:#FFFDFA;}
	.st2{opacity:0.1;fill:none;stroke:#191326;stroke-width:3;enable-background:new    ;}
	.st3{fill:url(#SVGID_1_);}
	.st4{fill:url(#SVGID_2_);}
	.st5{fill:url(#SVGID_3_);}
	.st6{fill:url(#SVGID_4_);}
	.st7{fill:url(#SVGID_5_);}
	.st8{fill:url(#SVGID_6_);}
	.st9{fill:url(#SVGID_7_);}
	.st10{fill:url(#SVGID_8_);}
	.st11{fill:url(#SVGID_9_);}
	.st12{fill:url(#SVGID_10_);}
	.st13{fill:url(#SVGID_11_);}
	.st14{fill:url(#SVGID_12_);}
	.st15{fill:url(#SVGID_13_);}
	.st16{fill:url(#SVGID_14_);}
	.st17{fill:url(#SVGID_15_);}
	.st18{fill:url(#SVGID_16_);}
	.st19{fill:url(#SVGID_17_);}
	.st20{fill:url(#SVGID_18_);}
	.st21{fill:url(#SVGID_19_);}
	.st22{fill:url(#SVGID_20_);}
	.st23{fill:url(#SVGID_21_);}
	.st24{fill:url(#SVGID_22_);}
	.st25{fill:url(#SVGID_23_);}
	.st26{fill:url(#SVGID_24_);}
	.st27{fill:url(#SVGID_25_);}
	.st28{fill:url(#SVGID_26_);}
	.st29{fill:url(#SVGID_27_);}
	.st30{fill:url(#SVGID_28_);}
	.st31{fill:url(#SVGID_29_);}
	.st32{fill:url(#SVGID_30_);}
	.st33{fill:url(#SVGID_31_);}
	.st34{fill:url(#SVGID_32_);}
	.st35{fill:url(#SVGID_33_);}
	.st36{fill:url(#SVGID_34_);}
	.st37{fill:url(#SVGID_35_);}
	.st38{fill:url(#SVGID_36_);}
	.st39{fill:url(#SVGID_37_);}
	.st40{fill:url(#SVGID_38_);}
	.st41{fill:url(#SVGID_39_);}
	.st42{fill:url(#SVGID_40_);}
	.st43{fill:url(#SVGID_41_);}
	.st44{fill:url(#SVGID_42_);}
	.st45{fill:url(#SVGID_43_);}
	.st46{fill:url(#SVGID_44_);}
	.st47{fill:url(#SVGID_45_);}
	.st48{fill:url(#SVGID_46_);}
	.st49{fill:url(#SVGID_47_);}
	.st50{fill:url(#SVGID_48_);}
	.st51{fill:url(#SVGID_49_);}
	.st52{fill:url(#SVGID_50_);}
	.st53{fill:url(#SVGID_51_);}
	.st54{fill:url(#SVGID_52_);}
	.st55{fill:url(#SVGID_53_);}
	.st56{fill:url(#SVGID_54_);}
	.st57{fill:url(#SVGID_55_);}
	.st58{fill:url(#SVGID_56_);}
	.st59{fill:url(#SVGID_57_);}
	.st60{fill:url(#SVGID_58_);}
	.st61{fill:url(#SVGID_59_);}
	.st62{fill:url(#SVGID_60_);}
	.st63{fill:url(#SVGID_61_);}
	.st64{fill:url(#SVGID_62_);}
</style>
<g>
	<circle class="st0" cx="29" cy="29" r="29"/>
	<path class="st1" d="M18.2,29l-4.4,4.5L9.3,29l4.5-4.5L18.2,29z M29,18.2l7.6,7.6l4.5-4.5l-7.6-7.6L29,9.3L16.9,21.4l4.5,4.5
		L29,18.2z M44.3,24.5L39.8,29l4.5,4.5l4.4-4.5L44.3,24.5z M29,39.8l-7.6-7.6l-4.4,4.5L29,48.7l12.1-12.1l-4.5-4.4L29,39.8z
		 M29,33.5l4.5-4.5L29,24.5L24.5,29L29,33.5z"/>
	<circle class="st2" cx="29" cy="29" r="27.5"/>
</g>
<g>
	
		<linearGradient id="SVGID_1_" gradientUnits="userSpaceOnUse" x1="51.8183" y1="172.223" x2="155.3495" y2="75.6541" gradientTransform="matrix(1 0 0 -1 0 172)">
		<stop  offset="0" style="stop-color:#FA9600"/>
		<stop  offset="1" style="stop-color:#FDDB91"/>
	</linearGradient>
	<path class="st3" d="M119.1,65.4c1.6,0,2.9-1.3,2.9-2.9s-1.3-2.9-2.9-2.9c-1.6,0-2.9,1.3-2.9,2.9S117.5,65.4,119.1,65.4z"/>
	
		<linearGradient id="SVGID_2_" gradientUnits="userSpaceOnUse" x1="52.1866" y1="172.6178" x2="155.7177" y2="76.049" gradientTransform="matrix(1 0 0 -1 0 172)">
		<stop  offset="0" style="stop-color:#FA9600"/>
		<stop  offset="1" style="stop-color:#FDDB91"/>
	</linearGradient>
	<path class="st4" d="M109,55.2c1.6,0,2.9-1.3,2.9-2.9s-1.3-2.9-2.9-2.9c-1.6,0-2.9,1.3-2.9,2.9S107.4,55.2,109,55.2z"/>
	
		<linearGradient id="SVGID_3_" gradientUnits="userSpaceOnUse" x1="52.6726" y1="173.1389" x2="156.2038" y2="76.57" gradientTransform="matrix(1 0 0 -1 0 172)">
		<stop  offset="0" style="stop-color:#FA9600"/>
		<stop  offset="1" style="stop-color:#FDDB91"/>
	</linearGradient>
	<path class="st5" d="M98.8,44.8c1.6,0,2.9-1.3,2.9-2.9s-1.3-2.9-2.9-2.9c-1.6,0-2.9,1.3-2.9,2.9S97.2,44.8,98.8,44.8z"/>
	
		<linearGradient id="SVGID_4_" gradientUnits="userSpaceOnUse" x1="52.9412" y1="173.4268" x2="156.4724" y2="76.858" gradientTransform="matrix(1 0 0 -1 0 172)">
		<stop  offset="0" style="stop-color:#FA9600"/>
		<stop  offset="1" style="stop-color:#FDDB91"/>
	</linearGradient>
	<path class="st6" d="M88.7,34.8c1.6,0,2.9-1.3,2.9-2.9c0-1.6-1.3-2.9-2.9-2.9s-2.9,1.3-2.9,2.9C85.8,33.5,87.1,34.8,88.7,34.8z"/>
	
		<linearGradient id="SVGID_5_" gradientUnits="userSpaceOnUse" x1="43.4763" y1="163.2795" x2="147.0075" y2="66.7107" gradientTransform="matrix(1 0 0 -1 0 172)">
		<stop  offset="0" style="stop-color:#FA9600"/>
		<stop  offset="1" style="stop-color:#FDDB91"/>
	</linearGradient>
	<path class="st7" d="M68.3,34.8c1.6,0,2.9-1.3,2.9-2.9c0-1.6-1.3-2.9-2.9-2.9c-1.6,0-2.9,1.3-2.9,2.9
		C65.4,33.5,66.7,34.8,68.3,34.8z"/>
	
		<linearGradient id="SVGID_6_" gradientUnits="userSpaceOnUse" x1="42.165" y1="161.8736" x2="145.6961" y2="65.3048" gradientTransform="matrix(1 0 0 -1 0 172)">
		<stop  offset="0" style="stop-color:#FA9600"/>
		<stop  offset="1" style="stop-color:#FDDB91"/>
	</linearGradient>
	<path class="st8" d="M109,75.3c1.6,0,2.9-1.3,2.9-2.9c0-1.6-1.3-2.9-2.9-2.9c-1.6,0-2.9,1.3-2.9,2.9C106.1,74,107.4,75.3,109,75.3z
		"/>
	
		<linearGradient id="SVGID_7_" gradientUnits="userSpaceOnUse" x1="42.3692" y1="162.0926" x2="145.9004" y2="65.5238" gradientTransform="matrix(1 0 0 -1 0 172)">
		<stop  offset="0" style="stop-color:#FA9600"/>
		<stop  offset="1" style="stop-color:#FDDB91"/>
	</linearGradient>
	<path class="st9" d="M98.8,65.4c1.6,0,2.9-1.3,2.9-2.9s-1.3-2.9-2.9-2.9c-1.6,0-2.9,1.3-2.9,2.9S97.2,65.4,98.8,65.4z"/>
	
		<linearGradient id="SVGID_8_" gradientUnits="userSpaceOnUse" x1="42.7373" y1="162.4873" x2="146.2685" y2="65.9184" gradientTransform="matrix(1 0 0 -1 0 172)">
		<stop  offset="0" style="stop-color:#FA9600"/>
		<stop  offset="1" style="stop-color:#FDDB91"/>
	</linearGradient>
	<path class="st10" d="M88.7,55.2c1.6,0,2.9-1.3,2.9-2.9s-1.3-2.9-2.9-2.9s-2.9,1.3-2.9,2.9S87.1,55.2,88.7,55.2z"/>
	
		<linearGradient id="SVGID_9_" gradientUnits="userSpaceOnUse" x1="43.2234" y1="163.0084" x2="146.7545" y2="66.4396" gradientTransform="matrix(1 0 0 -1 0 172)">
		<stop  offset="0" style="stop-color:#FA9600"/>
		<stop  offset="1" style="stop-color:#FDDB91"/>
	</linearGradient>
	<path class="st11" d="M78.5,44.8c1.6,0,2.9-1.3,2.9-2.9S80.1,39,78.5,39c-1.6,0-2.9,1.3-2.9,2.9S76.9,44.8,78.5,44.8z"/>
	
		<linearGradient id="SVGID_10_" gradientUnits="userSpaceOnUse" x1="33.7882" y1="152.8929" x2="137.3193" y2="56.3241" gradientTransform="matrix(1 0 0 -1 0 172)">
		<stop  offset="0" style="stop-color:#FA9600"/>
		<stop  offset="1" style="stop-color:#FDDB91"/>
	</linearGradient>
	<path class="st12" d="M58.2,44.8c1.6,0,2.9-1.3,2.9-2.9S59.8,39,58.2,39c-1.6,0-2.9,1.3-2.9,2.9S56.6,44.8,58.2,44.8z"/>
	
		<linearGradient id="SVGID_11_" gradientUnits="userSpaceOnUse" x1="32.4966" y1="151.5082" x2="136.0277" y2="54.9393" gradientTransform="matrix(1 0 0 -1 0 172)">
		<stop  offset="0" style="stop-color:#FA9600"/>
		<stop  offset="1" style="stop-color:#FDDB91"/>
	</linearGradient>
	<path class="st13" d="M98.8,85.2c1.6,0,2.9-1.3,2.9-2.9s-1.3-2.9-2.9-2.9c-1.6,0-2.9,1.3-2.9,2.9S97.2,85.2,98.8,85.2z"/>
	
		<linearGradient id="SVGID_12_" gradientUnits="userSpaceOnUse" x1="32.7157" y1="151.7431" x2="136.2469" y2="55.1743" gradientTransform="matrix(1 0 0 -1 0 172)">
		<stop  offset="0" style="stop-color:#FA9600"/>
		<stop  offset="1" style="stop-color:#FDDB91"/>
	</linearGradient>
	<path class="st14" d="M88.7,75.3c1.6,0,2.9-1.3,2.9-2.9c0-1.6-1.3-2.9-2.9-2.9s-2.9,1.3-2.9,2.9C85.8,74,87.1,75.3,88.7,75.3z"/>
	
		<linearGradient id="SVGID_13_" gradientUnits="userSpaceOnUse" x1="32.92" y1="151.9621" x2="136.4511" y2="55.3933" gradientTransform="matrix(1 0 0 -1 0 172)">
		<stop  offset="0" style="stop-color:#FA9600"/>
		<stop  offset="1" style="stop-color:#FDDB91"/>
	</linearGradient>
	<path class="st15" d="M78.5,65.4c1.6,0,2.9-1.3,2.9-2.9s-1.3-2.9-2.9-2.9c-1.6,0-2.9,1.3-2.9,2.9S76.9,65.4,78.5,65.4z"/>
	
		<linearGradient id="SVGID_14_" gradientUnits="userSpaceOnUse" x1="33.2724" y1="152.34" x2="136.8036" y2="55.7712" gradientTransform="matrix(1 0 0 -1 0 172)">
		<stop  offset="0" style="stop-color:#FA9600"/>
		<stop  offset="1" style="stop-color:#FDDB91"/>
	</linearGradient>
	<path class="st16" d="M68.3,55.2c1.6,0,2.9-1.3,2.9-2.9s-1.3-2.9-2.9-2.9c-1.6,0-2.9,1.3-2.9,2.9S66.7,55.2,68.3,55.2z"/>
	
		<linearGradient id="SVGID_15_" gradientUnits="userSpaceOnUse" x1="23.8529" y1="142.2413" x2="127.384" y2="45.6725" gradientTransform="matrix(1 0 0 -1 0 172)">
		<stop  offset="0" style="stop-color:#FA9600"/>
		<stop  offset="1" style="stop-color:#FDDB91"/>
	</linearGradient>
	<path class="st17" d="M48.1,55.2c1.6,0,2.9-1.3,2.9-2.9s-1.3-2.9-2.9-2.9c-1.6,0-2.9,1.3-2.9,2.9S46.5,55.2,48.1,55.2z"/>
	
		<linearGradient id="SVGID_16_" gradientUnits="userSpaceOnUse" x1="22.6772" y1="140.9809" x2="126.2083" y2="44.412" gradientTransform="matrix(1 0 0 -1 0 172)">
		<stop  offset="0" style="stop-color:#FA9600"/>
		<stop  offset="1" style="stop-color:#FDDB91"/>
	</linearGradient>
	<path class="st18" d="M88.7,95.4c1.6,0,2.9-1.3,2.9-2.9c0-1.6-1.3-2.9-2.9-2.9s-2.9,1.3-2.9,2.9C85.8,94.2,87.1,95.4,88.7,95.4z"/>
	
		<linearGradient id="SVGID_17_" gradientUnits="userSpaceOnUse" x1="23.0473" y1="141.3777" x2="126.5785" y2="44.8089" gradientTransform="matrix(1 0 0 -1 0 172)">
		<stop  offset="0" style="stop-color:#FA9600"/>
		<stop  offset="1" style="stop-color:#FDDB91"/>
	</linearGradient>
	<path class="st19" d="M78.5,85.2c1.6,0,2.9-1.3,2.9-2.9s-1.3-2.9-2.9-2.9c-1.6,0-2.9,1.3-2.9,2.9S76.9,85.2,78.5,85.2z"/>
	
		<linearGradient id="SVGID_18_" gradientUnits="userSpaceOnUse" x1="23.2508" y1="141.5958" x2="126.782" y2="45.027" gradientTransform="matrix(1 0 0 -1 0 172)">
		<stop  offset="0" style="stop-color:#FA9600"/>
		<stop  offset="1" style="stop-color:#FDDB91"/>
	</linearGradient>
	<path class="st20" d="M68.3,75.3c1.6,0,2.9-1.3,2.9-2.9c0-1.6-1.3-2.9-2.9-2.9c-1.6,0-2.9,1.3-2.9,2.9C65.4,74,66.7,75.3,68.3,75.3
		z"/>
	
		<linearGradient id="SVGID_19_" gradientUnits="userSpaceOnUse" x1="23.4847" y1="141.8466" x2="127.0159" y2="45.2778" gradientTransform="matrix(1 0 0 -1 0 172)">
		<stop  offset="0" style="stop-color:#FA9600"/>
		<stop  offset="1" style="stop-color:#FDDB91"/>
	</linearGradient>
	<path class="st21" d="M58.2,65.4c1.6,0,2.9-1.3,2.9-2.9s-1.3-2.9-2.9-2.9c-1.6,0-2.9,1.3-2.9,2.9S56.6,65.4,58.2,65.4z"/>
	
		<linearGradient id="SVGID_20_" gradientUnits="userSpaceOnUse" x1="14.0197" y1="131.6992" x2="117.5509" y2="35.1304" gradientTransform="matrix(1 0 0 -1 0 172)">
		<stop  offset="0" style="stop-color:#FA9600"/>
		<stop  offset="1" style="stop-color:#FDDB91"/>
	</linearGradient>
	<path class="st22" d="M37.9,65.4c1.6,0,2.9-1.3,2.9-2.9s-1.3-2.9-2.9-2.9c-1.6,0-2.9,1.3-2.9,2.9S36.3,65.4,37.9,65.4z"/>
	
		<linearGradient id="SVGID_21_" gradientUnits="userSpaceOnUse" x1="12.8597" y1="130.4556" x2="116.3909" y2="33.8868" gradientTransform="matrix(1 0 0 -1 0 172)">
		<stop  offset="0" style="stop-color:#FA9600"/>
		<stop  offset="1" style="stop-color:#FDDB91"/>
	</linearGradient>
	<path class="st23" d="M78.5,105.7c1.6,0,2.9-1.3,2.9-2.9c0-1.6-1.3-2.9-2.9-2.9c-1.6,0-2.9,1.3-2.9,2.9
		C75.6,104.4,76.9,105.7,78.5,105.7z"/>
	
		<linearGradient id="SVGID_22_" gradientUnits="userSpaceOnUse" x1="13.2123" y1="130.8336" x2="116.7434" y2="34.2647" gradientTransform="matrix(1 0 0 -1 0 172)">
		<stop  offset="0" style="stop-color:#FA9600"/>
		<stop  offset="1" style="stop-color:#FDDB91"/>
	</linearGradient>
	<path class="st24" d="M68.3,95.4c1.6,0,2.9-1.3,2.9-2.9c0-1.6-1.3-2.9-2.9-2.9c-1.6,0-2.9,1.3-2.9,2.9
		C65.4,94.2,66.7,95.4,68.3,95.4z"/>
	
		<linearGradient id="SVGID_23_" gradientUnits="userSpaceOnUse" x1="13.6121" y1="131.2622" x2="117.1432" y2="34.6934" gradientTransform="matrix(1 0 0 -1 0 172)">
		<stop  offset="0" style="stop-color:#FA9600"/>
		<stop  offset="1" style="stop-color:#FDDB91"/>
	</linearGradient>
	<path class="st25" d="M58.2,85.2c1.6,0,2.9-1.3,2.9-2.9s-1.3-2.9-2.9-2.9c-1.6,0-2.9,1.3-2.9,2.9S56.6,85.2,58.2,85.2z"/>
	
		<linearGradient id="SVGID_24_" gradientUnits="userSpaceOnUse" x1="13.8312" y1="131.4971" x2="117.3624" y2="34.9283" gradientTransform="matrix(1 0 0 -1 0 172)">
		<stop  offset="0" style="stop-color:#FA9600"/>
		<stop  offset="1" style="stop-color:#FDDB91"/>
	</linearGradient>
	<path class="st26" d="M48.1,75.3c1.6,0,2.9-1.3,2.9-2.9c0-1.6-1.3-2.9-2.9-2.9c-1.6,0-2.9,1.3-2.9,2.9C45.2,74,46.5,75.3,48.1,75.3
		z"/>
	
		<linearGradient id="SVGID_25_" gradientUnits="userSpaceOnUse" x1="41.9457" y1="161.6385" x2="145.4768" y2="65.0697" gradientTransform="matrix(1 0 0 -1 0 172)">
		<stop  offset="0" style="stop-color:#FA9600"/>
		<stop  offset="1" style="stop-color:#FDDB91"/>
	</linearGradient>
	<path class="st27" d="M119.1,85.2c1.6,0,2.9-1.3,2.9-2.9s-1.3-2.9-2.9-2.9c-1.6,0-2.9,1.3-2.9,2.9S117.5,85.2,119.1,85.2z"/>
	
		<linearGradient id="SVGID_26_" gradientUnits="userSpaceOnUse" x1="32.1264" y1="151.1114" x2="135.6576" y2="54.5425" gradientTransform="matrix(1 0 0 -1 0 172)">
		<stop  offset="0" style="stop-color:#FA9600"/>
		<stop  offset="1" style="stop-color:#FDDB91"/>
	</linearGradient>
	<path class="st28" d="M109,95.4c1.6,0,2.9-1.3,2.9-2.9c0-1.6-1.3-2.9-2.9-2.9c-1.6,0-2.9,1.3-2.9,2.9
		C106.1,94.2,107.4,95.4,109,95.4z"/>
	
		<linearGradient id="SVGID_27_" gradientUnits="userSpaceOnUse" x1="22.309" y1="140.5861" x2="125.8401" y2="44.0173" gradientTransform="matrix(1 0 0 -1 0 172)">
		<stop  offset="0" style="stop-color:#FA9600"/>
		<stop  offset="1" style="stop-color:#FDDB91"/>
	</linearGradient>
	<path class="st29" d="M98.8,105.7c1.6,0,2.9-1.3,2.9-2.9c0-1.6-1.3-2.9-2.9-2.9c-1.6,0-2.9,1.3-2.9,2.9
		C95.9,104.4,97.2,105.7,98.8,105.7z"/>
	
		<linearGradient id="SVGID_28_" gradientUnits="userSpaceOnUse" x1="12.4246" y1="129.9891" x2="115.9557" y2="33.4202" gradientTransform="matrix(1 0 0 -1 0 172)">
		<stop  offset="0" style="stop-color:#FA9600"/>
		<stop  offset="1" style="stop-color:#FDDB91"/>
	</linearGradient>
	<path class="st30" d="M88.7,116c1.6,0,2.9-1.3,2.9-2.9c0-1.6-1.3-2.9-2.9-2.9s-2.9,1.3-2.9,2.9C85.8,114.7,87.1,116,88.7,116z"/>
	
		<linearGradient id="SVGID_29_" gradientUnits="userSpaceOnUse" x1="2.9597" y1="119.8418" x2="106.4908" y2="23.2729" gradientTransform="matrix(1 0 0 -1 0 172)">
		<stop  offset="0" style="stop-color:#FA9600"/>
		<stop  offset="1" style="stop-color:#FDDB91"/>
	</linearGradient>
	<path class="st31" d="M68.3,116c1.6,0,2.9-1.3,2.9-2.9c0-1.6-1.3-2.9-2.9-2.9c-1.6,0-2.9,1.3-2.9,2.9C65.4,114.7,66.7,116,68.3,116
		z"/>
	
		<linearGradient id="SVGID_30_" gradientUnits="userSpaceOnUse" x1="3.4245" y1="120.3401" x2="106.9557" y2="23.7713" gradientTransform="matrix(1 0 0 -1 0 172)">
		<stop  offset="0" style="stop-color:#FA9600"/>
		<stop  offset="1" style="stop-color:#FDDB91"/>
	</linearGradient>
	<path class="st32" d="M58.2,105.7c1.6,0,2.9-1.3,2.9-2.9c0-1.6-1.3-2.9-2.9-2.9c-1.6,0-2.9,1.3-2.9,2.9
		C55.3,104.4,56.6,105.7,58.2,105.7z"/>
	
		<linearGradient id="SVGID_31_" gradientUnits="userSpaceOnUse" x1="3.7927" y1="120.7349" x2="107.3239" y2="24.166" gradientTransform="matrix(1 0 0 -1 0 172)">
		<stop  offset="0" style="stop-color:#FA9600"/>
		<stop  offset="1" style="stop-color:#FDDB91"/>
	</linearGradient>
	<path class="st33" d="M48.1,95.4c1.6,0,2.9-1.3,2.9-2.9c0-1.6-1.3-2.9-2.9-2.9c-1.6,0-2.9,1.3-2.9,2.9
		C45.2,94.2,46.5,95.4,48.1,95.4z"/>
	
		<linearGradient id="SVGID_32_" gradientUnits="userSpaceOnUse" x1="4.1471" y1="121.1148" x2="107.6782" y2="24.546" gradientTransform="matrix(1 0 0 -1 0 172)">
		<stop  offset="0" style="stop-color:#FA9600"/>
		<stop  offset="1" style="stop-color:#FDDB91"/>
	</linearGradient>
	<path class="st34" d="M37.9,85.2c1.6,0,2.9-1.3,2.9-2.9s-1.3-2.9-2.9-2.9c-1.6,0-2.9,1.3-2.9,2.9S36.3,85.2,37.9,85.2z"/>
	
		<linearGradient id="SVGID_33_" gradientUnits="userSpaceOnUse" x1="48.2523" y1="168.3999" x2="151.7835" y2="71.831" gradientTransform="matrix(1 0 0 -1 0 172)">
		<stop  offset="0" style="stop-color:#FA9600"/>
		<stop  offset="1" style="stop-color:#FDDB91"/>
	</linearGradient>
	<path class="st35" d="M87.3,30.9H69.6v1.7h17.7V30.9z"/>
	
		<linearGradient id="SVGID_34_" gradientUnits="userSpaceOnUse" x1="19.239" y1="137.2947" x2="122.7701" y2="40.7259" gradientTransform="matrix(1 0 0 -1 0 172)">
		<stop  offset="0" style="stop-color:#FA9600"/>
		<stop  offset="1" style="stop-color:#FDDB91"/>
	</linearGradient>
	<path class="st36" d="M47.8,51.6c-0.1-0.1-0.2-0.1-0.3-0.2L37.4,61.4c0.6,0.1,1.1,0.6,1.3,1.1l9.8-9.8C48.1,52.4,47.8,52,47.8,51.6
		z"/>
	
		<linearGradient id="SVGID_35_" gradientUnits="userSpaceOnUse" x1="39.3074" y1="158.8101" x2="142.8386" y2="62.2412" gradientTransform="matrix(1 0 0 -1 0 172)">
		<stop  offset="0" style="stop-color:#FA9600"/>
		<stop  offset="1" style="stop-color:#FDDB91"/>
	</linearGradient>
	<path class="st37" d="M59.6,41.5l9.9-9.9c-0.3-0.2-0.6-0.4-1-0.6c-0.3,0.1-0.7,0.2-1.1,0.2l-9.3,9.4C58.9,40.6,59.3,41,59.6,41.5z"
		/>
	
		<linearGradient id="SVGID_36_" gradientUnits="userSpaceOnUse" x1="7.7075" y1="124.932" x2="111.2387" y2="28.3631" gradientTransform="matrix(1 0 0 -1 0 172)">
		<stop  offset="0" style="stop-color:#FA9600"/>
		<stop  offset="1" style="stop-color:#FDDB91"/>
	</linearGradient>
	<path class="st38" d="M70.1,112.8h17.8v1.7H70.1V112.8z"/>
	
		<linearGradient id="SVGID_37_" gradientUnits="userSpaceOnUse" x1="36.8917" y1="156.2202" x2="140.4229" y2="59.6514" gradientTransform="matrix(1 0 0 -1 0 172)">
		<stop  offset="0" style="stop-color:#FA9600"/>
		<stop  offset="1" style="stop-color:#FDDB91"/>
	</linearGradient>
	<path class="st39" d="M118.4,82l-10,10c0.6,0.2,1,0.7,1.2,1.2l9.8-9.8C118.9,82.9,118.6,82.5,118.4,82z"/>
	
		<linearGradient id="SVGID_38_" gradientUnits="userSpaceOnUse" x1="16.732" y1="134.6071" x2="120.2632" y2="38.0382" gradientTransform="matrix(1 0 0 -1 0 172)">
		<stop  offset="0" style="stop-color:#FA9600"/>
		<stop  offset="1" style="stop-color:#FDDB91"/>
	</linearGradient>
	<path class="st40" d="M97.8,102.8l-10.6,10.6c0.6,0.1,1.1,0.5,1.2,1.2L99,103.8C98.5,103.7,98,103.3,97.8,102.8z"/>
	
		<linearGradient id="SVGID_39_" gradientUnits="userSpaceOnUse" x1="27.9728" y1="146.6583" x2="131.504" y2="50.0894" gradientTransform="matrix(1 0 0 -1 0 172)">
		<stop  offset="0" style="stop-color:#FA9600"/>
		<stop  offset="1" style="stop-color:#FDDB91"/>
	</linearGradient>
	<path class="st41" d="M88.5,51.9L57.6,82.8c0.6,0.2,1,0.6,1.2,1.2l30.9-31C89.2,52.9,88.7,52.5,88.5,51.9z"/>
	
		<linearGradient id="SVGID_40_" gradientUnits="userSpaceOnUse" x1="27.6899" y1="146.355" x2="131.2211" y2="49.7862" gradientTransform="matrix(1 0 0 -1 0 172)">
		<stop  offset="0" style="stop-color:#FA9600"/>
		<stop  offset="1" style="stop-color:#FDDB91"/>
	</linearGradient>
	<path class="st42" d="M98.7,61.3L67.1,93c0.1,0,0.2,0,0.3,0.1h1.2c0.2,0,0.5,0,0.6,0.1l29.6-29.7C98.5,62.8,98.5,62.1,98.7,61.3z"
		/>
	
		<linearGradient id="SVGID_41_" gradientUnits="userSpaceOnUse" x1="51.9653" y1="172.3806" x2="155.4965" y2="75.8117" gradientTransform="matrix(1 0 0 -1 0 172)">
		<stop  offset="0" style="stop-color:#FA9600"/>
		<stop  offset="1" style="stop-color:#FDDB91"/>
	</linearGradient>
	<path class="st43" d="M118.9,62.7c-0.1-0.5-0.1-1,0-1.6l-8.7-8.7c-0.3,0.7-0.8,1-1.4,1l9.9,9.9C118.7,63.1,118.8,62.9,118.9,62.7z"
		/>
	
		<linearGradient id="SVGID_42_" gradientUnits="userSpaceOnUse" x1="52.7331" y1="173.2037" x2="156.2642" y2="76.6348" gradientTransform="matrix(1 0 0 -1 0 172)">
		<stop  offset="0" style="stop-color:#FA9600"/>
		<stop  offset="1" style="stop-color:#FDDB91"/>
	</linearGradient>
	<path class="st44" d="M98.8,41L88.1,30.2c-0.4,0.4-0.9,0.7-1.3,1L98,42.5C98,41.9,98.3,41.3,98.8,41z"/>
	
		<linearGradient id="SVGID_43_" gradientUnits="userSpaceOnUse" x1="3.7009" y1="120.6365" x2="107.2321" y2="24.0676" gradientTransform="matrix(1 0 0 -1 0 172)">
		<stop  offset="0" style="stop-color:#FA9600"/>
		<stop  offset="1" style="stop-color:#FDDB91"/>
	</linearGradient>
	<path class="st45" d="M48.4,92.3L37.7,81.6c0,0.1,0,0.1-0.1,0.2c0.1,0.6-0.3,1.1-0.8,1.4l10.3,10.3C47.4,92.9,47.9,92.5,48.4,92.3z
		"/>
	
		<linearGradient id="SVGID_44_" gradientUnits="userSpaceOnUse" x1="2.991" y1="119.8754" x2="106.5222" y2="23.3066" gradientTransform="matrix(1 0 0 -1 0 172)">
		<stop  offset="0" style="stop-color:#FA9600"/>
		<stop  offset="1" style="stop-color:#FDDB91"/>
	</linearGradient>
	<path class="st46" d="M68.2,112.2l-9.3-9.3c-0.1,0.6-0.2,1.1-0.5,1.8c0,0,0,0.1,0,0.1l8.4,8.4C67.2,112.7,67.7,112.4,68.2,112.2z"
		/>
	
		<linearGradient id="SVGID_45_" gradientUnits="userSpaceOnUse" x1="32.5094" y1="151.5219" x2="136.0405" y2="54.9531" gradientTransform="matrix(1 0 0 -1 0 172)">
		<stop  offset="0" style="stop-color:#FA9600"/>
		<stop  offset="1" style="stop-color:#FDDB91"/>
	</linearGradient>
	<path class="st47" d="M98.4,83c0.2-0.5,0.5-0.8,0.9-1l-9.8-9.8c-0.1,0.4-0.3,0.8-0.6,1.2c-0.1,0.1-0.2,0.2-0.3,0.3l9.7,9.7
		C98.4,83.3,98.4,83.1,98.4,83z"/>
	
		<linearGradient id="SVGID_46_" gradientUnits="userSpaceOnUse" x1="33.2401" y1="152.3054" x2="136.7713" y2="55.7365" gradientTransform="matrix(1 0 0 -1 0 172)">
		<stop  offset="0" style="stop-color:#FA9600"/>
		<stop  offset="1" style="stop-color:#FDDB91"/>
	</linearGradient>
	<path class="st48" d="M78.9,61.5L68,50.6c-0.2,0.6-0.8,0.9-1.3,1l11,11C77.9,62.1,78.4,61.7,78.9,61.5z"/>
	
		<linearGradient id="SVGID_47_" gradientUnits="userSpaceOnUse" x1="23.3898" y1="141.7448" x2="126.9209" y2="45.176" gradientTransform="matrix(1 0 0 -1 0 172)">
		<stop  offset="0" style="stop-color:#FA9600"/>
		<stop  offset="1" style="stop-color:#FDDB91"/>
	</linearGradient>
	<path class="st49" d="M68.4,71.7c0.1,0,0.2,0,0.3,0L57.5,60.6c-0.1,0.2-0.2,0.4-0.4,0.5c-0.2,0.4-0.5,0.6-0.8,0.7l10.9,10.9
		C67.5,72.2,67.8,71.8,68.4,71.7z"/>
	
		<linearGradient id="SVGID_48_" gradientUnits="userSpaceOnUse" x1="22.6599" y1="140.9623" x2="126.191" y2="44.3935" gradientTransform="matrix(1 0 0 -1 0 172)">
		<stop  offset="0" style="stop-color:#FA9600"/>
		<stop  offset="1" style="stop-color:#FDDB91"/>
	</linearGradient>
	<path class="st50" d="M79.3,82.4c-0.1,0.2-0.3,0.5-0.6,0.7c-0.2,0.2-0.4,0.3-0.6,0.4c0,0,0,0,0,0l10.1,10.1
		c0.3-0.4,0.7-0.7,1.1-1.1c0,0,0,0,0.1-0.1L79.3,82.4z"/>
	
		<linearGradient id="SVGID_49_" gradientUnits="userSpaceOnUse" x1="38.7745" y1="158.2387" x2="142.3056" y2="61.6699" gradientTransform="matrix(1 0 0 -1 0 172)">
		<stop  offset="0" style="stop-color:#FA9600"/>
		<stop  offset="1" style="stop-color:#FDDB91"/>
	</linearGradient>
	<path class="st51" d="M79.3,61.4V40.2c-0.5,0.1-1.1,0.1-1.7,0v21.3C78.1,61.1,78.8,61.2,79.3,61.4z"/>
	
		<linearGradient id="SVGID_50_" gradientUnits="userSpaceOnUse" x1="17.5924" y1="135.5295" x2="121.1236" y2="38.9607" gradientTransform="matrix(1 0 0 -1 0 172)">
		<stop  offset="0" style="stop-color:#FA9600"/>
		<stop  offset="1" style="stop-color:#FDDB91"/>
	</linearGradient>
	<path class="st52" d="M78.3,102.7c0.4-0.2,0.7-0.2,1-0.1V83.3c-0.7,0.3-1.3,0.2-1.7-0.2v20C77.8,103,78,102.8,78.3,102.7z"/>
	
		<linearGradient id="SVGID_51_" gradientUnits="userSpaceOnUse" x1="18.0949" y1="136.0683" x2="121.6261" y2="39.4994" gradientTransform="matrix(1 0 0 -1 0 172)">
		<stop  offset="0" style="stop-color:#FA9600"/>
		<stop  offset="1" style="stop-color:#FDDB91"/>
	</linearGradient>
	<path class="st53" d="M68.6,73.3c-0.3-0.5-0.2-1.2,0-1.7H45.8c0.1,0.3,0.2,0.6,0.2,1c0,0.2,0,0.5-0.1,0.7L68.6,73.3L68.6,73.3z"/>
	
		<linearGradient id="SVGID_52_" gradientUnits="userSpaceOnUse" x1="37.3266" y1="156.6864" x2="140.8577" y2="60.1176" gradientTransform="matrix(1 0 0 -1 0 172)">
		<stop  offset="0" style="stop-color:#FA9600"/>
		<stop  offset="1" style="stop-color:#FDDB91"/>
	</linearGradient>
	<path class="st54" d="M108.7,73.3c-0.2-0.5-0.2-1.2,0.1-1.7H88.5c0.2,0.5,0.1,1.2-0.2,1.7H108.7z"/>
	
		<linearGradient id="SVGID_53_" gradientUnits="userSpaceOnUse" x1="8.8775" y1="126.1863" x2="112.4087" y2="29.6175" gradientTransform="matrix(1 0 0 -1 0 172)">
		<stop  offset="0" style="stop-color:#FA9600"/>
		<stop  offset="1" style="stop-color:#FDDB91"/>
	</linearGradient>
	<path class="st55" d="M37.2,61.9L37.2,61.9l-0.1,21.3c0.5-0.1,1.1,0,1.7,0.3V62.6C38.2,62.7,37.6,62.5,37.2,61.9z"/>
	
		<linearGradient id="SVGID_54_" gradientUnits="userSpaceOnUse" x1="46.0377" y1="166.0256" x2="149.5688" y2="69.4567" gradientTransform="matrix(1 0 0 -1 0 172)">
		<stop  offset="0" style="stop-color:#FA9600"/>
		<stop  offset="1" style="stop-color:#FDDB91"/>
	</linearGradient>
	<path class="st56" d="M118.1,64.1v19.4c0.5-0.3,1-0.6,1.7-0.8V64.4C119.2,64.6,118.6,64.5,118.1,64.1z"/>
	
		<linearGradient id="SVGID_55_" gradientUnits="userSpaceOnUse" x1="47.4134" y1="167.5005" x2="150.9446" y2="70.9317" gradientTransform="matrix(1 0 0 -1 0 172)">
		<stop  offset="0" style="stop-color:#FA9600"/>
		<stop  offset="1" style="stop-color:#FDDB91"/>
	</linearGradient>
	<path class="st57" d="M99.7,62.1V42.3c0,0,0,0-0.1,0c-0.3,0.2-0.7,0.2-1.2,0.1c-0.2,0-0.3-0.1-0.4-0.1v20.3
		C98.4,62.2,99.1,62,99.7,62.1z"/>
	
		<linearGradient id="SVGID_56_" gradientUnits="userSpaceOnUse" x1="24.6828" y1="143.1311" x2="128.214" y2="46.5623" gradientTransform="matrix(1 0 0 -1 0 172)">
		<stop  offset="0" style="stop-color:#FA9600"/>
		<stop  offset="1" style="stop-color:#FDDB91"/>
	</linearGradient>
	<path class="st58" d="M99.5,92.4c-0.5,0.3-1.1,0.2-1.5,0v11.3c0.6-0.5,1.2-0.9,1.7-1.3V92.3C99.6,92.3,99.5,92.4,99.5,92.4z"/>
	
		<linearGradient id="SVGID_57_" gradientUnits="userSpaceOnUse" x1="8.3836" y1="125.6567" x2="111.9147" y2="29.0879" gradientTransform="matrix(1 0 0 -1 0 172)">
		<stop  offset="0" style="stop-color:#FA9600"/>
		<stop  offset="1" style="stop-color:#FDDB91"/>
	</linearGradient>
	<path class="st59" d="M58.7,82.9c-0.4,0.5-0.9,0.7-1.4,0.8v19.1c0.5-0.3,1.2-0.4,1.7-0.2v-20C58.9,82.7,58.8,82.8,58.7,82.9z"/>
	
		<linearGradient id="SVGID_58_" gradientUnits="userSpaceOnUse" x1="31.1948" y1="150.1125" x2="134.7259" y2="53.5437" gradientTransform="matrix(1 0 0 -1 0 172)">
		<stop  offset="0" style="stop-color:#FA9600"/>
		<stop  offset="1" style="stop-color:#FDDB91"/>
	</linearGradient>
	<path class="st60" d="M58.9,51.9v-9.8c-0.6,0-1.1-0.1-1.7-0.2v9.9C57.8,51.6,58.4,51.8,58.9,51.9z"/>
	
		<linearGradient id="SVGID_59_" gradientUnits="userSpaceOnUse" x1="50.0755" y1="170.3545" x2="153.6066" y2="73.7856" gradientTransform="matrix(1 0 0 -1 0 172)">
		<stop  offset="0" style="stop-color:#FA9600"/>
		<stop  offset="1" style="stop-color:#FDDB91"/>
	</linearGradient>
	<path class="st61" d="M109.3,51.6c0-0.2,0.1-0.3,0.1-0.4h-11c0.1,0.6,0.2,1.1,0.3,1.7h10.7c0,0,0,0,0-0.1
		C109.3,52.5,109.2,52.1,109.3,51.6z"/>
	
		<linearGradient id="SVGID_60_" gradientUnits="userSpaceOnUse" x1="29.3437" y1="148.128" x2="132.8749" y2="51.5592" gradientTransform="matrix(1 0 0 -1 0 172)">
		<stop  offset="0" style="stop-color:#FA9600"/>
		<stop  offset="1" style="stop-color:#FDDB91"/>
	</linearGradient>
	<path class="st62" d="M68.6,52c0.3-0.3,0.7-0.5,1-0.8H48.2c0.5,0.6,0.9,1.2,1.3,1.7h18.7C68.1,52.6,68.3,52.3,68.6,52z"/>
	
		<linearGradient id="SVGID_61_" gradientUnits="userSpaceOnUse" x1="27.4055" y1="146.0501" x2="130.9367" y2="49.4813" gradientTransform="matrix(1 0 0 -1 0 172)">
		<stop  offset="0" style="stop-color:#FA9600"/>
		<stop  offset="1" style="stop-color:#FDDB91"/>
	</linearGradient>
	<path class="st63" d="M89.1,93.6h19.8c0,0,0,0,0-0.1c-0.2-0.3-0.2-0.7-0.1-1.2c0-0.2,0.1-0.3,0.1-0.4H88.7
		C89.1,92.3,89.2,93,89.1,93.6z"/>
	
		<linearGradient id="SVGID_62_" gradientUnits="userSpaceOnUse" x1="6.2208" y1="123.3381" x2="109.752" y2="26.7692" gradientTransform="matrix(1 0 0 -1 0 172)">
		<stop  offset="0" style="stop-color:#FA9600"/>
		<stop  offset="1" style="stop-color:#FDDB91"/>
	</linearGradient>
	<path class="st64" d="M57.7,92.8c0-0.4,0.1-0.7,0.3-1H47.6c0.5,0.6,0.9,1.2,1.3,1.7h8.9C57.7,93.3,57.7,93.1,57.7,92.8z"/>
</g>
</svg>
