<?xml version="1.0" encoding="utf-8"?>
<!-- Generator: Adobe Illustrator 23.0.0, SVG Export Plug-In . SVG Version: 6.00 Build 0)  -->
<svg version="1.1" id="Layer_1" xmlns:v="https://vecta.io/nano"
	 xmlns="http://www.w3.org/2000/svg" xmlns:xlink="http://www.w3.org/1999/xlink" x="0px" y="0px" viewBox="0 0 122 116"
	 style="enable-background:new 0 0 122 116;" xml:space="preserve">
<style type="text/css">
	.st0{fill:#F0B90B;}
	.st1{fill-rule:evenodd;clip-rule:evenodd;fill:#FFFDFA;}
	.st2{opacity:0.2;fill:none;stroke:#191326;stroke-width:2.837;enable-background:new    ;}
	.st3{fill:url(#SVGID_1_);}
	.st4{fill:url(#SVGID_2_);}
	.st5{fill:url(#SVGID_3_);}
	.st6{fill:url(#SVGID_4_);}
	.st7{fill:url(#SVGID_5_);}
	.st8{fill:url(#SVGID_6_);}
	.st9{fill:url(#SVGID_7_);}
	.st10{fill:url(#SVGID_8_);}
	.st11{fill:url(#SVGID_9_);}
	.st12{fill:url(#SVGID_10_);}
	.st13{fill:url(#SVGID_11_);}
	.st14{fill:url(#SVGID_12_);}
	.st15{fill:url(#SVGID_13_);}
	.st16{fill:url(#SVGID_14_);}
	.st17{fill:url(#SVGID_15_);}
	.st18{fill:url(#SVGID_16_);}
	.st19{fill:url(#SVGID_17_);}
	.st20{fill:url(#SVGID_18_);}
	.st21{fill:url(#SVGID_19_);}
	.st22{fill:url(#SVGID_20_);}
	.st23{fill:url(#SVGID_21_);}
	.st24{fill:url(#SVGID_22_);}
	.st25{fill:url(#SVGID_23_);}
	.st26{fill:url(#SVGID_24_);}
	.st27{fill:url(#SVGID_25_);}
	.st28{fill:url(#SVGID_26_);}
	.st29{fill:url(#SVGID_27_);}
	.st30{fill:url(#SVGID_28_);}
	.st31{fill:url(#SVGID_29_);}
	.st32{fill:url(#SVGID_30_);}
	.st33{fill:url(#SVGID_31_);}
	.st34{fill:url(#SVGID_32_);}
	.st35{fill:url(#SVGID_33_);}
	.st36{fill:url(#SVGID_34_);}
	.st37{fill:url(#SVGID_35_);}
	.st38{fill:url(#SVGID_36_);}
	.st39{fill:url(#SVGID_37_);}
	.st40{fill:url(#SVGID_38_);}
	.st41{fill:url(#SVGID_39_);}
	.st42{fill:url(#SVGID_40_);}
	.st43{fill:url(#SVGID_41_);}
	.st44{fill:url(#SVGID_42_);}
	.st45{fill:url(#SVGID_43_);}
	.st46{fill:url(#SVGID_44_);}
	.st47{fill:url(#SVGID_45_);}
	.st48{fill:url(#SVGID_46_);}
	.st49{fill:url(#SVGID_47_);}
	.st50{fill:url(#SVGID_48_);}
	.st51{fill:url(#SVGID_49_);}
	.st52{fill:url(#SVGID_50_);}
	.st53{fill:url(#SVGID_51_);}
	.st54{fill:url(#SVGID_52_);}
	.st55{fill:url(#SVGID_53_);}
	.st56{fill:url(#SVGID_54_);}
	.st57{fill:url(#SVGID_55_);}
	.st58{fill:url(#SVGID_56_);}
	.st59{fill:url(#SVGID_57_);}
	.st60{fill:url(#SVGID_58_);}
	.st61{fill:url(#SVGID_59_);}
	.st62{fill:url(#SVGID_60_);}
	.st63{fill:url(#SVGID_61_);}
	.st64{fill:url(#SVGID_62_);}
</style>
<g>
	<circle class="st0" cx="29" cy="29" r="29"/>
	<path class="st1" d="M16.7,21.6L29,9.3l4.9,4.9L21.6,26.6C21.6,26.6,16.7,21.6,16.7,21.6z M16.7,36.4l19.7-19.7l4.9,4.9L21.6,41.3
		L16.7,36.4z M43.8,24.1L24.1,43.8l4.9,4.9L48.7,29L43.8,24.1L43.8,24.1z M9.3,29l4.9-4.9l4.9,4.9l-4.9,4.9L9.3,29z"/>
	<circle class="st2" cx="29" cy="29" r="28.1"/>
</g>
<g>
	
		<linearGradient id="SVGID_1_" gradientUnits="userSpaceOnUse" x1="51.8353" y1="157.7587" x2="155.3665" y2="254.3277" gradientTransform="matrix(1 0 0 1 0 -158)">
		<stop  offset="0" style="stop-color:#FA9600"/>
		<stop  offset="1" style="stop-color:#FDDB91"/>
	</linearGradient>
	<path class="st3" d="M119.1,65.4c1.6,0,2.9-1.3,2.9-2.9s-1.3-2.9-2.9-2.9s-2.9,1.3-2.9,2.9C116.2,64.1,117.5,65.4,119.1,65.4z"/>
	
		<linearGradient id="SVGID_2_" gradientUnits="userSpaceOnUse" x1="52.224" y1="157.3421" x2="155.7551" y2="253.9109" gradientTransform="matrix(1 0 0 1 0 -158)">
		<stop  offset="0" style="stop-color:#FA9600"/>
		<stop  offset="1" style="stop-color:#FDDB91"/>
	</linearGradient>
	<path class="st4" d="M109,55.2c1.6,0,2.9-1.3,2.9-2.9s-1.3-2.9-2.9-2.9s-2.9,1.3-2.9,2.9S107.4,55.2,109,55.2z"/>
	
		<linearGradient id="SVGID_3_" gradientUnits="userSpaceOnUse" x1="52.6659" y1="156.8683" x2="156.1971" y2="253.4372" gradientTransform="matrix(1 0 0 1 0 -158)">
		<stop  offset="0" style="stop-color:#FA9600"/>
		<stop  offset="1" style="stop-color:#FDDB91"/>
	</linearGradient>
	<path class="st5" d="M98.8,44.8c1.6,0,2.9-1.3,2.9-2.9s-1.3-2.9-2.9-2.9s-2.9,1.3-2.9,2.9S97.2,44.8,98.8,44.8z"/>
	
		<linearGradient id="SVGID_4_" gradientUnits="userSpaceOnUse" x1="52.9548" y1="156.5586" x2="156.486" y2="253.1274" gradientTransform="matrix(1 0 0 1 0 -158)">
		<stop  offset="0" style="stop-color:#FA9600"/>
		<stop  offset="1" style="stop-color:#FDDB91"/>
	</linearGradient>
	<path class="st6" d="M88.7,34.8c1.6,0,2.9-1.3,2.9-2.9S90.3,29,88.7,29s-2.9,1.3-2.9,2.9C85.8,33.5,87.1,34.8,88.7,34.8z"/>
	
		<linearGradient id="SVGID_5_" gradientUnits="userSpaceOnUse" x1="43.4637" y1="166.734" x2="146.9949" y2="263.3028" gradientTransform="matrix(1 0 0 1 0 -158)">
		<stop  offset="0" style="stop-color:#FA9600"/>
		<stop  offset="1" style="stop-color:#FDDB91"/>
	</linearGradient>
	<path class="st7" d="M68.3,34.8c1.6,0,2.9-1.3,2.9-2.9S69.9,29,68.3,29s-2.9,1.3-2.9,2.9S66.7,34.8,68.3,34.8z"/>
	
		<linearGradient id="SVGID_6_" gradientUnits="userSpaceOnUse" x1="42.1983" y1="168.0907" x2="145.7294" y2="264.6595" gradientTransform="matrix(1 0 0 1 0 -158)">
		<stop  offset="0" style="stop-color:#FA9600"/>
		<stop  offset="1" style="stop-color:#FDDB91"/>
	</linearGradient>
	<path class="st8" d="M109,75.3c1.6,0,2.9-1.3,2.9-2.9s-1.3-2.9-2.9-2.9s-2.9,1.3-2.9,2.9S107.4,75.3,109,75.3z"/>
	
		<linearGradient id="SVGID_7_" gradientUnits="userSpaceOnUse" x1="42.3908" y1="167.8843" x2="145.922" y2="264.4531" gradientTransform="matrix(1 0 0 1 0 -158)">
		<stop  offset="0" style="stop-color:#FA9600"/>
		<stop  offset="1" style="stop-color:#FDDB91"/>
	</linearGradient>
	<path class="st9" d="M98.8,65.4c1.6,0,2.9-1.3,2.9-2.9s-1.3-2.9-2.9-2.9s-2.9,1.3-2.9,2.9C95.9,64.1,97.2,65.4,98.8,65.4z"/>
	
		<linearGradient id="SVGID_8_" gradientUnits="userSpaceOnUse" x1="42.7794" y1="167.4675" x2="146.3106" y2="264.0364" gradientTransform="matrix(1 0 0 1 0 -158)">
		<stop  offset="0" style="stop-color:#FA9600"/>
		<stop  offset="1" style="stop-color:#FDDB91"/>
	</linearGradient>
	<path class="st10" d="M88.7,55.2c1.6,0,2.9-1.3,2.9-2.9s-1.3-2.9-2.9-2.9s-2.9,1.3-2.9,2.9S87.1,55.2,88.7,55.2z"/>
	
		<linearGradient id="SVGID_9_" gradientUnits="userSpaceOnUse" x1="43.2214" y1="166.9938" x2="146.7525" y2="263.5626" gradientTransform="matrix(1 0 0 1 0 -158)">
		<stop  offset="0" style="stop-color:#FA9600"/>
		<stop  offset="1" style="stop-color:#FDDB91"/>
	</linearGradient>
	<path class="st11" d="M78.5,44.8c1.6,0,2.9-1.3,2.9-2.9S80.1,39,78.5,39s-2.9,1.3-2.9,2.9S76.9,44.8,78.5,44.8z"/>
	
		<linearGradient id="SVGID_10_" gradientUnits="userSpaceOnUse" x1="33.7769" y1="177.1193" x2="137.308" y2="273.6881" gradientTransform="matrix(1 0 0 1 0 -158)">
		<stop  offset="0" style="stop-color:#FA9600"/>
		<stop  offset="1" style="stop-color:#FDDB91"/>
	</linearGradient>
	<path class="st12" d="M58.2,44.8c1.6,0,2.9-1.3,2.9-2.9S59.8,39,58.2,39s-2.9,1.3-2.9,2.9S56.6,44.8,58.2,44.8z"/>
	
		<linearGradient id="SVGID_11_" gradientUnits="userSpaceOnUse" x1="32.5148" y1="178.4723" x2="136.0459" y2="275.0412" gradientTransform="matrix(1 0 0 1 0 -158)">
		<stop  offset="0" style="stop-color:#FA9600"/>
		<stop  offset="1" style="stop-color:#FDDB91"/>
	</linearGradient>
	<path class="st13" d="M98.8,85.2c1.6,0,2.9-1.3,2.9-2.9s-1.3-2.9-2.9-2.9s-2.9,1.3-2.9,2.9S97.2,85.2,98.8,85.2z"/>
	
		<linearGradient id="SVGID_12_" gradientUnits="userSpaceOnUse" x1="32.7538" y1="178.2161" x2="136.2849" y2="274.7849" gradientTransform="matrix(1 0 0 1 0 -158)">
		<stop  offset="0" style="stop-color:#FA9600"/>
		<stop  offset="1" style="stop-color:#FDDB91"/>
	</linearGradient>
	<path class="st14" d="M88.7,75.3c1.6,0,2.9-1.3,2.9-2.9s-1.3-2.9-2.9-2.9s-2.9,1.3-2.9,2.9C85.8,74,87.1,75.3,88.7,75.3z"/>
	
		<linearGradient id="SVGID_13_" gradientUnits="userSpaceOnUse" x1="32.9463" y1="178.0097" x2="136.4774" y2="274.5785" gradientTransform="matrix(1 0 0 1 0 -158)">
		<stop  offset="0" style="stop-color:#FA9600"/>
		<stop  offset="1" style="stop-color:#FDDB91"/>
	</linearGradient>
	<path class="st15" d="M78.5,65.4c1.6,0,2.9-1.3,2.9-2.9s-1.3-2.9-2.9-2.9s-2.9,1.3-2.9,2.9C75.6,64.1,76.9,65.4,78.5,65.4z"/>
	
		<linearGradient id="SVGID_14_" gradientUnits="userSpaceOnUse" x1="33.2884" y1="177.6429" x2="136.8196" y2="274.2117" gradientTransform="matrix(1 0 0 1 0 -158)">
		<stop  offset="0" style="stop-color:#FA9600"/>
		<stop  offset="1" style="stop-color:#FDDB91"/>
	</linearGradient>
	<path class="st16" d="M68.3,55.2c1.6,0,2.9-1.3,2.9-2.9s-1.3-2.9-2.9-2.9s-2.9,1.3-2.9,2.9S66.7,55.2,68.3,55.2z"/>
	
		<linearGradient id="SVGID_15_" gradientUnits="userSpaceOnUse" x1="23.8904" y1="187.7185" x2="127.4215" y2="284.2873" gradientTransform="matrix(1 0 0 1 0 -158)">
		<stop  offset="0" style="stop-color:#FA9600"/>
		<stop  offset="1" style="stop-color:#FDDB91"/>
	</linearGradient>
	<path class="st17" d="M48.1,55.2c1.6,0,2.9-1.3,2.9-2.9s-1.3-2.9-2.9-2.9c-1.6,0-2.9,1.3-2.9,2.9S46.5,55.2,48.1,55.2z"/>
	
		<linearGradient id="SVGID_16_" gradientUnits="userSpaceOnUse" x1="22.7191" y1="188.9742" x2="126.2502" y2="285.5431" gradientTransform="matrix(1 0 0 1 0 -158)">
		<stop  offset="0" style="stop-color:#FA9600"/>
		<stop  offset="1" style="stop-color:#FDDB91"/>
	</linearGradient>
	<path class="st18" d="M88.7,95.4c1.6,0,2.9-1.3,2.9-2.9s-1.3-2.9-2.9-2.9s-2.9,1.3-2.9,2.9C85.8,94.2,87.1,95.4,88.7,95.4z"/>
	
		<linearGradient id="SVGID_17_" gradientUnits="userSpaceOnUse" x1="23.0702" y1="188.5978" x2="126.6014" y2="285.1666" gradientTransform="matrix(1 0 0 1 0 -158)">
		<stop  offset="0" style="stop-color:#FA9600"/>
		<stop  offset="1" style="stop-color:#FDDB91"/>
	</linearGradient>
	<path class="st19" d="M78.5,85.2c1.6,0,2.9-1.3,2.9-2.9s-1.3-2.9-2.9-2.9s-2.9,1.3-2.9,2.9S76.9,85.2,78.5,85.2z"/>
	
		<linearGradient id="SVGID_18_" gradientUnits="userSpaceOnUse" x1="23.2627" y1="188.3914" x2="126.7939" y2="284.9602" gradientTransform="matrix(1 0 0 1 0 -158)">
		<stop  offset="0" style="stop-color:#FA9600"/>
		<stop  offset="1" style="stop-color:#FDDB91"/>
	</linearGradient>
	<path class="st20" d="M68.3,75.3c1.6,0,2.9-1.3,2.9-2.9s-1.3-2.9-2.9-2.9s-2.9,1.3-2.9,2.9S66.7,75.3,68.3,75.3z"/>
	
		<linearGradient id="SVGID_19_" gradientUnits="userSpaceOnUse" x1="23.5017" y1="188.1351" x2="127.0329" y2="284.7039" gradientTransform="matrix(1 0 0 1 0 -158)">
		<stop  offset="0" style="stop-color:#FA9600"/>
		<stop  offset="1" style="stop-color:#FDDB91"/>
	</linearGradient>
	<path class="st21" d="M58.2,65.4c1.6,0,2.9-1.3,2.9-2.9s-1.3-2.9-2.9-2.9c-1.6,0-2.9,1.3-2.9,2.9C55.3,64.1,56.6,65.4,58.2,65.4z"
		/>
	
		<linearGradient id="SVGID_20_" gradientUnits="userSpaceOnUse" x1="14.0572" y1="198.2606" x2="117.5884" y2="294.8294" gradientTransform="matrix(1 0 0 1 0 -158)">
		<stop  offset="0" style="stop-color:#FA9600"/>
		<stop  offset="1" style="stop-color:#FDDB91"/>
	</linearGradient>
	<path class="st22" d="M37.9,65.4c1.6,0,2.9-1.3,2.9-2.9s-1.3-2.9-2.9-2.9c-1.6,0-2.9,1.3-2.9,2.9C35,64.1,36.3,65.4,37.9,65.4z"/>
	
		<linearGradient id="SVGID_21_" gradientUnits="userSpaceOnUse" x1="12.845" y1="199.5602" x2="116.3762" y2="296.129" gradientTransform="matrix(1 0 0 1 0 -158)">
		<stop  offset="0" style="stop-color:#FA9600"/>
		<stop  offset="1" style="stop-color:#FDDB91"/>
	</linearGradient>
	<path class="st23" d="M78.5,105.7c1.6,0,2.9-1.3,2.9-2.9s-1.3-2.9-2.9-2.9s-2.9,1.3-2.9,2.9C75.6,104.4,76.9,105.7,78.5,105.7z"/>
	
		<linearGradient id="SVGID_22_" gradientUnits="userSpaceOnUse" x1="13.228" y1="199.1495" x2="116.7591" y2="295.7184" gradientTransform="matrix(1 0 0 1 0 -158)">
		<stop  offset="0" style="stop-color:#FA9600"/>
		<stop  offset="1" style="stop-color:#FDDB91"/>
	</linearGradient>
	<path class="st24" d="M68.3,95.4c1.6,0,2.9-1.3,2.9-2.9s-1.3-2.9-2.9-2.9s-2.9,1.3-2.9,2.9C65.4,94.2,66.7,95.4,68.3,95.4z"/>
	
		<linearGradient id="SVGID_23_" gradientUnits="userSpaceOnUse" x1="13.6257" y1="198.7232" x2="117.1568" y2="295.292" gradientTransform="matrix(1 0 0 1 0 -158)">
		<stop  offset="0" style="stop-color:#FA9600"/>
		<stop  offset="1" style="stop-color:#FDDB91"/>
	</linearGradient>
	<path class="st25" d="M58.2,85.2c1.6,0,2.9-1.3,2.9-2.9s-1.3-2.9-2.9-2.9c-1.6,0-2.9,1.3-2.9,2.9S56.6,85.2,58.2,85.2z"/>
	
		<linearGradient id="SVGID_24_" gradientUnits="userSpaceOnUse" x1="13.8647" y1="198.467" x2="117.3959" y2="295.0358" gradientTransform="matrix(1 0 0 1 0 -158)">
		<stop  offset="0" style="stop-color:#FA9600"/>
		<stop  offset="1" style="stop-color:#FDDB91"/>
	</linearGradient>
	<path class="st26" d="M48.1,75.3c1.6,0,2.9-1.3,2.9-2.9s-1.3-2.9-2.9-2.9c-1.6,0-2.9,1.3-2.9,2.9C45.2,74,46.5,75.3,48.1,75.3z"/>
	
		<linearGradient id="SVGID_25_" gradientUnits="userSpaceOnUse" x1="41.9593" y1="168.3469" x2="145.4904" y2="264.9157" gradientTransform="matrix(1 0 0 1 0 -158)">
		<stop  offset="0" style="stop-color:#FA9600"/>
		<stop  offset="1" style="stop-color:#FDDB91"/>
	</linearGradient>
	<path class="st27" d="M119.1,85.2c1.6,0,2.9-1.3,2.9-2.9s-1.3-2.9-2.9-2.9s-2.9,1.3-2.9,2.9S117.5,85.2,119.1,85.2z"/>
	
		<linearGradient id="SVGID_26_" gradientUnits="userSpaceOnUse" x1="32.1636" y1="178.8487" x2="135.6948" y2="275.4176" gradientTransform="matrix(1 0 0 1 0 -158)">
		<stop  offset="0" style="stop-color:#FA9600"/>
		<stop  offset="1" style="stop-color:#FDDB91"/>
	</linearGradient>
	<path class="st28" d="M109,95.4c1.6,0,2.9-1.3,2.9-2.9s-1.3-2.9-2.9-2.9s-2.9,1.3-2.9,2.9C106.1,94.2,107.4,95.4,109,95.4z"/>
	
		<linearGradient id="SVGID_27_" gradientUnits="userSpaceOnUse" x1="22.2895" y1="189.4348" x2="125.8206" y2="286.0035" gradientTransform="matrix(1 0 0 1 0 -158)">
		<stop  offset="0" style="stop-color:#FA9600"/>
		<stop  offset="1" style="stop-color:#FDDB91"/>
	</linearGradient>
	<path class="st29" d="M98.8,105.7c1.6,0,2.9-1.3,2.9-2.9s-1.3-2.9-2.9-2.9s-2.9,1.3-2.9,2.9C95.9,104.4,97.2,105.7,98.8,105.7z"/>
	
		<linearGradient id="SVGID_28_" gradientUnits="userSpaceOnUse" x1="12.453" y1="199.9804" x2="115.9841" y2="296.5493" gradientTransform="matrix(1 0 0 1 0 -158)">
		<stop  offset="0" style="stop-color:#FA9600"/>
		<stop  offset="1" style="stop-color:#FDDB91"/>
	</linearGradient>
	<path class="st30" d="M88.7,116c1.6,0,2.9-1.3,2.9-2.9s-1.3-2.9-2.9-2.9s-2.9,1.3-2.9,2.9C85.8,114.7,87.1,116,88.7,116z"/>
	
		<linearGradient id="SVGID_29_" gradientUnits="userSpaceOnUse" x1="2.962" y1="210.1558" x2="106.4931" y2="306.7247" gradientTransform="matrix(1 0 0 1 0 -158)">
		<stop  offset="0" style="stop-color:#FA9600"/>
		<stop  offset="1" style="stop-color:#FDDB91"/>
	</linearGradient>
	<path class="st31" d="M68.3,116c1.6,0,2.9-1.3,2.9-2.9s-1.3-2.9-2.9-2.9s-2.9,1.3-2.9,2.9S66.7,116,68.3,116z"/>
	
		<linearGradient id="SVGID_30_" gradientUnits="userSpaceOnUse" x1="3.4005" y1="209.6857" x2="106.9316" y2="306.2545" gradientTransform="matrix(1 0 0 1 0 -158)">
		<stop  offset="0" style="stop-color:#FA9600"/>
		<stop  offset="1" style="stop-color:#FDDB91"/>
	</linearGradient>
	<path class="st32" d="M58.2,105.7c1.6,0,2.9-1.3,2.9-2.9s-1.3-2.9-2.9-2.9c-1.6,0-2.9,1.3-2.9,2.9
		C55.3,104.4,56.6,105.7,58.2,105.7z"/>
	
		<linearGradient id="SVGID_31_" gradientUnits="userSpaceOnUse" x1="3.83" y1="209.2251" x2="107.3612" y2="305.794" gradientTransform="matrix(1 0 0 1 0 -158)">
		<stop  offset="0" style="stop-color:#FA9600"/>
		<stop  offset="1" style="stop-color:#FDDB91"/>
	</linearGradient>
	<path class="st33" d="M48.1,95.4c1.6,0,2.9-1.3,2.9-2.9s-1.3-2.9-2.9-2.9c-1.6,0-2.9,1.3-2.9,2.9C45.2,94.2,46.5,95.4,48.1,95.4z"
		/>
	
		<linearGradient id="SVGID_32_" gradientUnits="userSpaceOnUse" x1="4.1812" y1="208.8487" x2="107.7123" y2="305.4175" gradientTransform="matrix(1 0 0 1 0 -158)">
		<stop  offset="0" style="stop-color:#FA9600"/>
		<stop  offset="1" style="stop-color:#FDDB91"/>
	</linearGradient>
	<path class="st34" d="M37.9,85.2c1.6,0,2.9-1.3,2.9-2.9s-1.3-2.9-2.9-2.9c-1.6,0-2.9,1.3-2.9,2.9S36.3,85.2,37.9,85.2z"/>
	
		<linearGradient id="SVGID_33_" gradientUnits="userSpaceOnUse" x1="48.2608" y1="161.591" x2="151.792" y2="258.1599" gradientTransform="matrix(1 0 0 1 0 -158)">
		<stop  offset="0" style="stop-color:#FA9600"/>
		<stop  offset="1" style="stop-color:#FDDB91"/>
	</linearGradient>
	<path class="st35" d="M87.3,30.9H69.6v1.7h17.7V30.9z"/>
	
		<linearGradient id="SVGID_34_" gradientUnits="userSpaceOnUse" x1="19.2367" y1="192.7077" x2="122.7679" y2="289.2765" gradientTransform="matrix(1 0 0 1 0 -158)">
		<stop  offset="0" style="stop-color:#FA9600"/>
		<stop  offset="1" style="stop-color:#FDDB91"/>
	</linearGradient>
	<path class="st36" d="M47.8,51.6c-0.1-0.1-0.2-0.1-0.3-0.2l-10.1,10c0.6,0.1,1.1,0.6,1.3,1.1l9.8-9.8C48.1,52.4,47.8,52,47.8,51.6z
		"/>
	
		<linearGradient id="SVGID_35_" gradientUnits="userSpaceOnUse" x1="39.2752" y1="171.2244" x2="142.8064" y2="267.7933" gradientTransform="matrix(1 0 0 1 0 -158)">
		<stop  offset="0" style="stop-color:#FA9600"/>
		<stop  offset="1" style="stop-color:#FDDB91"/>
	</linearGradient>
	<path class="st37" d="M59.6,41.5l9.9-9.9c-0.3-0.2-0.6-0.4-1-0.6c-0.3,0.1-0.7,0.2-1.1,0.2l-9.3,9.4C58.9,40.6,59.3,41,59.6,41.5z"
		/>
	
		<linearGradient id="SVGID_36_" gradientUnits="userSpaceOnUse" x1="7.6657" y1="205.1128" x2="111.1969" y2="301.6817" gradientTransform="matrix(1 0 0 1 0 -158)">
		<stop  offset="0" style="stop-color:#FA9600"/>
		<stop  offset="1" style="stop-color:#FDDB91"/>
	</linearGradient>
	<path class="st38" d="M70.1,112.8h17.8v1.7H70.1V112.8z"/>
	
		<linearGradient id="SVGID_37_" gradientUnits="userSpaceOnUse" x1="36.9429" y1="173.7249" x2="140.4741" y2="270.2937" gradientTransform="matrix(1 0 0 1 0 -158)">
		<stop  offset="0" style="stop-color:#FA9600"/>
		<stop  offset="1" style="stop-color:#FDDB91"/>
	</linearGradient>
	<path class="st39" d="M118.4,82l-10,10c0.6,0.2,1,0.7,1.2,1.2l9.8-9.8C118.9,82.9,118.6,82.5,118.4,82z"/>
	
		<linearGradient id="SVGID_38_" gradientUnits="userSpaceOnUse" x1="16.7245" y1="195.401" x2="120.2557" y2="291.9698" gradientTransform="matrix(1 0 0 1 0 -158)">
		<stop  offset="0" style="stop-color:#FA9600"/>
		<stop  offset="1" style="stop-color:#FDDB91"/>
	</linearGradient>
	<path class="st40" d="M97.8,102.8l-10.6,10.6c0.6,0.1,1.1,0.5,1.2,1.2L99,103.8C98.5,103.7,98,103.3,97.8,102.8z"/>
	
		<linearGradient id="SVGID_39_" gradientUnits="userSpaceOnUse" x1="27.9762" y1="183.338" x2="131.5074" y2="279.907" gradientTransform="matrix(1 0 0 1 0 -158)">
		<stop  offset="0" style="stop-color:#FA9600"/>
		<stop  offset="1" style="stop-color:#FDDB91"/>
	</linearGradient>
	<path class="st41" d="M88.5,51.9L57.6,82.8c0.6,0.2,1,0.6,1.2,1.2l30.9-31C89.2,52.9,88.7,52.5,88.5,51.9z"/>
	
		<linearGradient id="SVGID_40_" gradientUnits="userSpaceOnUse" x1="27.686" y1="183.6491" x2="131.2172" y2="280.2179" gradientTransform="matrix(1 0 0 1 0 -158)">
		<stop  offset="0" style="stop-color:#FA9600"/>
		<stop  offset="1" style="stop-color:#FDDB91"/>
	</linearGradient>
	<path class="st42" d="M98.7,61.3L67.1,93c0.1,0,0.2,0,0.3,0.1h1.2c0.2,0,0.5,0,0.6,0.1l29.6-29.7C98.5,62.8,98.5,62.1,98.7,61.3z"
		/>
	
		<linearGradient id="SVGID_41_" gradientUnits="userSpaceOnUse" x1="51.9913" y1="157.5915" x2="155.5225" y2="254.1604" gradientTransform="matrix(1 0 0 1 0 -158)">
		<stop  offset="0" style="stop-color:#FA9600"/>
		<stop  offset="1" style="stop-color:#FDDB91"/>
	</linearGradient>
	<path class="st43" d="M118.9,62.7c-0.1-0.5-0.1-1,0-1.6l-8.7-8.7c-0.3,0.7-0.8,1-1.4,1l9.9,9.9C118.7,63.1,118.8,62.9,118.9,62.7z"
		/>
	
		<linearGradient id="SVGID_42_" gradientUnits="userSpaceOnUse" x1="52.759" y1="156.7685" x2="156.2901" y2="253.3374" gradientTransform="matrix(1 0 0 1 0 -158)">
		<stop  offset="0" style="stop-color:#FA9600"/>
		<stop  offset="1" style="stop-color:#FDDB91"/>
	</linearGradient>
	<path class="st44" d="M98.8,41L88.1,30.2c-0.4,0.4-0.9,0.7-1.3,1L98,42.5C98,41.9,98.3,41.3,98.8,41z"/>
	
		<linearGradient id="SVGID_43_" gradientUnits="userSpaceOnUse" x1="3.6561" y1="209.4115" x2="107.1873" y2="305.9804" gradientTransform="matrix(1 0 0 1 0 -158)">
		<stop  offset="0" style="stop-color:#FA9600"/>
		<stop  offset="1" style="stop-color:#FDDB91"/>
	</linearGradient>
	<path class="st45" d="M48.4,92.3L37.7,81.6c0,0.1,0,0.1-0.1,0.2c0.1,0.6-0.3,1.1-0.8,1.4l10.3,10.3C47.4,92.9,47.9,92.5,48.4,92.3z
		"/>
	
		<linearGradient id="SVGID_44_" gradientUnits="userSpaceOnUse" x1="2.9452" y1="210.1737" x2="106.4764" y2="306.7425" gradientTransform="matrix(1 0 0 1 0 -158)">
		<stop  offset="0" style="stop-color:#FA9600"/>
		<stop  offset="1" style="stop-color:#FDDB91"/>
	</linearGradient>
	<path class="st46" d="M68.2,112.2l-9.3-9.3c-0.1,0.6-0.2,1.1-0.5,1.8v0.1l8.4,8.4C67.2,112.7,67.7,112.4,68.2,112.2z"/>
	
		<linearGradient id="SVGID_45_" gradientUnits="userSpaceOnUse" x1="32.4796" y1="178.51" x2="136.0107" y2="275.0788" gradientTransform="matrix(1 0 0 1 0 -158)">
		<stop  offset="0" style="stop-color:#FA9600"/>
		<stop  offset="1" style="stop-color:#FDDB91"/>
	</linearGradient>
	<path class="st47" d="M98.4,83c0.2-0.5,0.5-0.8,0.9-1l-9.8-9.8c-0.1,0.4-0.3,0.8-0.6,1.2c-0.1,0.1-0.2,0.2-0.3,0.3l9.7,9.7
		C98.4,83.3,98.4,83.1,98.4,83z"/>
	
		<linearGradient id="SVGID_46_" gradientUnits="userSpaceOnUse" x1="33.2605" y1="177.6728" x2="136.7916" y2="274.2417" gradientTransform="matrix(1 0 0 1 0 -158)">
		<stop  offset="0" style="stop-color:#FA9600"/>
		<stop  offset="1" style="stop-color:#FDDB91"/>
	</linearGradient>
	<path class="st48" d="M78.9,61.5L68,50.6c-0.2,0.6-0.8,0.9-1.3,1l11,11C77.9,62.1,78.4,61.7,78.9,61.5z"/>
	
		<linearGradient id="SVGID_47_" gradientUnits="userSpaceOnUse" x1="23.3626" y1="188.2844" x2="126.8937" y2="284.8532" gradientTransform="matrix(1 0 0 1 0 -158)">
		<stop  offset="0" style="stop-color:#FA9600"/>
		<stop  offset="1" style="stop-color:#FDDB91"/>
	</linearGradient>
	<path class="st49" d="M68.4,71.7c0.1,0,0.2,0,0.3,0L57.5,60.6c-0.1,0.2-0.2,0.4-0.4,0.5c-0.2,0.4-0.5,0.6-0.8,0.7l10.9,10.9
		C67.5,72.2,67.8,71.8,68.4,71.7z"/>
	
		<linearGradient id="SVGID_48_" gradientUnits="userSpaceOnUse" x1="22.6697" y1="189.0272" x2="126.2008" y2="285.596" gradientTransform="matrix(1 0 0 1 0 -158)">
		<stop  offset="0" style="stop-color:#FA9600"/>
		<stop  offset="1" style="stop-color:#FDDB91"/>
	</linearGradient>
	<path class="st50" d="M79.3,82.4c-0.1,0.2-0.3,0.5-0.6,0.7c-0.2,0.2-0.4,0.3-0.6,0.4l0,0l10.1,10.1c0.3-0.4,0.7-0.7,1.1-1.1
		c0,0,0,0,0.1-0.1L79.3,82.4z"/>
	
		<linearGradient id="SVGID_49_" gradientUnits="userSpaceOnUse" x1="38.7339" y1="171.8048" x2="142.265" y2="268.3736" gradientTransform="matrix(1 0 0 1 0 -158)">
		<stop  offset="0" style="stop-color:#FA9600"/>
		<stop  offset="1" style="stop-color:#FDDB91"/>
	</linearGradient>
	<path class="st51" d="M79.3,61.4V40.2c-0.5,0.1-1.1,0.1-1.7,0v21.3C78.1,61.1,78.8,61.2,79.3,61.4z"/>
	
		<linearGradient id="SVGID_50_" gradientUnits="userSpaceOnUse" x1="17.6101" y1="194.4515" x2="121.1413" y2="291.0203" gradientTransform="matrix(1 0 0 1 0 -158)">
		<stop  offset="0" style="stop-color:#FA9600"/>
		<stop  offset="1" style="stop-color:#FDDB91"/>
	</linearGradient>
	<path class="st52" d="M78.3,102.7c0.4-0.2,0.7-0.2,1-0.1V83.3c-0.7,0.3-1.3,0.2-1.7-0.2v20C77.8,103,78,102.8,78.3,102.7z"/>
	
		<linearGradient id="SVGID_51_" gradientUnits="userSpaceOnUse" x1="18.0967" y1="193.9297" x2="121.6279" y2="290.4986" gradientTransform="matrix(1 0 0 1 0 -158)">
		<stop  offset="0" style="stop-color:#FA9600"/>
		<stop  offset="1" style="stop-color:#FDDB91"/>
	</linearGradient>
	<path class="st53" d="M68.6,73.3c-0.3-0.5-0.2-1.2,0-1.7H45.8c0.1,0.3,0.2,0.6,0.2,1c0,0.2,0,0.5-0.1,0.7H68.6L68.6,73.3z"/>
	
		<linearGradient id="SVGID_52_" gradientUnits="userSpaceOnUse" x1="37.3115" y1="173.3297" x2="140.8427" y2="269.8985" gradientTransform="matrix(1 0 0 1 0 -158)">
		<stop  offset="0" style="stop-color:#FA9600"/>
		<stop  offset="1" style="stop-color:#FDDB91"/>
	</linearGradient>
	<path class="st54" d="M108.7,73.3c-0.2-0.5-0.2-1.2,0.1-1.7H88.5c0.2,0.5,0.1,1.2-0.2,1.7H108.7z"/>
	
		<linearGradient id="SVGID_53_" gradientUnits="userSpaceOnUse" x1="8.893" y1="203.7971" x2="112.4242" y2="300.3659" gradientTransform="matrix(1 0 0 1 0 -158)">
		<stop  offset="0" style="stop-color:#FA9600"/>
		<stop  offset="1" style="stop-color:#FDDB91"/>
	</linearGradient>
	<path class="st55" d="M37.2,61.9L37.2,61.9l-0.1,21.3c0.5-0.1,1.1,0,1.7,0.3V62.6C38.2,62.7,37.6,62.5,37.2,61.9z"/>
	
		<linearGradient id="SVGID_54_" gradientUnits="userSpaceOnUse" x1="46.0544" y1="163.9565" x2="149.5855" y2="260.5254" gradientTransform="matrix(1 0 0 1 0 -158)">
		<stop  offset="0" style="stop-color:#FA9600"/>
		<stop  offset="1" style="stop-color:#FDDB91"/>
	</linearGradient>
	<path class="st56" d="M118.1,64.1v19.4c0.5-0.3,1-0.6,1.7-0.8V64.4C119.2,64.6,118.6,64.5,118.1,64.1z"/>
	
		<linearGradient id="SVGID_55_" gradientUnits="userSpaceOnUse" x1="47.4269" y1="162.485" x2="150.9581" y2="259.0538" gradientTransform="matrix(1 0 0 1 0 -158)">
		<stop  offset="0" style="stop-color:#FA9600"/>
		<stop  offset="1" style="stop-color:#FDDB91"/>
	</linearGradient>
	<path class="st57" d="M99.7,62.1V42.3c0,0,0,0-0.1,0c-0.3,0.2-0.7,0.2-1.2,0.1c-0.2,0-0.3-0.1-0.4-0.1v20.3
		C98.4,62.2,99.1,62,99.7,62.1z"/>
	
		<linearGradient id="SVGID_56_" gradientUnits="userSpaceOnUse" x1="24.7069" y1="186.843" x2="128.2381" y2="283.4118" gradientTransform="matrix(1 0 0 1 0 -158)">
		<stop  offset="0" style="stop-color:#FA9600"/>
		<stop  offset="1" style="stop-color:#FDDB91"/>
	</linearGradient>
	<path class="st58" d="M99.5,92.4c-0.5,0.3-1.1,0.2-1.5,0v11.3c0.6-0.5,1.2-0.9,1.7-1.3V92.3C99.6,92.3,99.5,92.4,99.5,92.4z"/>
	
		<linearGradient id="SVGID_57_" gradientUnits="userSpaceOnUse" x1="8.415" y1="204.3096" x2="111.9461" y2="300.8784" gradientTransform="matrix(1 0 0 1 0 -158)">
		<stop  offset="0" style="stop-color:#FA9600"/>
		<stop  offset="1" style="stop-color:#FDDB91"/>
	</linearGradient>
	<path class="st59" d="M58.7,82.9c-0.4,0.5-0.9,0.7-1.4,0.8v19.1c0.5-0.3,1.2-0.4,1.7-0.2v-20C58.9,82.7,58.8,82.8,58.7,82.9z"/>
	
		<linearGradient id="SVGID_58_" gradientUnits="userSpaceOnUse" x1="31.1882" y1="179.8946" x2="134.7193" y2="276.4634" gradientTransform="matrix(1 0 0 1 0 -158)">
		<stop  offset="0" style="stop-color:#FA9600"/>
		<stop  offset="1" style="stop-color:#FDDB91"/>
	</linearGradient>
	<path class="st60" d="M58.9,51.9v-9.8c-0.6,0-1.1-0.1-1.7-0.2v9.9C57.8,51.6,58.4,51.8,58.9,51.9z"/>
	
		<linearGradient id="SVGID_59_" gradientUnits="userSpaceOnUse" x1="50.0458" y1="159.6774" x2="153.5768" y2="256.2463" gradientTransform="matrix(1 0 0 1 0 -158)">
		<stop  offset="0" style="stop-color:#FA9600"/>
		<stop  offset="1" style="stop-color:#FDDB91"/>
	</linearGradient>
	<path class="st61" d="M109.3,51.6c0-0.2,0.1-0.3,0.1-0.4h-11c0.1,0.6,0.2,1.1,0.3,1.7h10.7c0,0,0,0,0-0.1
		C109.3,52.5,109.2,52.1,109.3,51.6z"/>
	
		<linearGradient id="SVGID_60_" gradientUnits="userSpaceOnUse" x1="29.3422" y1="181.8736" x2="132.8734" y2="278.4424" gradientTransform="matrix(1 0 0 1 0 -158)">
		<stop  offset="0" style="stop-color:#FA9600"/>
		<stop  offset="1" style="stop-color:#FDDB91"/>
	</linearGradient>
	<path class="st62" d="M68.6,52c0.3-0.3,0.7-0.5,1-0.8H48.2c0.5,0.6,0.9,1.2,1.3,1.7h18.7C68.1,52.6,68.3,52.3,68.6,52z"/>
	
		<linearGradient id="SVGID_61_" gradientUnits="userSpaceOnUse" x1="27.3954" y1="183.9608" x2="130.9266" y2="280.5295" gradientTransform="matrix(1 0 0 1 0 -158)">
		<stop  offset="0" style="stop-color:#FA9600"/>
		<stop  offset="1" style="stop-color:#FDDB91"/>
	</linearGradient>
	<path class="st63" d="M89.1,93.6h19.8c0,0,0,0,0-0.1c-0.2-0.3-0.2-0.7-0.1-1.2c0-0.2,0.1-0.3,0.1-0.4H88.7
		C89.1,92.3,89.2,93,89.1,93.6z"/>
	
		<linearGradient id="SVGID_62_" gradientUnits="userSpaceOnUse" x1="6.2532" y1="206.6271" x2="109.7844" y2="303.196" gradientTransform="matrix(1 0 0 1 0 -158)">
		<stop  offset="0" style="stop-color:#FA9600"/>
		<stop  offset="1" style="stop-color:#FDDB91"/>
	</linearGradient>
	<path class="st64" d="M57.7,92.8c0-0.4,0.1-0.7,0.3-1H47.6c0.5,0.6,0.9,1.2,1.3,1.7h8.9C57.7,93.3,57.7,93.1,57.7,92.8z"/>
</g>
</svg>
