<svg width="19" height="14" viewBox="0 0 19 14" fill="#ebeb57" xmlns="http://www.w3.org/2000/svg">
<path d="M16.4 0.799805H2C0.895431 0.799805 0 1.69524 0 2.79981V9.1998C0 10.3044 0.895431 11.1998 2 11.1998H2.1651C2.35889 11.1998 2.52481 11.3387 2.55887 11.5295L2.84815 13.1494C2.89816 13.4295 3.27356 13.4891 3.40792 13.2383L3.93452 12.2554C4.28269 11.6054 4.96018 11.1998 5.69747 11.1998H16.4C17.5046 11.1998 18.4 10.3044 18.4 9.1998V5.9998V2.7998C18.4 1.69524 17.5046 0.799805 16.4 0.799805Z" fill="#ffc107"/>
<path d="M7.3704 7.9712C7.3176 7.9856 7.2336 8 7.1184 8.0144C7.008 8.0288 6.8976 8.036 6.7872 8.036C6.6768 8.036 6.5784 8.0264 6.492 8.0072C6.4104 7.9928 6.3408 7.964 6.2832 7.9208C6.2256 7.8776 6.1824 7.8176 6.1536 7.7408C6.1248 7.664 6.1104 7.5632 6.1104 7.4384V6.3152H4.728V7.9712C4.6752 7.9856 4.5912 8 4.476 8.0144C4.3656 8.0288 4.2552 8.036 4.1448 8.036C4.0344 8.036 3.936 8.0264 3.8496 8.0072C3.768 7.9928 3.6984 7.964 3.6408 7.9208C3.5832 7.8776 3.54 7.8176 3.5112 7.7408C3.4824 7.664 3.468 7.5632 3.468 7.4384V3.6368C3.5208 3.6272 3.6048 3.6152 3.72 3.6008C3.8352 3.5816 3.9456 3.572 4.0512 3.572C4.1616 3.572 4.2576 3.5816 4.3392 3.6008C4.4256 3.6152 4.4976 3.644 4.5552 3.6872C4.6128 3.7304 4.656 3.7904 4.6848 3.8672C4.7136 3.944 4.728 4.0448 4.728 4.1696V5.3216H6.1104V3.6368C6.1632 3.6272 6.2472 3.6152 6.3624 3.6008C6.4776 3.5816 6.588 3.572 6.6936 3.572C6.804 3.572 6.9 3.5816 6.9816 3.6008C7.068 3.6152 7.14 3.644 7.1976 3.6872C7.2552 3.7304 7.2984 3.7904 7.3272 3.8672C7.356 3.944 7.3704 4.0448 7.3704 4.1696V7.9712ZM11.8335 6.2504C11.8335 6.548 11.7879 6.8144 11.6967 7.0496C11.6055 7.28 11.4759 7.4744 11.3079 7.6328C11.1447 7.7912 10.9479 7.9112 10.7175 7.9928C10.4871 8.0744 10.2303 8.1152 9.9471 8.1152C9.6639 8.1152 9.4071 8.072 9.1767 7.9856C8.9463 7.8992 8.7471 7.7768 8.5791 7.6184C8.4159 7.4552 8.2887 7.2584 8.1975 7.028C8.1063 6.7976 8.0607 6.5384 8.0607 6.2504C8.0607 5.9672 8.1063 5.7104 8.1975 5.48C8.2887 5.2496 8.4159 5.0552 8.5791 4.8968C8.7471 4.7336 8.9463 4.6088 9.1767 4.5224C9.4071 4.436 9.6639 4.3928 9.9471 4.3928C10.2303 4.3928 10.4871 4.4384 10.7175 4.5296C10.9479 4.616 11.1447 4.7408 11.3079 4.904C11.4759 5.0624 11.6055 5.2568 11.6967 5.4872C11.7879 5.7176 11.8335 5.972 11.8335 6.2504ZM9.3135 6.2504C9.3135 6.5432 9.3687 6.7688 9.4791 6.9272C9.5943 7.0808 9.7527 7.1576 9.9543 7.1576C10.1559 7.1576 10.3095 7.0784 10.4151 6.92C10.5255 6.7616 10.5807 6.5384 10.5807 6.2504C10.5807 5.9624 10.5255 5.7416 10.4151 5.588C10.3047 5.4296 10.1487 5.3504 9.9471 5.3504C9.7455 5.3504 9.5895 5.4296 9.4791 5.588C9.3687 5.7416 9.3135 5.9624 9.3135 6.2504ZM13.6546 6.7976C13.6546 6.9224 13.693 7.0112 13.7698 7.064C13.8514 7.1168 13.9642 7.1432 14.1082 7.1432C14.1802 7.1432 14.2546 7.1384 14.3314 7.1288C14.4082 7.1144 14.4754 7.0976 14.533 7.0784C14.5762 7.1312 14.6122 7.1912 14.641 7.2584C14.6746 7.3208 14.6914 7.3976 14.6914 7.4888C14.6914 7.6712 14.6218 7.82 14.4826 7.9352C14.3482 8.0504 14.1082 8.108 13.7626 8.108C13.3402 8.108 13.0138 8.012 12.7834 7.82C12.5578 7.628 12.445 7.316 12.445 6.884V3.8024C12.4978 3.788 12.5722 3.7736 12.6682 3.7592C12.769 3.74 12.8746 3.7304 12.985 3.7304C13.1962 3.7304 13.3594 3.7688 13.4746 3.8456C13.5946 3.9176 13.6546 4.0736 13.6546 4.3136V4.7744H14.5978C14.6266 4.8272 14.653 4.8944 14.677 4.976C14.7058 5.0528 14.7202 5.1392 14.7202 5.2352C14.7202 5.4032 14.6818 5.5256 14.605 5.6024C14.533 5.6744 14.4346 5.7104 14.3098 5.7104H13.6546V6.7976Z" fill="#1A110D"/>
</svg>
