<svg width="110" height="120" viewBox="0 0 110 120" fill="none" xmlns="http://www.w3.org/2000/svg">
<path d="M109.373 33.938C110.126 31.9325 109.322 29.54 108.974 27.5349C108.457 24.5509 108.488 21.0062 107.481 18.1482C106.903 16.5093 105.649 15.8279 104.028 15.5284C101.073 14.9825 98.0451 14.7524 95.0779 14.2424C89.3085 13.2507 83.5736 12.0571 77.8896 10.6581C71.6219 9.1152 65.5265 7.02364 59.2959 5.37411C54.7849 4.17998 50.0084 4.07498 46.2234 6.87177C45.2339 2.4817 42.8297 -1.0208 37.0742 0.271778C30.7463 1.69279 24.1798 5.71443 20.2029 10.8292C17.7945 13.9267 15.2722 19.3977 16.6435 23.4406C12.1327 25.5887 7.51975 27.7527 3.26233 30.3252C-0.887269 32.8327 -0.179458 37.0116 0.579916 41.2257C0.976009 43.4239 1.39648 45.8794 2.3614 47.911C2.94312 49.1358 3.76507 49.8537 4.79397 50.3422C6.48076 62.4085 8.32576 74.4392 10.2964 86.464C10.7736 89.3752 11.2508 92.2865 11.7277 95.198C12.1365 97.6924 12.1531 100.85 13.5622 103.024C14.6968 104.775 16.6032 105.386 18.51 105.953C21.6164 106.876 24.7015 107.857 27.7889 108.842C28.3676 109.026 28.849 108.895 29.2027 108.607C29.4514 109.006 29.7603 109.378 30.1542 109.708C31.9472 111.211 34.7245 111.865 36.8963 112.597C38.9564 113.292 42.5013 115.105 44.5418 113.563C44.6426 113.487 44.7345 113.406 44.8202 113.322C48.5597 114.61 52.3172 115.758 56.1443 116.8C60.0743 117.87 64.3017 119.6 68.369 119.97C72.1771 120.316 75.266 117.597 78.2008 115.543C81.5596 113.192 84.8453 110.737 88.0626 108.196C94.5571 103.066 101.155 97.6547 106.811 91.5937C109.512 88.6994 109.064 85.2806 109.031 81.5482C108.989 76.8867 108.9 72.2255 108.77 67.5657C108.484 57.267 107.976 46.9794 107.254 36.7023C108.169 35.9 108.972 35.007 109.373 33.938ZM80.3737 15.0238C87.2528 16.5847 94.1812 17.8213 101.145 19.0119C94.5447 24.5483 87.842 29.9539 81.0768 35.2883C77.5134 38.0982 73.9628 40.9412 70.312 43.6372C68.0083 45.3385 66.2271 45.7791 63.4664 45.1231C61.155 44.5737 58.8597 43.9444 56.5605 43.3473C51.9234 42.1428 47.2851 40.9475 42.6356 39.8152C43.3071 39.3744 43.9849 38.9727 44.5413 38.5815C45.821 37.682 47.1005 36.7822 48.3801 35.8824C48.6626 36.4777 49.008 37.0527 49.4405 37.599C51.3342 39.9922 54.1933 40.7016 57.131 40.2092C64.2002 39.0242 71.1295 33.0294 75.5132 27.6299C77.7684 24.8521 81.2217 19.1614 80.3737 15.0238ZM47.528 33.1904C45.2416 34.7063 42.9518 36.2173 40.6704 37.7403C40.0896 38.1284 39.5086 38.5163 38.9686 38.9382C34.9758 37.9998 30.9724 37.1202 26.9522 36.3345C27.3256 35.9795 27.8063 35.6565 28.4028 35.2815C29.9517 34.3077 31.516 33.3591 33.0368 32.342C35.6749 30.5774 38.3215 28.831 40.9917 27.1166C42.6356 28.4497 45.2175 28.7199 47.2216 28.5481C47.2085 30.1098 47.246 31.6836 47.528 33.1904ZM39.6891 43.303C39.7603 42.7955 39.9659 42.3392 40.2534 41.9197C47.1349 43.5887 53.9808 45.3887 60.7973 47.1392C62.7993 47.6534 64.5656 48.087 66.2913 48.0418C66.3872 52.404 66.2789 56.8796 66.6063 61.2486C65.7647 61.0971 64.9272 60.8253 64.1493 60.6235C61.5199 59.9422 58.8979 59.2339 56.28 58.5094C51.0698 57.068 45.9016 55.4909 40.6711 54.1271C40.6608 54.0247 40.6505 53.9225 40.6402 53.82L40.0699 48.1688C39.9152 46.6351 39.4709 44.8564 39.6891 43.303ZM73.785 14.2262C75.0091 14.3347 76.3003 14.5703 76.6024 15.8612C76.8621 16.9705 76.3593 18.3784 75.9996 19.4321C75.1298 21.9807 73.5574 24.2535 71.7686 26.2419C68.5544 29.8149 64.5297 33.2841 60.1849 35.3891C57.6994 36.5933 54.2967 37.775 52.0205 35.6084C50.0126 33.6976 49.8042 30.6908 49.8162 28.0344C52.0849 27.3217 54.1101 25.9452 55.6045 24.0631C55.9073 25.6067 56.2104 27.1503 56.5137 28.6939C56.798 30.1414 58.9502 29.5147 58.7088 28.0888C58.4306 26.4446 58.1526 24.8005 57.8742 23.1563C59.7811 22.7624 61.7979 22.9239 63.6911 23.2796C64.9786 23.7247 65.5872 21.5837 64.2562 21.2298C62.227 20.69 60.2911 20.6694 58.2907 20.8412C58.0399 20.8346 57.7882 20.8339 57.5362 20.8342C57.825 20.1407 58.0439 19.4225 58.1437 18.7044C58.3022 18.6709 58.4646 18.6207 58.6333 18.5333C63.2367 16.1418 68.4218 13.7502 73.785 14.2262ZM66.7214 11.4353C63.5104 12.2448 60.2704 13.5613 57.577 15.4363C57.5018 15.3067 57.427 15.1768 57.3363 15.0507C57.2189 14.8871 57.0902 14.7292 56.9536 14.5759C59.4351 13.3675 61.9216 12.1215 64.2797 10.6944C65.0936 10.9403 65.9057 11.1941 66.7214 11.4353ZM47.5406 10.097C51.2224 6.90763 56.4199 8.28012 60.589 9.57364C60.7057 9.60973 60.8229 9.64395 60.9396 9.68004C59.0105 10.7861 57.1279 11.9891 55.264 13.1861C53.242 11.9298 50.5615 11.3347 48.4732 11.6282C47.8887 11.7104 47.3512 11.867 46.8464 12.073C46.8244 11.5518 46.792 11.0221 46.7489 10.4907C47.0187 10.4352 47.2884 10.3154 47.5406 10.097ZM54.6485 17.2953C54.6853 17.3511 54.7258 17.3994 54.7683 17.443C55.3795 20.211 50.7281 23.9406 48.5332 24.6788C46.6554 25.3105 43.2368 25.8167 42.5395 23.2323C42.1313 21.7199 43.2248 19.2114 44.0527 18.0036C46.4325 14.5311 52.0741 13.3956 54.6485 17.2953ZM23.1523 12.6212C26.1256 9.03434 30.2904 6.51083 34.5935 4.83294C36.952 3.91326 40.3809 2.39427 42.2562 4.8831C43.8689 7.02388 44.7326 10.4132 45.1162 13.0827C44.7103 13.3984 44.329 13.7479 43.9739 14.1301C43.7477 14.2893 43.5267 14.4601 43.3113 14.6418C42.7636 13.461 42.128 12.3238 41.3407 11.2794C40.477 10.1336 38.7834 11.0828 39.4031 12.4119C39.9556 13.5967 40.4356 14.7913 40.8368 16.0222C39.5187 16.1441 38.1954 16.3832 36.9026 16.5758C35.2479 16.8224 35.9177 19.4563 37.6059 19.1272C38.527 18.9477 39.4638 18.8075 40.3959 18.6498C39.7526 20.0889 39.2993 21.7459 39.3197 23.2857C34.1754 24.8286 29.1253 25.9981 23.7228 24.8671C17.0154 23.4634 20.1275 16.2702 23.1523 12.6212ZM8.14365 31.3363C11.3225 29.3298 14.51 27.343 17.7078 25.3693C18.173 25.9374 18.7618 26.4495 19.4944 26.8876C22.3053 28.5681 26.4094 28.7239 29.5915 28.7C31.2314 28.6876 32.8988 28.5479 34.5427 28.2702C33.7106 28.7333 32.8803 29.1985 32.0459 29.6584C29.5451 31.0367 26.3867 32.3518 24.3265 34.3604C23.9091 34.7675 23.6089 35.2046 23.393 35.6649C17.3234 34.5699 11.2102 33.7163 5.03233 33.2192C6.02045 32.45 7.30459 31.8659 8.14365 31.3363ZM4.40421 41.1521C4.04819 39.4726 3.29819 37.1567 3.60429 35.3713C10.073 35.9485 16.4996 36.9116 22.8903 38.1216C22.8748 38.7575 22.9137 39.4126 22.9533 40.0756C23.1711 43.7101 23.4277 47.3429 23.6778 50.9752C19.9191 50.3253 16.1799 49.5737 12.4707 48.6816C10.9871 48.3249 7.55584 47.9893 6.35514 46.9515C5.06561 45.8375 4.74171 42.7442 4.40421 41.1521ZM20.8742 103.148C19.8186 102.796 18.2393 102.526 17.3396 101.828C16.0735 100.846 16.0273 99.2667 15.7643 97.8436C14.757 92.392 13.7841 86.9339 12.7941 81.4793C10.9468 71.3028 8.95834 61.1632 6.87662 51.0343C12.3598 52.3911 17.9044 53.521 23.4828 54.4048C23.6386 54.4294 23.7863 54.4304 23.9288 54.4196C24.8426 67.2038 25.969 79.9718 27.1071 92.7377C27.4135 96.1748 27.7329 99.6108 28.0505 103.047C28.1241 103.843 28.1646 104.673 28.26 105.488C25.7939 104.72 23.3239 103.965 20.8742 103.148ZM42.3253 110.881C41.8927 111.09 39.9809 110.172 39.582 110.041C37.3732 109.317 33.574 108.596 32.1511 106.71C31.2617 105.53 31.3676 103.448 31.2124 102.016C31.0261 100.298 30.8428 98.5802 30.661 96.862C29.3513 84.4948 28.2249 72.1149 27.2944 59.7132C26.7807 52.8652 25.9962 45.9118 25.9681 39.0416C25.9676 38.9309 25.9707 38.8266 25.9746 38.7237C29.6763 39.4693 33.3661 40.2873 37.0453 41.1535C36.8927 41.4594 36.758 41.78 36.6682 42.1379C36.0656 44.5379 36.7207 47.299 36.9628 49.7101C37.2895 52.9639 37.6163 56.2175 37.9427 59.4713C39.1795 71.791 40.4332 84.1085 41.704 96.4247C42.0002 99.2948 42.281 102.168 42.4802 105.046C42.585 106.563 42.7144 108.1 42.7214 109.621C42.7242 110.319 42.9103 110.599 42.3253 110.881ZM68.6927 116.379C68.2296 116.392 67.743 116.354 67.2204 116.251C64.6164 115.736 62.0397 115.016 59.4609 114.389C54.8876 113.277 50.3393 112.237 45.7181 111.41C45.8641 110.487 45.7814 109.483 45.7514 108.603C45.6305 105.043 45.3499 101.491 45.0267 97.9446C44.404 91.1095 43.7145 84.2806 43.0254 77.452C42.3373 70.6329 41.6491 63.8138 40.961 56.9947C45.993 58.9779 51.1455 60.6181 56.3198 62.1989C59.5425 63.1833 63.5069 65.0131 67.1866 65.1511C68.1023 82.2349 68.8997 99.2634 68.6927 116.379ZM105.122 87.3905C104.728 88.6859 103.442 89.6634 102.523 90.5805C100.735 92.3648 98.9141 94.1163 97.0614 95.8331C89.7599 102.599 81.921 108.772 73.6528 114.315C72.981 114.766 72.3475 115.176 71.7128 115.511C72.2793 98.7466 71.6679 81.7936 69.1003 65.2102C69.1783 65.1565 69.2524 65.0961 69.3168 65.022C69.8974 64.9186 70.465 64.7583 71.0144 64.5244C81.1563 60.2028 89.6256 51.4355 97.9204 44.434C99.8856 42.7751 101.851 41.1162 103.816 39.4573C104.367 48.9917 104.775 58.5354 104.993 68.0829C105.119 73.6064 105.171 79.1306 105.204 84.6553C105.209 85.4744 105.368 86.5788 105.122 87.3905ZM105.921 32.0469C105.598 33.9362 102.219 35.9216 100.861 37.0796C98.8764 38.7718 96.8915 40.4637 94.9068 42.1559C87.6585 48.3354 80.5141 54.7484 72.2111 59.5046C71.3899 59.975 70.4901 60.5679 69.5681 60.9565C69.3661 56.555 68.7271 52.1 68.3236 47.7383C69.1877 47.4924 70.0607 47.0895 70.9675 46.468C74.8539 43.8041 78.5385 40.7616 82.2569 37.869C89.578 32.1739 96.718 26.2372 103.77 20.2119C103.8 20.3839 103.831 20.5909 103.879 20.8468C104.105 22.0421 104.357 23.2332 104.595 24.4262C104.834 25.6194 105.081 26.8114 105.298 28.0088C105.509 29.1688 106.123 30.8609 105.921 32.0469Z" fill="#1CFFBB"/>
</svg>
