<svg xmlns="http://www.w3.org/2000/svg" xmlns:xlink="http://www.w3.org/1999/xlink" viewBox="0 0 110 110.06"><defs><style>.cls-1{mask:url(#mask);filter:url(#luminosity-noclip-3);}.cls-2,.cls-4{mix-blend-mode:multiply;}.cls-2{fill:url(#radial-gradient);}.cls-3{mask:url(#mask-2);filter:url(#luminosity-noclip-4);}.cls-4{fill:url(#radial-gradient-2);}.cls-5{isolation:isolate;}.cls-6{fill:#4fdbc3;}.cls-7{fill:#4fcdc0;}.cls-8{fill:#3faeb4;}.cls-9{fill:#20968f;}.cls-10{fill:#75e33c;}.cls-11{fill:#43fac8;}.cls-12{fill:#4ab70e;}.cls-13{mask:url(#mask-3);}.cls-14{mix-blend-mode:color-dodge;fill:url(#_ÂÁ_Ï_ÌÌ_È_ËÂÌÚ_893);}.cls-15{fill:#69d824;}.cls-16{fill:#7abd24;}.cls-17{fill:#88e33d;}.cls-18{fill:#69bf24;}.cls-19{fill:#3c8e31;opacity:0.5;}.cls-20{fill:#69d224;}.cls-21{fill:#69b024;}.cls-22{fill:#7feddc;}.cls-23,.cls-24{fill:#fff;}.cls-23{opacity:0.15;}.cls-24{opacity:0.24;mix-blend-mode:screen;}.cls-25{mask:url(#mask-4);}.cls-26{opacity:0.57;fill:url(#_ÂÁ_Ï_ÌÌ_È_ËÂÌÚ_892);}.cls-27{filter:url(#luminosity-noclip-2);}.cls-28{filter:url(#luminosity-noclip);}</style><filter id="luminosity-noclip" x="4.23" y="-8390.37" width="89.39" height="32766" filterUnits="userSpaceOnUse" color-interpolation-filters="sRGB"><feFlood flood-color="#fff" result="bg"/><feBlend in="SourceGraphic" in2="bg"/></filter><mask id="mask" x="4.23" y="-8390.37" width="89.39" height="32766" maskUnits="userSpaceOnUse"><g class="cls-28"/></mask><radialGradient id="radial-gradient" cx="39.55" cy="17.33" r="36.3" gradientTransform="matrix(0.94, 0.4, -0.35, 1.06, 18.52, 5.96)" gradientUnits="userSpaceOnUse"><stop offset="0.63" stop-color="#fff"/><stop offset="0.69" stop-color="#fcfcfc"/><stop offset="0.75" stop-color="#f1f1f1"/><stop offset="0.8" stop-color="#dfdfdf"/><stop offset="0.85" stop-color="#c6c6c6"/><stop offset="0.9" stop-color="#a6a6a6"/><stop offset="0.95" stop-color="#7f7f7f"/><stop offset="1" stop-color="#515151"/><stop offset="1" stop-color="#4d4d4d"/></radialGradient><filter id="luminosity-noclip-2" x="6.36" y="-8390.37" width="65.43" height="32766" filterUnits="userSpaceOnUse" color-interpolation-filters="sRGB"><feFlood flood-color="#fff" result="bg"/><feBlend in="SourceGraphic" in2="bg"/></filter><mask id="mask-2" x="6.36" y="-8390.37" width="65.43" height="32766" maskUnits="userSpaceOnUse"><g class="cls-27"/></mask><radialGradient id="radial-gradient-2" cx="-210.28" cy="225.74" r="60.73" gradientTransform="matrix(0.03, -0.87, 0.9, -0.16, -171.47, -121.42)" gradientUnits="userSpaceOnUse"><stop offset="0.23" stop-color="#f4f4f4"/><stop offset="0.67" stop-color="#515151"/><stop offset="1"/></radialGradient><filter id="luminosity-noclip-3" x="4.23" y="2.69" width="89.39" height="77.99" filterUnits="userSpaceOnUse" color-interpolation-filters="sRGB"><feFlood flood-color="#fff" result="bg"/><feBlend in="SourceGraphic" in2="bg"/></filter><mask id="mask-3" x="4.23" y="2.69" width="89.39" height="77.99" maskUnits="userSpaceOnUse"><g class="cls-1"><ellipse class="cls-2" cx="48.93" cy="41.68" rx="45.55" ry="37.97" transform="translate(-11.52 19.84) rotate(-20.56)"/></g></mask><radialGradient id="_ÂÁ_Ï_ÌÌ_È_ËÂÌÚ_893" cx="39.55" cy="17.33" r="36.3" gradientTransform="matrix(0.94, 0.4, -0.35, 1.06, 18.52, 5.96)" gradientUnits="userSpaceOnUse"><stop offset="0.63"/><stop offset="0.97"/><stop offset="1"/></radialGradient><filter id="luminosity-noclip-4" x="6.36" y="6.53" width="65.43" height="64.78" filterUnits="userSpaceOnUse" color-interpolation-filters="sRGB"><feFlood flood-color="#fff" result="bg"/><feBlend in="SourceGraphic" in2="bg"/></filter><mask id="mask-4" x="6.36" y="6.53" width="65.43" height="64.78" maskUnits="userSpaceOnUse"><g class="cls-3"><path class="cls-4" d="M19.13,18.15c13.87-13.33,36-15.92,47.66-4s1.06,22.7-12.21,39.18C43.69,66.89,25,78.21,13.34,66.27S5.26,31.48,19.13,18.15Z"/></g></mask><radialGradient id="_ÂÁ_Ï_ÌÌ_È_ËÂÌÚ_892" cx="-210.28" cy="225.74" r="60.73" gradientTransform="matrix(0.03, -0.87, 0.9, -0.16, -171.47, -121.42)" gradientUnits="userSpaceOnUse"><stop offset="0.23" stop-color="#fff"/><stop offset="0.67" stop-color="#f7ebc2"/><stop offset="1" stop-color="#f3f9f7"/></radialGradient></defs><g class="cls-5"><g id="Layer_2" data-name="Layer 2"><g id="Layer_1-2" data-name="Layer 1"><circle class="cls-6" cx="55" cy="55" r="55"/><path class="cls-7" d="M13.53,19a45.4,45.4,0,1,1-2.92,3.66A55.1,55.1,0,1,0,13.53,19Z"/><path class="cls-8" d="M92.44,14.81c-.25-.23-.34,0-.59-.23a57.19,57.19,0,0,1-6.73,69.08A57.46,57.46,0,0,1,18.48,96.07,54.8,54.8,0,0,0,54.7,109.93l1.67,0,.72,0A54.93,54.93,0,0,0,92.44,14.81Z"/><path class="cls-9" d="M72.46,98.06a1.17,1.17,0,0,1,1-.51c.27-.3.54-.6.79-.91a22.61,22.61,0,0,0,4.25-7.84A15.38,15.38,0,0,0,68.3,77.89a7.64,7.64,0,0,0-4.77-.15,3.9,3.9,0,0,0-2.71,3.63c.09,1.62,1.92,3,3.4,2.37a12.94,12.94,0,0,1-13,6c-.67.63-.39,1.75.11,2.52a5.52,5.52,0,0,1,1.26,2.4,2.62,2.62,0,0,1-2.53,2.44,7.63,7.63,0,0,1-3.71-1,11,11,0,0,1,.54,12.74l.26,0a1.36,1.36,0,0,1,.8-.25,11.55,11.55,0,0,0,5.84-1.5,1.38,1.38,0,0,1,2,.63l1.35-.35a1.47,1.47,0,0,1,1.28-1C63.55,105.91,69.34,102.05,72.46,98.06Z"/><path class="cls-10" d="M72.65,6.46a13.11,13.11,0,0,0-6.19-.39c-1.51.26-3.18,1-3.49,2.51s.88,2.8,2.24,3.33a14.06,14.06,0,0,0,4.31.57,18.5,18.5,0,0,1,13.3,7.18c.86,1.14,1.79,2.51,3.22,2.63,1.87.15,3.16-2.18,2.69-4s-2-3.12-3.53-4.23C80.42,10.52,78.33,8.22,72.65,6.46Z"/><path class="cls-9" d="M68.54,13.06c3.89.42,8.1,1,10.87,3.74A30.75,30.75,0,0,1,81.9,20a7.55,7.55,0,0,0,3,2.56,3.45,3.45,0,0,0,3.74-.64,2.26,2.26,0,0,0-.48-3.43c-.28,1.53-2.39,2.06-3.8,1.4s-2.34-2-3.36-3.21a17.53,17.53,0,0,0-16.74-5.53C65.07,12.55,66.93,12.89,68.54,13.06Z"/><ellipse class="cls-11" cx="49.77" cy="44.43" rx="27.86" ry="22.01" transform="translate(-15.53 30.78) rotate(-29.95)"/><path class="cls-9" d="M55.5,24a5,5,0,0,1,2.75-3,10.72,10.72,0,0,0,3.44-2.37c.87-1.11,1-3-.17-3.75A4.86,4.86,0,0,1,62.7,23c-.92.79-2.11,1.23-3,2s-1.42,2.33-.61,3.23a8.5,8.5,0,0,0,1.25.88c1.31,1,1.33,2.91,1.35,4.55s.4,3.63,1.95,4.2A4.74,4.74,0,0,1,59,34.36c-.25-1.06-1.28-2.44-1.56-3.49C56.75,28.3,54.94,26.59,55.5,24Z"/><path class="cls-9" d="M80.94,74.65c.94-1,2.58-.57,4-.62,3.68-.14,5.88-4,7.36-7.41l5.13-11.76a1.22,1.22,0,0,1,2.31.7,27.06,27.06,0,0,1-6.56,13.37A4.09,4.09,0,0,0,92,71c-.43,2.94,2.84,3.39,4.49,2.07l0,0a1.56,1.56,0,0,1,2.59,1.06l.06,1.06a38.7,38.7,0,0,0,6.32-11.26,1.59,1.59,0,0,1,3.06.79,43.44,43.44,0,0,1-1.81,7.4C104.87,77.92,102.12,83.54,98,88S88.1,95.68,82,96s-12.48-2.48-15.59-7.73c-1.53-2.57-2.22-5.83-1-8.58s4.56-4.6,7.32-3.43c1.22.52,2.16,1.51,3.33,2.14s2.82.75,3.63-.28S80.08,75.58,80.94,74.65Z"/><path class="cls-9" d="M15.75,60.36A26.8,26.8,0,0,0,26.8,81.1C30,83.41,34.16,85.47,35,89.36c.26,1.22.17,2.6.95,3.58a5,5,0,0,0,3.16,1.4c3.6.63,7.8,1.09,10.42-1.44,1.12-1.08,1.82-2.62,3.19-3.34,1.89-1,4.73-.28,5.73-2.3a2.73,2.73,0,0,0,0-2.17c-.84-2.15-3.19-3.07-4.28-5A6.1,6.1,0,0,1,54.72,74a10.63,10.63,0,0,1,1.55-1.86A2.71,2.71,0,0,0,55,67.48a10,10,0,0,0-6.48,1c-2.07,1.13-4,3.09-6.47,2.31a4.27,4.27,0,0,1-2.82-3.7c-.33-2.93,1.48-5.37,3.46-7.34-3.58,1.73-8.21,3.81-12.12,4.51s-8.21.23-11.39-2.15C17.59,60.91,17.66,60.71,15.75,60.36Z"/><path class="cls-9" d="M86.38,49.92c-2.74,2.11-6.56,1.81-10,1.5-7.95-.71-16.18-.91-23.66,1.87s-14.09,9.15-15,17.07c.11-7.72,5.59-14.68,12.49-18.17S64.06,48,71.75,48.83c3.38.36,8.1,1.13,11.1-.46a9.63,9.63,0,0,0,4.59-6.43,18.06,18.06,0,0,0-.3-8.07,26.87,26.87,0,0,1,2.29,8.31C89.59,45.06,88.66,48.16,86.38,49.92Z"/><path class="cls-12" d="M61.16,80.43l0,0-.35-.14C61,80.4,61.1,80.57,61.16,80.43Z"/><path class="cls-12" d="M36.93,95.31A34,34,0,0,0,29,92c-1.3.34-2.36-1.22-2.31-2.55s.73-2.58.85-3.91-.72-3-2.05-2.84c-1,.1-1.63,1.11-1.95,2.06a5.8,5.8,0,0,1-1.28,2.66,2.94,2.94,0,0,1-3.57-.1,7,7,0,0,1-2.11-3.17A16.12,16.12,0,0,0,15,80.67a6.12,6.12,0,0,0-4.8-2.5c-.92,0-2.58,1.32-3.83,2.45a55.2,55.2,0,0,0,29.55,25.91l.46.17c.53.19,1.06.36,1.6.54s1.25.39,1.88.57l.57.16c.91.25,1.84.48,2.77.68.5-2.1.69-4.86.08-6.48A14,14,0,0,0,36.93,95.31Z"/><path class="cls-12" d="M17.84,27a9.28,9.28,0,0,0-1.24,3.34,3.18,3.18,0,0,0,1.78,2.91c.77.38.35,1.47-.09,2.21a2.21,2.21,0,0,1-2.2,1c-3.37,11.47-1.78,24.81,5,34.69A41.23,41.23,0,0,0,51,88.72c.79.07,2.54.8,3.68-.8a1.44,1.44,0,0,1-1.5-1.23,5.33,5.33,0,0,1,.16-2.13,13.24,13.24,0,0,0,.13-4.12A3.49,3.49,0,0,0,53.05,79a1.51,1.51,0,0,0-1.28-.78c-.8,0-1.31.8-1.76,1.46s-1,1.72-1.73,1.46A2.51,2.51,0,0,1,45.47,77c.59-.5,1.44-.75,1.79-1.44A1.87,1.87,0,0,0,46,73.13a4.69,4.69,0,0,0-3.05.09,3.06,3.06,0,0,1-3.39-1.52A6.58,6.58,0,0,1,39,67.8c.59-6.87,5.63-12.81,11.8-15.89S64.09,48.27,71,48.77a56.33,56.33,0,0,0,8.7.34c2.9-.25,6.33-.77,7.57-3.4,2.45-5.14,2.1-11.66-1.38-16.17s-10.13-6.48-15.29-4.06a7.26,7.26,0,0,0-3.9,3.82c-.61,1.64-.38,3.47-.84,5.15s-2.16,3.33-3.77,2.66c-1.17-.49-1.6-1.92-1.72-3.18s-.1-2.64-.87-3.65a10.28,10.28,0,0,0-2.11-1.7,2.36,2.36,0,0,1-1.09-2.32c.24-.89,1.22-1.31,2-1.76a8.14,8.14,0,0,0,3.92-8.29A5.1,5.1,0,0,0,60,12.64c-2.27-1.37-5.12,0-7.59.94A25.59,25.59,0,0,1,26.2,8.21a55.18,55.18,0,0,0-10.12,8A9.73,9.73,0,0,1,17.84,27Z"/><path class="cls-12" d="M60.69,80.21l.14.06C60.74,80.17,60.67,80.1,60.69,80.21Z"/><path class="cls-12" d="M93.61,15.86a12.14,12.14,0,0,0-1.07,1.67,4.05,4.05,0,0,0-.76,2.83c.42,1.65,2.51,2,4,2.76,4.14,1.93,5.55,7.75,9.5,9.68A55,55,0,0,0,93.61,15.86Z"/><path class="cls-12" d="M49,109.6a55,55,0,0,0,57-33.76,4.12,4.12,0,0,0-1-.46,4.8,4.8,0,0,0-4.62,1.12,19.28,19.28,0,0,0-1.71,2.22,3.73,3.73,0,0,1-2.26,1.55,1.75,1.75,0,0,1-2-1.45c-3-.6-6.38-1.78-9.38-2.38a4.81,4.81,0,0,0-2.86,0C80,77.37,79.7,80.89,76.46,80A5.73,5.73,0,0,1,74,78.47c-1.94-2-4.88-2-7.34-1.19a14.74,14.74,0,0,0-2.83,1.36,2.21,2.21,0,0,0-.57,3.2l0,0a1.78,1.78,0,0,1-.57,2.63c-.38.94-1.31,1-2.31,1.17a11,11,0,0,0-3,.59,6.47,6.47,0,0,0-2.16,2,20.18,20.18,0,0,0-1.58,2.21c-1,.51-.72.72-.33,1.73s.92,2.18.36,3.11a2.57,2.57,0,0,1-2.64.89c-1.16-.16-2.31-.65-3.49-.25a1.61,1.61,0,0,0-1.19,1.7c.15.93,1.17,1.29,1.92,1.81,2.1,1.43,2.29,4.49,1.66,7C49.69,107.51,49.31,108.55,49,109.6Z"/><g class="cls-13"><ellipse class="cls-14" cx="48.93" cy="41.68" rx="45.55" ry="37.97" transform="translate(-11.52 19.84) rotate(-20.56)"/></g><path class="cls-11" d="M82.54,55.4c-1.83-.52-3.64.71-5.14,1.87L65.59,66.38c-1.43,1.11-3,2.76-2.36,4.44.46,1.17,1.83,1.67,3.07,1.9a16.41,16.41,0,0,0,18.13-10,7.89,7.89,0,0,0,.67-4.19A3.91,3.91,0,0,0,82.54,55.4Z"/><path class="cls-15" d="M68.76,33.84c-.54,2-3,3.43-2.7,5.5.22,1.81,2.3,2.66,4,3.28a36.49,36.49,0,0,1,8,4.1c2.35,1.34,5.54.09,7-2.15s1.68-5.14,1.34-7.82-1.14-5.2-3.1-6.87A8.39,8.39,0,0,0,81,28.47l-.24-.1c-1.66.26-3.49,1.18-4.72-1.26l-.25-.05a9.52,9.52,0,0,0-3-.12A4.45,4.45,0,0,0,69,29.88C68.63,31.16,69.1,32.56,68.76,33.84Z"/><path class="cls-15" d="M37,73.7a11.35,11.35,0,0,1,1.07-11.46c-1.52-.54-3.08.85-3.78,2.31-1,2.08-1.25,4.66-4.24,5.33a1,1,0,0,1-.73-.15c-1.85-1.31-1.09-2.7-.21-3.67,2-2.19,4.84-3.38,7.4-4.87s5.11-3.61,5.66-6.53a38.17,38.17,0,0,1-9,5.9c-3.34,1.37-7.27,1.72-10.49.11a7.85,7.85,0,0,0-2.95-1.19,2,2,0,0,0-1.74.88c-.62.92.39,2.89.67,3.49,2.87,6.29,6.87,10,12.51,15.22,3.53,3.23,9.67,6.65,15,4.47a.9.9,0,0,0-.33-1.74C39.93,81.68,36.92,72.29,37,73.7Z"/><path class="cls-10" d="M60,45a14.49,14.49,0,0,0-1.36,1.24,1.69,1.69,0,0,0-.38,1.7,37.8,37.8,0,0,1,13.85-.87,2.31,2.31,0,0,0,1.08,0,.77.77,0,0,0,.54-.83c-.09-.34-.46-.52-.8-.62-1.82-.59-3.78-.59-5.64-1S63.54,43,63,41.14a6,6,0,0,0-.58-1.89c-.37-.55-1.33-.77-1.65-.19A4.9,4.9,0,0,1,60,45Z"/><path class="cls-16" d="M11.16,85.21c2.32-.49,4.17,1.74,5.82,3.43,5.88,6,15.19,7.17,22,12.15.8.59,1.64,1.44,1.43,2.4a1.83,1.83,0,0,1-1.65,1.3,4.86,4.86,0,0,1-2.18-.4c-8.46-3-15.72-8.53-22.82-14C12.17,88.87,10.41,87,11.16,85.21Z"/><path class="cls-17" d="M52.48,45.42c2.41-2.2,2-6.1,1-9.21s-2.35-6.49-1.14-9.53c1.08-2.68,4.09-5.1,3-7.8a4.13,4.13,0,0,0-4-2.26A13.18,13.18,0,0,0,46.67,18a25.25,25.25,0,0,1-8.34,2.31,10.14,10.14,0,0,1-7.95-2.81c-1.12-1.2-1.83-2.73-2.95-3.93s-2.94-2-4.4-1.27a3.57,3.57,0,0,0-1.67,3.28,14.57,14.57,0,0,0,.84,3.77,26.91,26.91,0,0,1-2.33,20.54c-2.21,3.93-5.55,8.18-4,12.42,1.24,3.41,5.38,5,9,4.59s6.79-2.5,9.8-4.54,6.12-4.15,9.69-4.8C47.13,47,50.37,47.35,52.48,45.42Z"/><path class="cls-18" d="M88.58,81.16c-5.3-2-10.75,5.33-16.09,3.46-1.57-.55-3-1.87-4.63-1.63-1.45.21-2.45,1.61-2.9,3s-.51,2.92-1.06,4.28c-.83,2.07-2.62,3.57-4.39,4.92s-3.64,2.7-4.72,4.65-1.11,4.68.57,6.14c10.88-.78,22.08-3,30.85-9.53,2.55-1.89,5-4.27,5.78-7.33S91.56,82.26,88.58,81.16Z"/><path class="cls-19" d="M49,109.72a55,55,0,0,0,56.57-32.86,4.74,4.74,0,0,0-4.62.1c-.88.58-1.54,1.51-2.46,2a3.59,3.59,0,0,1-2.15,1.42,1.92,1.92,0,0,1-1.83-.82c-2.76.67-4.87,3.07-6.89,5.16a52.92,52.92,0,0,1-38.24,16,7.51,7.51,0,0,1,.62,5.87C49.69,107.63,49.31,108.67,49,109.72Z"/><path class="cls-11" d="M89.94,61.81a19,19,0,0,0,6-11,38.67,38.67,0,0,0-.1-12.7c-.23-1.56-.5-3.1-.8-4.64-.21-1.13-.61-2.47-1.78-2.73A2,2,0,0,0,91,32.08c-.55,1.38,0,2.8.31,4.17a19.36,19.36,0,0,1-2.65,15.14,8.73,8.73,0,0,0-1.38,5.4,3.84,3.84,0,0,1,0,.48,20.06,20.06,0,0,0-.39,3.16c.09,1.06,1,2.19,2,2A2.46,2.46,0,0,0,89.94,61.81Z"/><path class="cls-15" d="M77.21,36a14,14,0,0,0-3.07-6.77,2.42,2.42,0,0,0-1.35-1c-1-.18-1.86.82-2,1.82A8,8,0,0,0,71.33,33,3.46,3.46,0,0,1,71.07,36c-.47.63-1.32,1-1.55,1.75a1.72,1.72,0,0,0,.79,1.83,5,5,0,0,0,2,.66c1.4.25,3,.45,4.08-.52S77.41,37.3,77.21,36Z"/><path class="cls-20" d="M26.18,74.2a17,17,0,0,0,3.37,4,13.67,13.67,0,0,0,6.58,2.48c.71.11,1.64.08,1.91-.59a1.17,1.17,0,0,0-.44-1.26,4,4,0,0,0-1.29-.59,15.54,15.54,0,0,1-7.93-6c-1.13-1.67-1.93-3.54-3.1-5.17a7.21,7.21,0,0,0-4.83-3.28c-.33,1.34.48,2.67,1.26,3.81Z"/><path class="cls-21" d="M73.86,92.21l1.23.54a4.21,4.21,0,0,1-2.36,1.52L60,98.78c2-1.64,4.13-3.35,5.27-5.7.71-1.48,1.06-3.21,2.26-4.33a3.8,3.8,0,0,1,6.32,3.46Z"/><path class="cls-9" d="M52.35,64.33a14.66,14.66,0,0,1-5.51,2.8c-.92.22-2.22.33-2.45-.59A1.84,1.84,0,0,1,45,65.05l.29-.34c3-3.44-1.27-1.09-1.5-1.38-.59-.73,5.05-8.16,14.7-9.87,1.92-.34,4.06-.44,5.64.7a24.18,24.18,0,0,0-12,3.33,7.89,7.89,0,0,0-2.4,2,3.45,3.45,0,0,0-.43.71,1,1,0,0,0,1.43,1.3c2.35-1.3,6.72-5,7-3.9.07.4,5-1,.23,1.18A11.93,11.93,0,0,0,52.35,64.33Z"/><path class="cls-15" d="M81.06,34.84a.78.78,0,0,0,.35-.62c0-.39-.37-.7-.4-1.09s.4-.83.74-1.16.61-.92.27-1.25a1.89,1.89,0,0,0-2.28,0,2.79,2.79,0,0,0-1,2.17,2.29,2.29,0,0,0,.6,1.72A1.36,1.36,0,0,0,81.06,34.84Z"/><path class="cls-9" d="M90.73,22.47A6.49,6.49,0,0,1,85,24.19c0,.12-.44.21-.43.32a1.31,1.31,0,0,0,1.26.47,2,2,0,0,1,1.37.21c.46.36.46,1,.7,1.56.63,1.39,2.85,1.51,3.4,2.94-.33-1.24-.65-2.47-1-3.7a2,2,0,0,1,0-1.5c.19-.33.55-.52.78-.82A1,1,0,0,0,90.73,22.47Z"/><path class="cls-22" d="M5.86,43.54a41.85,41.85,0,0,1,.62-5.12.6.6,0,0,0-1.16-.3A56.88,56.88,0,0,0,2.37,55,17.63,17.63,0,0,0,3,60.63a1.09,1.09,0,0,0,2.14-.36,65.37,65.37,0,0,1,.54-10.65A36.75,36.75,0,0,0,16.93,77.87c-3.63-9.15-7.1-18.52-8-28.32-.75-8.13.43-16.69,4.37-23.76a.47.47,0,0,0-.78-.51A29.53,29.53,0,0,0,5.86,43.54Z"/><path class="cls-19" d="M43.21,108.78a8.78,8.78,0,0,0,.59-3.91,7.68,7.68,0,0,0-1.07-2.28,12.68,12.68,0,0,0-5.84-4.28c-2.27-.93-4.67-1.49-7-2.29A36,36,0,0,1,12,82.26a16.79,16.79,0,0,0-2.26-3,3.41,3.41,0,0,0-.91-.52,6.47,6.47,0,0,0-2.44,1.84A53.6,53.6,0,0,0,43.21,108.78Z"/><path class="cls-15" d="M27.93,40.45a16.67,16.67,0,0,0,.46-3.12,2.63,2.63,0,0,0-1.58-2.49,2.66,2.66,0,0,0-2.87,1.6,19.39,19.39,0,0,0-1,3.41c-1.07,3.48-4.42,6.36-4,10A5.31,5.31,0,0,0,25.2,54.2c2.76-.67,4.43-3.4,6.74-5.05a8.11,8.11,0,0,0,1.63-1.27A1.8,1.8,0,0,0,34,46c-.93-1.2-2.89-.55-4.29-1.14C28.1,44.16,27.67,42.12,27.93,40.45Z"/><path class="cls-15" d="M43.93,34.54a8.34,8.34,0,0,1,2.89-3.22,10.85,10.85,0,0,0,3.07-3.08,3.32,3.32,0,0,0-.43-4,4,4,0,0,0-2.81-.69,11.39,11.39,0,0,0-6.12,2.18c-1.46,1.07-2.65,2.48-4.12,3.56a5.76,5.76,0,0,1-5.09,1.2A9.68,9.68,0,0,0,29,29.59c-.85-.05-1.8.81-1.38,1.55a6.56,6.56,0,0,1,2.79,6.44,13.13,13.13,0,0,0-.51,3c.06,1,.82,2.07,1.82,2a4.68,4.68,0,0,1,.49-2.78,1.61,1.61,0,0,1,2.45-.36,2.87,2.87,0,0,1,.4,1.33,6.3,6.3,0,0,0,3.38,4.55,4.06,4.06,0,0,0,3.77.09c1.65-1,1.94-3.23,1.74-5.13S43.21,36.31,43.93,34.54Z"/><path class="cls-23" d="M0,55A54.72,54.72,0,0,0,5.05,78c19.65,5.08,39.76-1.41,54.66-17.21,15.34-16.26,20.91-38,13.68-57.56A55,55,0,0,0,0,55Z"/><path class="cls-24" d="M27.49,102.52c-.49-.26-1-.54-1.44-.81A54.94,54.94,0,1,0,35.72,3.54,54.52,54.52,0,0,1,78.88,7a53.88,53.88,0,0,1,22.33,73.22A54.73,54.73,0,0,1,27.49,102.52Z"/><g class="cls-25"><path class="cls-26" d="M19.13,18.15c13.87-13.33,36-15.92,47.66-4s1.06,22.7-12.21,39.18C43.69,66.89,25,78.21,13.34,66.27S5.26,31.48,19.13,18.15Z"/></g></g></g></g></svg>