<svg width="24" height="24" viewBox="0 0 24 24" fill="none" xmlns="http://www.w3.org/2000/svg">
<g clip-path="url(#clip0)">
<path fill-rule="evenodd" clip-rule="evenodd" d="M18.3839 22.7789C18.7059 23.0069 19.1209 23.0639 19.4909 22.9239C19.8609 22.7829 20.1329 22.4669 20.2149 22.0839C21.0839 17.9999 23.1919 7.6629 23.9829 3.9479C24.0429 3.6679 23.9429 3.3769 23.7229 3.1899C23.5029 3.0029 23.1979 2.9489 22.9259 3.0499C18.7329 4.6019 5.81991 9.4469 0.54191 11.3999C0.20691 11.5239 -0.0110904 11.8459 -9.04275e-05 12.1989C0.0119096 12.5529 0.24991 12.8599 0.59291 12.9629C2.95991 13.6709 6.06691 14.6559 6.06691 14.6559C6.06691 14.6559 7.51891 19.0409 8.27591 21.2709C8.37091 21.5509 8.58991 21.7709 8.87891 21.8469C9.16691 21.9219 9.47491 21.8429 9.68991 21.6399C10.9059 20.4919 12.7859 18.7169 12.7859 18.7169C12.7859 18.7169 16.3579 21.3359 18.3839 22.7789V22.7789ZM7.37391 14.1019L9.05291 19.6399L9.42591 16.1329C9.42591 16.1329 15.9129 10.2819 19.6109 6.9469C19.7189 6.8489 19.7339 6.6849 19.6439 6.5699C19.5549 6.4549 19.3909 6.4279 19.2679 6.5059C14.9819 9.2429 7.37391 14.1019 7.37391 14.1019Z" fill="#1890FF"/>
</g>
<defs>
<clipPath id="clip0">
<rect width="24" height="24" fill="white"/>
</clipPath>
</defs>
</svg>
