<svg id="Layer_1" data-name="Layer 1" xmlns="http://www.w3.org/2000/svg" viewBox="0 0 47.58 66.07"><defs><style>.cls-1{fill:#479c57;}.cls-2{fill:#397d46;}.cls-3{fill:#007ab9;}.cls-4{fill:#007ab4;}.cls-5{fill:#fff;}</style></defs><title>Icon IN-01</title><path class="cls-1" d="M20.79,9.21c3.95,3.95,3.29,11,3.29,11s-7.06.65-11-3.29-3.29-11-3.29-11S16.84,5.26,20.79,9.21Z"/><path class="cls-2" d="M27.37,9.21c-3.95,3.95-3.29,11-3.29,11s7.06.65,11-3.29,3.29-11,3.29-11S31.32,5.26,27.37,9.21Z"/><path class="cls-2" d="M24.08,20.22s-5.46-4.53-5.46-10.11S24.08,0,24.08,0Z"/><path class="cls-1" d="M24.08,0s5.45,4.53,5.45,10.11-5.45,10.11-5.45,10.11Z"/><path class="cls-3" d="M24.08,65.84C12.27,65.84.58,48.24.58,35.26S11.1,18.84,24.08,18.84Z"/><path class="cls-4" d="M24.08,18.84c13,0,23.5,3.44,23.5,16.42S35.89,65.84,24.08,65.84Z"/><path class="cls-5" d="M37.12,44.82v7.91a.36.36,0,0,1-.36.36H32.68a.36.36,0,0,1-.36-.36h0V45.38c0-1.94-.69-3.26-2.42-3.26a2.62,2.62,0,0,0-2.46,1.75A3.33,3.33,0,0,0,27.28,45v7.69a.37.37,0,0,1-.35.36H22.84a.37.37,0,0,1-.35-.36c0-2,.05-11.46,0-13.7a.34.34,0,0,1,.32-.36h4.11a.37.37,0,0,1,.35.36v1.69h0a4.76,4.76,0,0,1,4.32-2.39c3.15,0,5.52,2.07,5.52,6.49ZM15.4,53.09h4.08a.36.36,0,0,0,.36-.36h0V39a.36.36,0,0,0-.36-.36H15.4a.35.35,0,0,0-.35.35h0V52.7a.36.36,0,0,0,.31.39Z"/><circle class="cls-5" cx="17.3" cy="34.27" r="2.57"/></svg>