<svg xmlns="http://www.w3.org/2000/svg" xmlns:xlink="http://www.w3.org/1999/xlink" viewBox="0 0 434.61 287.38"><defs><style>.cls-1{mask:url(#mask);filter:url(#luminosity-noclip-2);}.cls-2,.cls-5{mix-blend-mode:multiply;}.cls-2{fill:url(#radial-gradient);}.cls-3{isolation:isolate;}.cls-4{fill:url(#linear-gradient);}.cls-6{fill:url(#linear-gradient-2);}.cls-10,.cls-7{mix-blend-mode:overlay;}.cls-10,.cls-11,.cls-8{fill:#fff;}.cls-9{mask:url(#mask-2);}.cls-11{opacity:0.7;}.cls-12{filter:url(#luminosity-noclip);}</style><filter id="luminosity-noclip" x="187.52" y="-7984.56" width="59.59" height="32766" filterUnits="userSpaceOnUse" color-interpolation-filters="sRGB"><feFlood flood-color="#fff" result="bg"/><feBlend in="SourceGraphic" in2="bg"/></filter><mask id="mask" x="187.52" y="-7984.56" width="59.59" height="32766" maskUnits="userSpaceOnUse"><g class="cls-12"/></mask><radialGradient id="radial-gradient" cx="-632.99" cy="316.49" r="61.52" gradientTransform="translate(513.48 -110.21) scale(0.47)" gradientUnits="userSpaceOnUse"><stop offset="0.09" stop-color="#fff"/><stop offset="0.17" stop-color="#f6f6f6"/><stop offset="0.3" stop-color="#dedede"/><stop offset="0.45" stop-color="#b6b6b6"/><stop offset="0.64" stop-color="#7f7f7f"/><stop offset="0.85" stop-color="#393939"/><stop offset="1"/></radialGradient><linearGradient id="linear-gradient" x1="217.3" y1="84.92" x2="217.3" y2="311.47" gradientUnits="userSpaceOnUse"><stop offset="0" stop-color="#734109"/><stop offset="1" stop-color="#a76618"/></linearGradient><linearGradient id="linear-gradient-2" x1="217.3" y1="169.89" x2="217.3" y2="301.36" gradientUnits="userSpaceOnUse"><stop offset="0.25" stop-color="#f7e436"/><stop offset="1" stop-color="#d58d21"/></linearGradient><filter id="luminosity-noclip-2" x="187.52" y="10.13" width="59.59" height="55.49" filterUnits="userSpaceOnUse" color-interpolation-filters="sRGB"><feFlood flood-color="#fff" result="bg"/><feBlend in="SourceGraphic" in2="bg"/></filter><mask id="mask-2" x="187.52" y="10.13" width="59.59" height="55.49" maskUnits="userSpaceOnUse"><g class="cls-1"><path class="cls-2" d="M217.31,10.13c-16.45,0-29.79,12.43-29.79,27.76s13.34,27.73,29.79,27.73S247.1,53.19,247.1,37.89,233.76,10.13,217.31,10.13Z"/></g></mask></defs><g class="cls-3"><g id="Layer_2" data-name="Layer 2"><g id="Layer_9" data-name="Layer 9"><path class="cls-4" d="M349.94,152.25l.06.11a27.57,27.57,0,1,1-19-7.6,27.19,27.19,0,0,1,3,.17l.91,0,.7,0,.06,0c3.35-6.07,3.79-19.36,3.24-28.27-1.08-17.31-5.83-29-5.83-29s-22.25.22-37.59,17.28a96.34,96.34,0,0,0-14.26,21.24,26,26,0,1,1-6.91-3.9L217.3,28l-57,94.26a26,26,0,1,1-6.91,3.9,95.83,95.83,0,0,0-14.25-21.24c-15.34-17.06-37.59-17.28-37.59-17.28s-4.75,11.67-5.83,29c-.55,8.91-.11,22.2,3.24,28.27l.06,0,.69,0,.91,0a27.6,27.6,0,1,1-16,7.43l.06-.11C73.81,143,27.66,126.46,0,139.65L84.88,287.38H349.73l84.88-147.73C407,126.46,360.8,143,349.94,152.25Z"/><g class="cls-5"><path class="cls-6" d="M349.72,271.36H84.88L7.61,136.87A45.09,45.09,0,0,0,0,139.65L84.88,287.38H349.72l84.89-147.73a45.09,45.09,0,0,0-7.61-2.78Z"/></g><g class="cls-7"><path class="cls-8" d="M241.72,157.76A26,26,0,1,0,293.26,163a25.81,25.81,0,0,0-2.6-11.31,26,26,0,0,1-48.94,6.1Z"/><path class="cls-8" d="M171.53,189A26,26,0,0,0,195,151.68a26,26,0,0,1-48.91,6.13A25.88,25.88,0,0,0,171.53,189Z"/><path class="cls-8" d="M331,199.76a27.57,27.57,0,0,1-25-16,27.89,27.89,0,0,0-.47,5,27.58,27.58,0,1,0,52.61-11.53A27.57,27.57,0,0,1,331,199.76Z"/><path class="cls-8" d="M105.68,216.25a27.53,27.53,0,0,0,25-39.1,27.55,27.55,0,0,1-52.13,6.57,27.87,27.87,0,0,0-.47,4.95A27.57,27.57,0,0,0,105.68,216.25Z"/><path class="cls-8" d="M357.56,164.87c14.4-8.06,45.63-17.66,69.46-12.18l7.59-13.2c-27.66-13.19-73.81,3.31-84.67,12.6l.06.11A27.59,27.59,0,0,1,357.56,164.87Z"/><path class="cls-8" d="M288,134.1a89.44,89.44,0,0,1,9.57-12.83C312.92,104.21,335.17,104,335.17,104A84.65,84.65,0,0,1,339,117.67l-.06-1.19c-1.08-17.31-5.83-29-5.83-29s-22.25.22-37.59,17.29A96.11,96.11,0,0,0,281.24,126,26.14,26.14,0,0,1,288,134.1Z"/><path class="cls-8" d="M97.77,133c1.07-17.31,5.83-29,5.83-29s22.25.22,37.58,17.28a88.23,88.23,0,0,1,7.49,9.6,26.6,26.6,0,0,1,4.69-4.85,95.6,95.6,0,0,0-14.25-21.23C123.77,87.72,101.52,87.5,101.52,87.5s-4.75,11.67-5.83,29c-.47,7.53-.21,18.19,1.9,25C97.54,138.45,97.61,135.53,97.77,133Z"/><path class="cls-8" d="M77.62,163a27.71,27.71,0,0,1,7-10.81l.06-.11c-10.86-9.29-57-25.79-84.67-12.6l8.14,14.16C30.57,146.75,61.22,155,77.62,163Z"/><path class="cls-8" d="M173.16,120.74l46.22-76.39,46.05,76.11a25.76,25.76,0,0,1,8.9,1.66l-57-94.26-57,94.26a25.93,25.93,0,0,1,9.19-1.67A26.51,26.51,0,0,1,173.16,120.74Z"/></g><g class="cls-9"><path class="cls-10" d="M217.31,10.13c-16.45,0-29.79,12.43-29.79,27.76s13.34,27.73,29.79,27.73S247.1,53.19,247.1,37.89,233.76,10.13,217.31,10.13Z"/></g><path class="cls-11" d="M190.1,74.4c8-9,31.51-36.51,31.51-36.51S241.24,1,241.72,0c.13-.29-25.1,34.65-25.1,34.65Z"/><path class="cls-8" d="M223.79,31.29c-7.24-5.67-5.93-21.59-6-26.1V9.51c0-.69-.05-1.44-.05-1.6V5.19a49.77,49.77,0,0,1-.4,5.7s-2.13,16-6,19.29c-8.63,7.57-30.35,6.11-22,6.31,28.13.6,28.13,28.05,28.38,37.06V69c0,.32.05.59.05.75v3.78c.6-21.32.53-34.8,25.07-36.6C251,36.32,232.26,37.89,223.79,31.29Z"/></g></g></g></svg>