<svg xmlns="http://www.w3.org/2000/svg" xmlns:xlink="http://www.w3.org/1999/xlink" viewBox="0 0 434.61 259.52"><defs><style>.cls-1{isolation:isolate;}.cls-2{fill:url(#linear-gradient);}.cls-3{mix-blend-mode:multiply;}.cls-4{fill:#919191;}.cls-5{opacity:0.49;}.cls-6{fill:#fff;}</style><linearGradient id="linear-gradient" x1="217.3" y1="57.06" x2="217.3" y2="283.62" gradientUnits="userSpaceOnUse"><stop offset="0" stop-color="#dcd6dc"/><stop offset="0.45" stop-color="#e6e6e6"/><stop offset="1" stop-color="gray"/></linearGradient></defs><g class="cls-1"><g id="Layer_2" data-name="Layer 2"><g id="Layer_7" data-name="Layer 7"><path class="cls-2" d="M349.94,124.39l.06.11a27.58,27.58,0,1,1-19-7.59,29.87,29.87,0,0,1,3,.16l.91,0,.7,0,.06,0c3.35-6.06,3.79-19.36,3.24-28.27-1.08-17.31-5.83-29-5.83-29S310.84,60,295.5,77.09a95.87,95.87,0,0,0-14.26,21.24,25.9,25.9,0,1,1-6.91-3.91L217.3.16l-57,94.26a26.08,26.08,0,1,1-6.91,3.91,95.37,95.37,0,0,0-14.25-21.24C123.77,60,101.52,59.81,101.52,59.81s-4.75,11.66-5.83,29c-.55,8.91-.11,22.21,3.24,28.27l.06,0,.69,0,.91,0a30.07,30.07,0,0,1,3-.16,27.58,27.58,0,1,1-19,7.59l.06-.11C73.81,115.1,27.66,98.6,0,111.79L84.88,259.52H349.73l84.88-147.73C407,98.6,360.8,115.1,349.94,124.39Z"/><g class="cls-3"><path class="cls-4" d="M349.72,243.5H84.88L7.61,109A45.09,45.09,0,0,0,0,111.79L84.88,259.52H349.72l84.89-147.73A45.09,45.09,0,0,0,427,109Z"/></g><g class="cls-5"><path class="cls-6" d="M241.72,129.9a26,26,0,1,0,51.54,5.21,25.81,25.81,0,0,0-2.6-11.31,26,26,0,0,1-48.94,6.1Z"/><path class="cls-6" d="M171.53,161.14A26,26,0,0,0,195,123.83,26,26,0,0,1,146.05,130a25.88,25.88,0,0,0,25.48,31.19Z"/><path class="cls-6" d="M331,171.9a27.56,27.56,0,0,1-25-16.05,28,28,0,0,0-.47,5,27.58,27.58,0,1,0,52.61-11.53A27.57,27.57,0,0,1,331,171.9Z"/><path class="cls-6" d="M105.68,188.39a27.53,27.53,0,0,0,25-39.1,27.55,27.55,0,0,1-52.13,6.57,27.87,27.87,0,0,0-.47,4.95A27.57,27.57,0,0,0,105.68,188.39Z"/><path class="cls-6" d="M357.56,137C372,129,403.19,119.35,427,124.83l7.59-13.2c-27.66-13.19-73.81,3.31-84.67,12.6l.06.11A27.62,27.62,0,0,1,357.56,137Z"/><path class="cls-6" d="M288,106.24a88.86,88.86,0,0,1,9.57-12.82c15.34-17.07,37.59-17.28,37.59-17.28A84.65,84.65,0,0,1,339,89.82l-.06-1.2c-1.08-17.31-5.83-29-5.83-29s-22.25.21-37.59,17.28a95.87,95.87,0,0,0-14.26,21.24A26.22,26.22,0,0,1,288,106.24Z"/><path class="cls-6" d="M97.77,105.11c1.07-17.31,5.83-29,5.83-29s22.25.21,37.58,17.28a87.28,87.28,0,0,1,7.49,9.6,26,26,0,0,1,4.69-4.85,95.37,95.37,0,0,0-14.25-21.24c-15.34-17.07-37.59-17.28-37.59-17.28s-4.75,11.66-5.83,29c-.47,7.53-.21,18.19,1.9,25C97.54,110.59,97.61,107.67,97.77,105.11Z"/><path class="cls-6" d="M77.62,135.15a27.71,27.71,0,0,1,7-10.81l.06-.11c-10.86-9.29-57-25.79-84.67-12.6l8.14,14.16C30.57,118.89,61.22,127.15,77.62,135.15Z"/><path class="cls-6" d="M173.16,92.88l46.22-76.39L265.43,92.6a26,26,0,0,1,8.9,1.66L217.3,0l-57,94.26a25.93,25.93,0,0,1,9.19-1.67A26.51,26.51,0,0,1,173.16,92.88Z"/></g></g></g></g></svg>