<svg xmlns="http://www.w3.org/2000/svg" xmlns:xlink="http://www.w3.org/1999/xlink" viewBox="0 0 2235.86 1389.28"><defs><style>.cls-1,.cls-2{fill:none;}.cls-1{clip-rule:evenodd;}.cls-3{clip-path:url(#clip-path);}.cls-4{fill:url(#linear-gradient);}.cls-5{clip-path:url(#clip-path-2);}.cls-6{fill:url(#linear-gradient-2);}.cls-7{clip-path:url(#clip-path-3);}.cls-8{fill:url(#linear-gradient-3);}.cls-9{clip-path:url(#clip-path-4);}.cls-10{fill:url(#linear-gradient-4);}.cls-11{clip-path:url(#clip-path-5);}.cls-12{fill:url(#linear-gradient-5);}.cls-13{clip-path:url(#clip-path-6);}.cls-14{fill:url(#linear-gradient-6);}.cls-15{clip-path:url(#clip-path-7);}.cls-16{fill:url(#linear-gradient-7);}.cls-17{clip-path:url(#clip-path-8);}.cls-18{fill:url(#linear-gradient-8);}.cls-19{clip-path:url(#clip-path-9);}.cls-20{fill:url(#linear-gradient-9);}.cls-21{clip-path:url(#clip-path-10);}.cls-22{fill:url(#linear-gradient-10);}.cls-23{clip-path:url(#clip-path-11);}.cls-24{fill:url(#linear-gradient-11);}.cls-25{clip-path:url(#clip-path-12);}.cls-26{fill:url(#linear-gradient-12);}.cls-27{clip-path:url(#clip-path-13);}.cls-28{fill:url(#linear-gradient-13);}.cls-29{clip-path:url(#clip-path-14);}.cls-30{fill:url(#linear-gradient-14);}.cls-31{clip-path:url(#clip-path-15);}.cls-32{fill:url(#linear-gradient-15);}.cls-33,.cls-34{fill:#1a47b6;}.cls-33,.cls-35{fill-rule:evenodd;}.cls-35{fill:#e2e7fd;}.cls-36{clip-path:url(#clip-path-16);}.cls-37{fill:url(#linear-gradient-16);}</style><clipPath id="clip-path" transform="translate(0 2.68)"><path class="cls-1" d="M2143.32,777.41l-48-9.79a45.66,45.66,0,0,1-36.53-41.49,472.62,472.62,0,0,0-22.32-114.85,45.69,45.69,0,0,1,18.42-52.15L2095.71,532a46,46,0,0,0,13.11-63.78L2057,389.91a46.07,46.07,0,0,0-63.83-13l-40.91,27a45.67,45.67,0,0,1-55.21-3.5,471.32,471.32,0,0,0-97-65.49,45.51,45.51,0,0,1-23.78-49.87l9.76-48a46.05,46.05,0,0,0-35.91-54.33l-92-18.75a46,46,0,0,0-54.32,35.89l-9.8,48a45.68,45.68,0,0,1-41.44,36.58,473.08,473.08,0,0,0-114.81,22.25,45.65,45.65,0,0,1-52.22-18.4l-27-40.9a46,46,0,0,0-63.78-13l-78.36,51.76a46.06,46.06,0,0,0-13,63.82l27,40.91a45.58,45.58,0,0,1-3.55,55.19,477.68,477.68,0,0,0-65.49,97A45.56,45.56,0,0,1,1111.57,567l-48-9.82A46,46,0,0,0,1009.23,593l-18.76,92a46.06,46.06,0,0,0,35.91,54.33l48,9.79A45.72,45.72,0,0,1,1111,790.66a470.55,470.55,0,0,0,22.24,114.77,45.71,45.71,0,0,1-18.34,52.25l-40.95,27a46.06,46.06,0,0,0-13,63.82l51.73,78.3a46.12,46.12,0,0,0,63.88,13l40.84-27.06a45.66,45.66,0,0,1,55.25,3.56,472.05,472.05,0,0,0,96.91,65.44,45.65,45.65,0,0,1,23.88,49.9l-9.79,48a46,46,0,0,0,35.9,54.32l92,18.82a46.2,46.2,0,0,0,54.34-36l9.75-48a45.75,45.75,0,0,1,41.53-36.57A472.59,472.59,0,0,0,1731.9,1210a45.67,45.67,0,0,1,52.2,18.38l27,40.9a46.11,46.11,0,0,0,63.86,13l78.31-51.83a46,46,0,0,0,13-63.81l-27.06-40.91a45.71,45.71,0,0,1,3.5-55.22,465.33,465.33,0,0,0,65.49-96.92,45.53,45.53,0,0,1,49.84-23.81l48.09,9.77a46,46,0,0,0,54.31-35.9l18.75-92a46,46,0,0,0-35.91-54.27M1422.05,601.27c86.77-89.91,230-92.45,319.89-5.69s92.45,230,5.68,319.89-230,92.45-319.88,5.68S1335.29,691.17,1422.05,601.27Z"/></clipPath><linearGradient id="linear-gradient" x1="1469.6" y1="1058.98" x2="2105.92" y2="-585.75" gradientUnits="userSpaceOnUse"><stop offset="0" stop-color="#9bd2f0"/><stop offset="1" stop-color="#fff"/></linearGradient><clipPath id="clip-path-2" transform="translate(0 2.68)"><path class="cls-1" d="M991.17,1113.25l-29.61-18.72a32.64,32.64,0,0,1-13.89-37,337.86,337.86,0,0,0,14.21-82.41A32.65,32.65,0,0,1,987.41,945l34.17-7.76a32.91,32.91,0,0,0,24.93-39.3l-14.76-65.47a32.93,32.93,0,0,0-39.36-24.86l-34.19,7.69a32.66,32.66,0,0,1-36-16.34A336.52,336.52,0,0,0,874,730.6a32.53,32.53,0,0,1-3.24-39.36l18.7-29.62a32.91,32.91,0,0,0-10.22-45.4l-56.74-35.87a32.89,32.89,0,0,0-45.39,10.22l-18.73,29.61a32.66,32.66,0,0,1-37,13.94,337.53,337.53,0,0,0-82.36-14.25,32.6,32.6,0,0,1-30.22-25.53l-7.71-34.19a32.84,32.84,0,0,0-39.32-24.84L496.33,550a32.92,32.92,0,0,0-24.86,39.35l7.7,34.19a32.59,32.59,0,0,1-16.37,36,341.17,341.17,0,0,0-68.34,48.18A32.56,32.56,0,0,1,355.11,711l-29.6-18.74a32.9,32.9,0,0,0-45.4,10.23l-35.86,56.72a32.93,32.93,0,0,0,10.22,45.41l29.6,18.71a32.66,32.66,0,0,1,13.92,37,336.46,336.46,0,0,0-14.23,82.33A32.68,32.68,0,0,1,258.26,973l-34.21,7.66A32.9,32.9,0,0,0,199.19,1020l14.71,65.44a33,33,0,0,0,39.38,24.89l34.15-7.73a32.63,32.63,0,0,1,36,16.39,337.24,337.24,0,0,0,48.17,68.29,32.62,32.62,0,0,1,3.3,39.4l-18.71,29.6a32.86,32.86,0,0,0,10.21,45.4l56.71,35.9a33,33,0,0,0,45.43-10.25l18.7-29.63a32.69,32.69,0,0,1,37-13.91A337.34,337.34,0,0,0,606.59,1298a32.65,32.65,0,0,1,30.22,25.51l7.68,34.19a33,33,0,0,0,39.37,24.91l65.47-14.78a32.87,32.87,0,0,0,24.87-39.34l-7.7-34.2a32.65,32.65,0,0,1,16.33-36,333.29,333.29,0,0,0,68.34-48.16,32.55,32.55,0,0,1,39.34-3.28l29.65,18.72a32.88,32.88,0,0,0,45.4-10.22l35.86-56.73a32.85,32.85,0,0,0-10.25-45.37M553.88,812.69a161.68,161.68,0,1,1-77.3,215.19A161.68,161.68,0,0,1,553.88,812.69Z"/></clipPath><linearGradient id="linear-gradient-2" x1="540.65" y1="1174.05" x2="994.35" y2="1.35" xlink:href="#linear-gradient"/><clipPath id="clip-path-3" transform="translate(0 2.68)"><path class="cls-1" d="M1086.17,343.21l-20.4-10a21.14,21.14,0,0,1-11.57-22.84,219.33,219.33,0,0,0,3.32-54.11A21.18,21.18,0,0,1,1071.84,235l21.47-7.42a21.34,21.34,0,0,0,13.29-27.08l-14.15-41.14a21.34,21.34,0,0,0-27.12-13.24l-21.49,7.38a21.17,21.17,0,0,1-24.35-8,218.77,218.77,0,0,0-35.88-40.63,21.09,21.09,0,0,1-4.88-25.13l9.95-20.41a21.33,21.33,0,0,0-9.79-28.53l-39.1-19.1a21.32,21.32,0,0,0-28.53,9.79L901.29,42a21.17,21.17,0,0,1-22.84,11.59,219,219,0,0,0-54.07-3.35,21.15,21.15,0,0,1-21.29-14.32L795.71,14.4A21.28,21.28,0,0,0,768.62,1.18L727.46,15.29a21.35,21.35,0,0,0-13.23,27.12l7.38,21.49a21.15,21.15,0,0,1-8,24.34A220.46,220.46,0,0,0,673,124.12,21.11,21.11,0,0,1,647.86,129l-20.4-10a21.33,21.33,0,0,0-28.53,9.8l-19.1,39.09a21.35,21.35,0,0,0,9.8,28.54l20.39,10a21.17,21.17,0,0,1,11.59,22.86,217.86,217.86,0,0,0-3.34,54.06,21.17,21.17,0,0,1-14.3,21.3L582.47,312a21.34,21.34,0,0,0-13.23,27.12l14.11,41.12a21.37,21.37,0,0,0,27.13,13.26l21.46-7.4a21.16,21.16,0,0,1,24.37,8,218.94,218.94,0,0,0,35.87,40.6,21.14,21.14,0,0,1,4.91,25.15l-10,20.4a21.3,21.3,0,0,0,9.79,28.53L736,527.93a21.4,21.4,0,0,0,28.55-9.82l10-20.41a21.18,21.18,0,0,1,22.87-11.58,218.78,218.78,0,0,0,54,3.35,21.15,21.15,0,0,1,21.27,14.3l7.37,21.48a21.36,21.36,0,0,0,27.13,13.27l41.14-14.15a21.3,21.3,0,0,0,13.24-27.11l-7.38-21.5a21.16,21.16,0,0,1,8-24.35,216,216,0,0,0,40.63-35.87,21.08,21.08,0,0,1,25.11-4.89l20.44,10a21.32,21.32,0,0,0,28.53-9.79l19.09-39.1a21.29,21.29,0,0,0-9.81-28.51m-303-162.74A104.81,104.81,0,1,1,748.54,324.6,104.81,104.81,0,0,1,783.13,180.47Z"/></clipPath><linearGradient id="linear-gradient-3" x1="799.98" y1="415.21" x2="1009.36" y2="-372.53" xlink:href="#linear-gradient"/><clipPath id="clip-path-4" transform="translate(0 2.68)"><path class="cls-2" d="M363,702.08H503.42V519.27ZM483.8,992.32V850.82h-284V703.12L536.47,271.38H649.06v430.7H740V850.82H649.06v141.5Z"/></clipPath><linearGradient id="linear-gradient-4" x1="469.85" y1="794.31" x2="469.85" y2="-809.97" gradientUnits="userSpaceOnUse"><stop offset="0" stop-color="#e8546b"/><stop offset="1" stop-color="#fff"/></linearGradient><clipPath id="clip-path-5" transform="translate(0 2.68)"><path class="cls-2" d="M1183.5,627.89c0-64.41-23-210.82-103.19-210.74-77.52.07-104.23,144.48-104.23,210.74,0,67.45,16.57,213.25,104.23,213.93,82.38.64,103.19-148.3,103.19-213.93m166.14,0q0,78.79-20.64,145.06t-56.76,114.61q-36.1,48.35-85.13,75.21t-106.8,26.86q-57.79,0-107.32-26.86t-85.65-75.21Q851.22,839.2,831.1,773T811,627.89q0-78.78,20.12-145t56.24-114.61q36.12-48.35,85.65-75.81T1080.31,265q57.78,0,106.8,27.46t85.13,75.81q36.12,48.36,56.76,114.61T1349.64,627.89Z"/></clipPath><linearGradient id="linear-gradient-5" x1="1080.31" y1="790.58" x2="1080.31" y2="-821.97" xlink:href="#linear-gradient-4"/><clipPath id="clip-path-6" transform="translate(0 2.68)"><path class="cls-2" d="M1594.13,702.08H1734.6V519.27ZM1715,992.32V850.82h-284V703.12l336.71-431.74h112.59v430.7h90.89V850.82h-90.89v141.5Z"/></clipPath><linearGradient id="linear-gradient-6" x1="1701.03" y1="794.31" x2="1701.03" y2="-809.97" xlink:href="#linear-gradient-4"/><clipPath id="clip-path-7" transform="translate(0 2.68)"><path class="cls-2" d="M1342.83,1274.14h30.52q5.89,0,10.18-5.59t4.27-14.35q0-9-4.89-14.24t-10.58-5.29h-29.5Zm-33.38,75.7V1205.36h65.12a42,42,0,0,1,18.82,4.27,49.81,49.81,0,0,1,15,11.2,52.09,52.09,0,0,1,9.87,15.67,46.46,46.46,0,0,1,3.56,17.7,50.5,50.5,0,0,1-1.63,12.92,49.69,49.69,0,0,1-4.68,11.7,44.12,44.12,0,0,1-17.29,17.3l31.74,53.72h-37.64l-27.68-46.6h-21.77v46.6Zm-129-72a54.27,54.27,0,0,0,2.44,16.18,43.19,43.19,0,0,0,7.23,13.94,35.64,35.64,0,0,0,11.9,9.77,35.15,35.15,0,0,0,16.29,3.67,34.42,34.42,0,0,0,16.68-3.87,36.27,36.27,0,0,0,11.8-10.07,43.82,43.82,0,0,0,7-14.05,55.47,55.47,0,0,0,2.34-16,54,54,0,0,0-2.44-16.18,41.09,41.09,0,0,0-7.32-13.84,36.4,36.4,0,0,0-11.91-9.56,35.32,35.32,0,0,0-16.17-3.56,34.61,34.61,0,0,0-16.59,3.76,36.94,36.94,0,0,0-11.8,9.87,41.74,41.74,0,0,0-7.13,13.94A55.52,55.52,0,0,0,1180.43,1277.8Zm37.65,73.27a67.23,67.23,0,0,1-29.3-6.31,72.31,72.31,0,0,1-22.59-16.59,75.63,75.63,0,0,1-14.55-23.5,74,74,0,0,1-5.19-27.27,72.18,72.18,0,0,1,5.39-27.47,72.88,72.88,0,0,1,38-39.38,69.17,69.17,0,0,1,28.9-6,67.16,67.16,0,0,1,29.31,6.31,71.4,71.4,0,0,1,22.58,16.68,75.26,75.26,0,0,1,14.45,23.61,74.31,74.31,0,0,1,5.09,26.86,72.18,72.18,0,0,1-5.39,27.47,74.28,74.28,0,0,1-15,23.3A73.53,73.53,0,0,1,1247,1345,68.13,68.13,0,0,1,1218.08,1351.07Zm-166.26-76.93h30.53q5.89,0,10.17-5.59t4.27-14.35q0-9-4.88-14.24t-10.58-5.29h-29.51Zm-33.37,75.7V1205.36h65.12a42,42,0,0,1,18.82,4.27,49.94,49.94,0,0,1,15,11.2,52.28,52.28,0,0,1,9.87,15.67,46.65,46.65,0,0,1,3.56,17.7,50.5,50.5,0,0,1-1.63,12.92,49.69,49.69,0,0,1-4.68,11.7,44.23,44.23,0,0,1-17.3,17.3l31.75,53.72h-37.65l-27.67-46.6h-21.78v46.6Zm-103-75.7H946q5.91,0,10.18-5.59t4.27-14.35q0-9-4.88-14.24T945,1234.67H915.48Zm-33.38,75.7V1205.36h65.12a42,42,0,0,1,18.83,4.27,50.06,50.06,0,0,1,15,11.2,52.25,52.25,0,0,1,9.86,15.67,46.47,46.47,0,0,1,3.57,17.7,50.38,50.38,0,0,1-6.31,24.62,44.23,44.23,0,0,1-17.3,17.3l31.75,53.72H964.93l-27.68-46.6H915.48v46.6Zm-20.35-29.3v29.3H760.21V1205.36h99.71v29.31H793.58v28.08h57v27.06h-57v30.73Z"/></clipPath><linearGradient id="linear-gradient-7" x1="1095.07" y1="1312.96" x2="1095.07" y2="921.35" xlink:href="#linear-gradient-4"/><clipPath id="clip-path-8" transform="translate(0 2.68)"><path class="cls-1" d="M722.76,1071.47H0v-21.85H722.76v-6a9.83,9.83,0,0,1,9.8-9.8h9.8v53.37h-9.8a9.83,9.83,0,0,1-9.8-9.8Z"/></clipPath><linearGradient id="linear-gradient-8" x1="371.18" y1="1066.43" x2="371.18" y2="1009.77" gradientUnits="userSpaceOnUse"><stop offset="0" stop-color="#297fce"/><stop offset="1" stop-color="#fdfdfd"/></linearGradient><clipPath id="clip-path-9" transform="translate(0 2.68)"><path class="cls-1" d="M808.62,965.52H916.21v190.2H808.77a68.69,68.69,0,0,1-68.49-68.49v-53.37a68.54,68.54,0,0,1,68.34-68.34"/></clipPath><linearGradient id="linear-gradient-9" x1="828.24" y1="1091.2" x2="828.24" y2="703.08" xlink:href="#linear-gradient-8"/><clipPath id="clip-path-10" transform="translate(0 2.68)"><path class="cls-1" d="M875,1072.48c0,1.36-.07,2.72-.12,4.07,0-1.35.09-2.71.12-4.07M852.12,955.8a5.62,5.62,0,0,1,.92.09,10.4,10.4,0,0,1,1.77-.16h51.61c5.38,0,1.45,17.58,1.43,23l-.64,166c0,5.38,4.59,20.87-.79,20.87H854.81a10.05,10.05,0,0,1-1.56-.13,5.44,5.44,0,0,1-1.13.13c-12.69,0-23-47-23-104.86S839.43,955.8,852.12,955.8Z"/></clipPath><linearGradient id="linear-gradient-10" x1="870.48" y1="1097.84" x2="870.45" y2="932.87" gradientUnits="userSpaceOnUse"><stop offset="0" stop-color="#022fa0"/><stop offset="0.68" stop-color="#197bdd"/><stop offset="1" stop-color="#24a1fb"/></linearGradient><clipPath id="clip-path-11" transform="translate(0 2.68)"><path class="cls-1" d="M906.42,955.8c12.7,0,23,46.94,23,104.85s-10.29,104.86-23,104.86-23-47-23-104.86,10.29-104.85,23-104.85"/></clipPath><linearGradient id="linear-gradient-11" x1="906.4" y1="1268.95" x2="906.43" y2="993.14" gradientUnits="userSpaceOnUse"><stop offset="0" stop-color="#54d0ff"/><stop offset="0.26" stop-color="#90e0ff"/><stop offset="0.5" stop-color="#c0eeff"/><stop offset="0.71" stop-color="#e2f7ff"/><stop offset="0.89" stop-color="#f7fdff"/><stop offset="1" stop-color="#fff"/></linearGradient><clipPath id="clip-path-12" transform="translate(0 2.68)"><path class="cls-1" d="M1511.17,1049.62h724.69v21.85H1511.17v6a9.84,9.84,0,0,1-9.81,9.8h-9.79v-53.37h9.79a9.84,9.84,0,0,1,9.81,9.8Z"/></clipPath><linearGradient id="linear-gradient-12" x1="1863.71" y1="1066.43" x2="1863.71" y2="981.67" xlink:href="#linear-gradient-8"/><clipPath id="clip-path-13" transform="translate(0 2.68)"><path class="cls-1" d="M1424.66,965.52H1317.08v190.2h107.43a68.69,68.69,0,0,0,68.5-68.49v-53.37a68.55,68.55,0,0,0-68.35-68.34"/></clipPath><linearGradient id="linear-gradient-13" x1="1405.04" y1="1091.2" x2="1405.04" y2="703.08" xlink:href="#linear-gradient-8"/><clipPath id="clip-path-14" transform="translate(0 2.68)"><path class="cls-1" d="M1326.86,955.73h51.61a10.43,10.43,0,0,1,1.78.16,5.61,5.61,0,0,1,.91-.09c12.7,0,23,46.94,23,104.85s-10.29,104.86-23,104.86a5.35,5.35,0,0,1-1.12-.13,10.08,10.08,0,0,1-1.57.13h-51.61c-5.38,0-.76-15.49-.79-20.87l-.64-166c0-5.38-4-23,1.43-23"/></clipPath><linearGradient id="linear-gradient-14" x1="1362.82" y1="1097.84" x2="1362.79" y2="932.87" xlink:href="#linear-gradient-10"/><clipPath id="clip-path-15" transform="translate(0 2.68)"><path class="cls-1" d="M1326.86,955.8c-12.69,0-23,46.94-23,104.85s10.29,104.86,23,104.86,23-47,23-104.86-10.29-104.85-23-104.85"/></clipPath><linearGradient id="linear-gradient-15" x1="1326.9" y1="1268.95" x2="1326.85" y2="993.14" xlink:href="#linear-gradient-11"/><clipPath id="clip-path-16" transform="translate(0 2.68)"><path class="cls-2" d="M1576.68,155.34V127.23h22.59v28.11Zm-41.21,0V127.23h22.59v28.11Zm-50.18,1.72a72.08,72.08,0,0,1-22.76-3.7,52.13,52.13,0,0,1-19-10.78l9.83-16.9a82.12,82.12,0,0,0,16.12,8.8,41.13,41.13,0,0,0,15.09,3.1c3.57,0,6.32-.63,8.28-1.9a6.17,6.17,0,0,0,2.93-5.52q0-3.61-3.71-5.77t-13-4.57q-9.13-2.59-15.43-5a43.38,43.38,0,0,1-10.26-5.35,17.35,17.35,0,0,1-5.69-6.72,21.52,21.52,0,0,1-1.73-9,28.16,28.16,0,0,1,10.35-22.24,35.8,35.8,0,0,1,11.47-6.21,44.81,44.81,0,0,1,14.4-2.24,63.85,63.85,0,0,1,19,2.76,47.65,47.65,0,0,1,17.16,10L1507.71,92.4a73.44,73.44,0,0,0-13.8-7.76,31.43,31.43,0,0,0-11.72-2.41A14.81,14.81,0,0,0,1474.6,84a6.7,6.7,0,0,0,.26,11.47q3.36,1.89,12.5,4.13a158.1,158.1,0,0,1,16.29,5.18,43.63,43.63,0,0,1,10.78,5.77,19.53,19.53,0,0,1,6,7.33,23.36,23.36,0,0,1,1.9,9.83q0,13.45-10,21.38T1485.29,157.06Zm-98.12-23.27a17.11,17.11,0,0,0,8.19-2,21.69,21.69,0,0,0,6.47-5.26,22.93,22.93,0,0,0,4.22-7.67,28.92,28.92,0,0,0,1.47-9.23,25.14,25.14,0,0,0-1.64-9.22,22.92,22.92,0,0,0-4.48-7.33,19.73,19.73,0,0,0-6.9-4.83,22,22,0,0,0-8.7-1.72,20,20,0,0,0-11,3.36,21.82,21.82,0,0,0-8,9v18.63a28.54,28.54,0,0,0,8.36,11.55A18.47,18.47,0,0,0,1387.17,133.79Zm9.32,23.27a35.67,35.67,0,0,1-17.94-4.31,29.62,29.62,0,0,1-11.72-12.07v51.39h-27.59V64.81h24V79.47a36.28,36.28,0,0,1,12.5-12.07q7.5-4.32,17.84-4.31a38.83,38.83,0,0,1,16.82,3.62,41,41,0,0,1,13.27,9.91,46.6,46.6,0,0,1,8.8,14.83,52,52,0,0,1,3.19,18.37,58.15,58.15,0,0,1-2.93,18.79,47.25,47.25,0,0,1-8.11,14.92,37.86,37.86,0,0,1-12.41,9.91A34.53,34.53,0,0,1,1396.49,157.06ZM1257,110.16q0,10.7,5.69,17.16a18.44,18.44,0,0,0,14.48,6.47,18.24,18.24,0,0,0,7.94-1.73,19,19,0,0,0,6.29-4.83,23.13,23.13,0,0,0,4.22-7.5,28.42,28.42,0,0,0,1.56-9.57q0-10.69-5.7-17.16a18.24,18.24,0,0,0-14.31-6.46,18.7,18.7,0,0,0-14.4,6.55,23.13,23.13,0,0,0-4.22,7.5A28.42,28.42,0,0,0,1257,110.16Zm20.17,46.9a52.84,52.84,0,0,1-20.6-3.79A44.78,44.78,0,0,1,1241.3,143a43.19,43.19,0,0,1-9.4-15,51.54,51.54,0,0,1,0-35.7,43.28,43.28,0,0,1,9.4-15A45.68,45.68,0,0,1,1256.56,67a51.76,51.76,0,0,1,20.6-3.88A51.19,51.19,0,0,1,1297.68,67a45.9,45.9,0,0,1,15.17,10.34,44.41,44.41,0,0,1,9.49,15,49.48,49.48,0,0,1,3.28,17.85,50.72,50.72,0,0,1-3.19,17.85,43.34,43.34,0,0,1-9.4,15,45,45,0,0,1-15.26,10.26A52.93,52.93,0,0,1,1277.16,157.06ZM1127,94.3A45.83,45.83,0,0,0,1129,108a36.74,36.74,0,0,0,6.12,11.81,30.18,30.18,0,0,0,10.09,8.28,29.84,29.84,0,0,0,13.8,3.1,29.09,29.09,0,0,0,14.13-3.28,30.56,30.56,0,0,0,10-8.53,37.25,37.25,0,0,0,6-11.9,46.82,46.82,0,0,0,2-13.54,45.72,45.72,0,0,0-2.07-13.7,34.73,34.73,0,0,0-6.21-11.73,30.94,30.94,0,0,0-10.09-8.11,29.88,29.88,0,0,0-13.7-3A29.3,29.3,0,0,0,1145,60.59,31.44,31.44,0,0,0,1135,69a35.61,35.61,0,0,0-6,11.81A47.15,47.15,0,0,0,1127,94.3Zm31.9,62.08A57,57,0,0,1,1134,151,61.27,61.27,0,0,1,1114.9,137a64.05,64.05,0,0,1-12.33-19.92A62.78,62.78,0,0,1,1098.18,94a61.09,61.09,0,0,1,4.57-23.28,61.65,61.65,0,0,1,32.15-33.36,58.59,58.59,0,0,1,24.49-5.09,56.85,56.85,0,0,1,24.83,5.35,60.44,60.44,0,0,1,19.14,14.14,63.64,63.64,0,0,1,12.24,20,62.81,62.81,0,0,1,4.32,22.76,61,61,0,0,1-4.58,23.28,62,62,0,0,1-32,33.45A57.72,57.72,0,0,1,1158.87,156.38Z"/></clipPath><linearGradient id="linear-gradient-16" x1="1348.72" y1="118.48" x2="1348.72" y2="-136.76" xlink:href="#linear-gradient"/></defs><g id="Layer_2" data-name="Layer 2"><g id="Layer_1-2" data-name="Layer 1"><g class="cls-3"><rect class="cls-4" x="985.39" y="161.55" width="1198.95" height="1198.97"/></g><g class="cls-5"><rect class="cls-6" x="195.19" y="533.95" width="855.3" height="855.33"/></g><g class="cls-7"><rect class="cls-8" x="565.41" width="545" height="545.03"/></g><g class="cls-9"><rect class="cls-10" x="199.76" y="274.06" width="540.19" height="720.94"/></g><g class="cls-11"><rect class="cls-12" x="810.98" y="267.65" width="538.66" height="724.67"/></g><g class="cls-13"><rect class="cls-14" x="1430.94" y="274.06" width="540.19" height="720.94"/></g><g class="cls-15"><rect class="cls-16" x="760.21" y="1207.23" width="669.71" height="146.52"/></g><g class="cls-17"><rect class="cls-18" y="1036.54" width="742.36" height="53.37"/></g><g class="cls-19"><rect class="cls-20" x="740.28" y="968.2" width="175.93" height="190.2"/></g><g class="cls-21"><rect class="cls-22" x="829.14" y="958.41" width="82.67" height="209.78"/></g><g class="cls-23"><rect class="cls-24" x="883.44" y="958.48" width="45.97" height="209.71"/></g><g class="cls-25"><rect class="cls-26" x="1491.57" y="1036.54" width="744.29" height="53.37"/></g><g class="cls-27"><rect class="cls-28" x="1317.08" y="968.2" width="175.93" height="190.2"/></g><g class="cls-29"><rect class="cls-30" x="1321.48" y="958.41" width="82.67" height="209.78"/></g><g class="cls-31"><rect class="cls-32" x="1303.88" y="958.48" width="45.97" height="209.71"/></g><path class="cls-33" d="M907.39,1075.71c2.74,0,5,7.23,5,16.15s-2.23,16.14-5,16.14-5-7.23-5-16.14,2.23-16.15,5-16.15" transform="translate(0 2.68)"/><path class="cls-33" d="M907.39,1013.3c2.74,0,5,7.23,5,16.15s-2.23,16.14-5,16.14-5-7.22-5-16.14,2.23-16.15,5-16.15" transform="translate(0 2.68)"/><path class="cls-33" d="M1325.85,1080.24c2.75,0,5,5.2,5,11.62s-2.23,11.62-5,11.62-5-5.2-5-11.62,2.23-11.62,5-11.62" transform="translate(0 2.68)"/><path class="cls-33" d="M1325.85,1018.39c2.75,0,5,5,5,11.06s-2.23,11.06-5,11.06-5-5-5-11.06,2.23-11.06,5-11.06" transform="translate(0 2.68)"/><rect class="cls-34" x="1252.85" y="1082.92" width="72.95" height="23.24"/><rect class="cls-34" x="1252.85" y="1021.07" width="72.95" height="22.12"/><path class="cls-35" d="M1252.85,1080.24c2.75,0,5,5.2,5,11.62s-2.22,11.62-5,11.62-5-5.2-5-11.62,2.23-11.62,5-11.62" transform="translate(0 2.68)"/><path class="cls-35" d="M1252.85,1018.39c2.75,0,5,5,5,11.06s-2.22,11.06-5,11.06-5-5-5-11.06,2.23-11.06,5-11.06" transform="translate(0 2.68)"/><g class="cls-36"><rect class="cls-37" x="1098.18" y="34.9" width="501.09" height="159.85"/></g></g></g></svg>