<svg width="320" height="60" viewBox="0 0 320 60" fill="none" xmlns="http://www.w3.org/2000/svg">
<rect width="320" height="60" fill="url(#paint0_linear)"/>
<rect x="241.6" width="78" height="60" fill="#F0B90B"/>
<path d="M248.333 29.1066C248.705 29.4938 248.705 30.1062 248.333 30.4934L241.721 37.365C241.096 38.0137 240 37.5718 240 36.6716L240 22.9284C240 22.0282 241.096 21.5863 241.721 22.235L248.333 29.1066Z" fill="#333435"/>
<path d="M299.965 33.2347V26.72C300.557 26.5867 301 26.0613 301 25.4267C301 24.6933 300.408 24.1013 299.677 24.1013C299.448 24.1013 299.237 24.1653 299.051 24.2667L296.16 21.3707C296.264 21.1813 296.331 20.9653 296.331 20.7333C296.331 20 295.739 19.408 295.008 19.408C294.461 19.408 293.992 19.7413 293.789 20.216H290.736V17.1893C291.272 17.0187 291.664 16.5227 291.664 15.9307C291.664 15.1973 291.072 14.6053 290.341 14.6053C290.08 14.6053 289.84 14.6827 289.635 14.8133L286.811 11.984C286.923 11.7893 286.992 11.568 286.992 11.328C286.992 10.5947 286.4 10.0027 285.669 10.0027C285.093 10.0027 284.611 10.3733 284.427 10.8853H277.557C277.376 10.3707 276.891 10 276.315 10C275.584 10 274.992 10.5947 274.992 11.3253C274.992 11.5173 275.035 11.7013 275.109 11.8667L272.253 14.7413C272.077 14.656 271.885 14.6027 271.677 14.6027C270.947 14.6027 270.355 15.1973 270.355 15.928C270.355 16.5093 270.731 17 271.251 17.1787V20.2133H268.224C268.021 19.7387 267.552 19.4053 267.005 19.4053C266.275 19.4053 265.683 20 265.683 20.7307C265.683 20.9067 265.717 21.0747 265.781 21.2267L262.819 24.1973C262.667 24.136 262.499 24.0987 262.325 24.0987C261.592 24.1013 261 24.6933 261 25.4267C261 26.032 261.408 26.536 261.96 26.696V33.2587C261.408 33.4187 261 33.9227 261 34.528C261 35.2613 261.592 35.8533 262.323 35.8533C262.477 35.8533 262.621 35.8213 262.76 35.7733L265.763 38.784C265.715 38.9227 265.683 39.0693 265.683 39.224C265.683 39.9573 266.275 40.5493 267.005 40.5493C267.581 40.5493 268.064 40.1787 268.248 39.6667H271.235V42.6747C270.723 42.856 270.352 43.344 270.352 43.92C270.352 44.6533 270.944 45.2453 271.675 45.2453C271.832 45.2453 271.984 45.2133 272.123 45.1627L275.099 48.1467C275.029 48.3093 274.987 48.488 274.987 48.6747C274.987 49.408 275.579 50 276.309 50C276.827 50 277.267 49.7013 277.485 49.2693H284.493C284.712 49.7013 285.155 50 285.669 50C286.4 50 286.992 49.4053 286.992 48.6747C286.992 48.4373 286.925 48.2187 286.816 48.0267L289.741 45.096C289.923 45.1893 290.123 45.2453 290.339 45.2453C291.069 45.2453 291.661 44.6507 291.661 43.92C291.661 43.32 291.264 42.8213 290.72 42.656V39.68H293.771C293.957 40.1867 294.437 40.5493 295.008 40.5493C295.739 40.5493 296.331 39.9547 296.331 39.224C296.331 39.0107 296.277 38.8133 296.187 38.6373L299.099 35.7173C299.275 35.8027 299.467 35.856 299.675 35.856C300.405 35.856 300.997 35.2613 300.997 34.5307C301 33.896 300.557 33.368 299.965 33.2347ZM293.709 20.976C293.824 21.592 294.36 22.0587 295.008 22.0587C295.224 22.0587 295.424 22.0027 295.605 21.9093L298.509 24.8187C298.413 25.0027 298.355 25.2053 298.355 25.4267C298.355 25.992 298.709 26.472 299.205 26.6613V33.2907C298.709 33.4827 298.355 33.96 298.355 34.5253C298.355 34.7707 298.427 34.9973 298.541 35.192L295.667 38.0747C295.472 37.9627 295.251 37.8933 295.011 37.8933C294.389 37.8933 293.875 38.3227 293.731 38.8987H286.949C286.805 38.3227 286.291 37.8933 285.669 37.8933C285.4 37.8933 285.152 37.9733 284.944 38.112L282.096 35.272C282.24 35.0587 282.325 34.8027 282.325 34.528C282.325 34.3467 282.288 34.176 282.224 34.0187L285.083 31.152C285.261 31.24 285.459 31.296 285.669 31.296C285.891 31.296 286.093 31.2373 286.277 31.1413L289.128 33.9973C289.056 34.16 289.016 34.3387 289.016 34.528C289.016 35.2613 289.608 35.8533 290.339 35.8533C291.069 35.8533 291.661 35.2587 291.661 34.528C291.661 33.7973 291.069 33.2 290.339 33.2C290.075 33.2 289.829 33.28 289.624 33.4133L286.824 30.6053C286.869 30.5253 286.904 30.44 286.931 30.3493H293.747C293.909 30.896 294.411 31.296 295.008 31.296C295.739 31.296 296.331 30.7013 296.331 29.9707C296.331 29.24 295.739 28.6453 295.008 28.6453C294.411 28.6453 293.912 29.0453 293.747 29.5893H286.931C286.909 29.5173 286.883 29.448 286.851 29.384L289.664 26.5653C289.861 26.6853 290.093 26.7573 290.341 26.7573C291.072 26.7573 291.664 26.1627 291.664 25.432C291.664 24.84 291.272 24.3413 290.736 24.1733V20.976H293.709ZM268.288 38.904C268.144 38.328 267.629 37.8987 267.008 37.8987C266.712 37.8987 266.443 38 266.224 38.1627L263.384 35.3147C263.547 35.0933 263.648 34.824 263.648 34.528C263.648 33.936 263.256 33.44 262.723 33.2693V26.6853C263.259 26.5147 263.648 26.0187 263.648 25.4267C263.648 25.1493 263.563 24.8933 263.419 24.68L266.264 21.8267C266.477 21.9707 266.733 22.056 267.008 22.056C267.656 22.056 268.192 21.5893 268.307 20.9733H275.019C275.133 21.5893 275.669 22.056 276.317 22.056C276.573 22.056 276.811 21.9787 277.013 21.8533L279.88 24.7307C279.755 24.9333 279.677 25.1707 279.677 25.4267C279.677 25.7173 279.773 25.9867 279.933 26.2053L277.176 28.9707C276.944 28.7707 276.645 28.6453 276.315 28.6453C276.077 28.6453 275.859 28.712 275.667 28.8213L272.859 26.0133C272.947 25.8373 273 25.64 273 25.4293C273 24.696 272.408 24.104 271.677 24.104C270.947 24.104 270.355 24.6987 270.355 25.4293C270.355 26.16 270.947 26.7547 271.677 26.7547C271.915 26.7547 272.131 26.688 272.323 26.5787L275.131 29.392C275.099 29.456 275.075 29.52 275.056 29.5893H268.267C268.101 29.0453 267.603 28.6453 267.005 28.6453C266.275 28.6453 265.683 29.24 265.683 29.9707C265.683 30.7013 266.275 31.296 267.005 31.296C267.597 31.296 268.093 30.904 268.261 30.3653H275.056C275.109 30.5387 275.197 30.696 275.315 30.832L272.587 33.568C272.349 33.3413 272.029 33.2 271.677 33.2C270.947 33.2 270.355 33.7947 270.355 34.5253C270.355 35.1013 270.725 35.5893 271.237 35.7707V38.9013H268.288V38.904ZM289.96 42.6533C289.416 42.8187 289.016 43.3173 289.016 43.9173C289.016 44.1573 289.085 44.3787 289.195 44.5733L286.269 47.496C286.088 47.4027 285.888 47.3467 285.669 47.3467C284.995 47.3467 284.445 47.8533 284.363 48.5067H277.621C277.539 47.8533 276.989 47.3467 276.315 47.3467C276.051 47.3467 275.805 47.4267 275.6 47.56L272.744 44.696C272.904 44.4773 273 44.208 273 43.9173C273 43.296 272.573 42.7787 271.997 42.6347V35.808C272.573 35.6667 273 35.1493 273 34.528C273 34.4373 272.989 34.3493 272.973 34.264L275.981 31.248C276.088 31.2773 276.2 31.296 276.315 31.296C277.045 31.296 277.637 30.7013 277.637 29.9707C277.637 29.8533 277.619 29.744 277.589 29.6373L280.549 26.672C280.691 26.7227 280.84 26.7573 281 26.7573C281.731 26.7573 282.323 26.1627 282.323 25.432C282.323 25.272 282.291 25.1227 282.24 24.9813L285.232 21.984C285.371 22.032 285.515 22.064 285.669 22.064C286.4 22.064 286.992 21.4693 286.992 20.7387C286.992 20.008 286.4 19.4133 285.669 19.4133C284.939 19.4133 284.347 20.008 284.347 20.7387C284.347 21.0347 284.448 21.304 284.611 21.5253L281.776 24.3573C281.653 24.2667 281.515 24.2 281.363 24.1573V17.2C281.915 17.04 282.323 16.536 282.323 15.9307C282.323 15.1973 281.731 14.6053 281 14.6053C280.269 14.6053 279.677 15.2 279.677 15.9307C279.677 16.5227 280.069 17.0187 280.603 17.1893V24.168C280.552 24.184 280.501 24.2 280.451 24.2213L277.517 21.28C277.595 21.112 277.64 20.928 277.64 20.7307C277.64 19.9973 277.048 19.4053 276.317 19.4053C275.771 19.4053 275.301 19.7387 275.099 20.2133H272.011V17.208C272.579 17.0587 273 16.5467 273 15.9307C273 15.6853 272.931 15.4613 272.813 15.264L275.621 12.4507C275.824 12.576 276.061 12.6533 276.317 12.6533C276.939 12.6533 277.453 12.224 277.597 11.6453H284.389C284.533 12.224 285.048 12.6533 285.669 12.6533C285.883 12.6533 286.08 12.5973 286.256 12.5093L289.131 15.392C289.056 15.5573 289.013 15.7387 289.013 15.9307C289.013 16.5307 289.413 17.0293 289.957 17.1947V24.1627C289.413 24.328 289.013 24.8267 289.013 25.4267C289.013 25.632 289.064 25.8213 289.144 25.9947L286.325 28.824C286.131 28.712 285.909 28.6427 285.669 28.6427C284.939 28.6427 284.347 29.2373 284.347 29.968C284.347 30.208 284.416 30.432 284.528 30.6267L281.736 33.424C281.525 33.2827 281.272 33.2 281 33.2C280.269 33.2 279.677 33.7947 279.677 34.5253C279.677 34.7973 279.76 35.0507 279.901 35.2613L277.051 38.1173C276.84 37.976 276.589 37.8933 276.317 37.8933C275.587 37.8933 274.995 38.488 274.995 39.2187C274.995 39.952 275.587 40.544 276.317 40.544C277.048 40.544 277.64 39.9493 277.64 39.2187C277.64 39.0373 277.603 38.8667 277.539 38.7093L280.493 35.752C280.525 35.7653 280.557 35.7707 280.589 35.7813V42.664C280.061 42.8373 279.677 43.3307 279.677 43.9173C279.677 44.6507 280.269 45.2427 281 45.2427C281.731 45.2427 282.323 44.648 282.323 43.9173C282.323 43.3067 281.909 42.7973 281.349 42.6427V35.8C281.397 35.7867 281.448 35.7733 281.496 35.7547L284.448 38.712C284.384 38.8693 284.347 39.04 284.347 39.2213C284.347 39.9547 284.939 40.5467 285.669 40.5467C286.24 40.5467 286.72 40.184 286.907 39.6773H289.96V42.6533Z" fill="#333435"/>
<defs>
<linearGradient id="paint0_linear" x1="241.5" y1="60" x2="189.875" y2="132.826" gradientUnits="userSpaceOnUse">
<stop stop-color="#333435"/>
<stop offset="0.378125" stop-color="#444749"/>
<stop offset="0.482292" stop-color="#4B4F53"/>
<stop offset="0.586458" stop-color="#444749"/>
<stop offset="1" stop-color="#333435"/>
</linearGradient>
</defs>
</svg>
