<svg width="18" height="18" viewBox="0 0 18 18" fill="none" xmlns="http://www.w3.org/2000/svg">
<path d="M6.96875 8.375H1.65625C1.28329 8.375 0.925604 8.22684 0.661881 7.96312C0.398158 7.6994 0.25 7.34171 0.25 6.96875V1.65625C0.25 1.28329 0.398158 0.925604 0.661881 0.661881C0.925604 0.398158 1.28329 0.25 1.65625 0.25H6.96875C7.34171 0.25 7.6994 0.398158 7.96312 0.661881C8.22684 0.925604 8.375 1.28329 8.375 1.65625V6.96875C8.375 7.34171 8.22684 7.6994 7.96312 7.96312C7.6994 8.22684 7.34171 8.375 6.96875 8.375ZM16.3438 8.375H11.0312C10.6583 8.375 10.3006 8.22684 10.0369 7.96312C9.77316 7.6994 9.625 7.34171 9.625 6.96875V1.65625C9.625 1.28329 9.77316 0.925604 10.0369 0.661881C10.3006 0.398158 10.6583 0.25 11.0312 0.25H16.3438C16.7167 0.25 17.0744 0.398158 17.3381 0.661881C17.6018 0.925604 17.75 1.28329 17.75 1.65625V6.96875C17.75 7.34171 17.6018 7.6994 17.3381 7.96312C17.0744 8.22684 16.7167 8.375 16.3438 8.375ZM6.96875 17.75H1.65625C1.28329 17.75 0.925604 17.6018 0.661881 17.3381C0.398158 17.0744 0.25 16.7167 0.25 16.3438V11.0312C0.25 10.6583 0.398158 10.3006 0.661881 10.0369C0.925604 9.77316 1.28329 9.625 1.65625 9.625H6.96875C7.34171 9.625 7.6994 9.77316 7.96312 10.0369C8.22684 10.3006 8.375 10.6583 8.375 11.0312V16.3438C8.375 16.7167 8.22684 17.0744 7.96312 17.3381C7.6994 17.6018 7.34171 17.75 6.96875 17.75ZM16.3438 17.75H11.0312C10.6583 17.75 10.3006 17.6018 10.0369 17.3381C9.77316 17.0744 9.625 16.7167 9.625 16.3438V11.0312C9.625 10.6583 9.77316 10.3006 10.0369 10.0369C10.3006 9.77316 10.6583 9.625 11.0312 9.625H16.3438C16.7167 9.625 17.0744 9.77316 17.3381 10.0369C17.6018 10.3006 17.75 10.6583 17.75 11.0312V16.3438C17.75 16.7167 17.6018 17.0744 17.3381 17.3381C17.0744 17.6018 16.7167 17.75 16.3438 17.75Z" fill="#333435"/>
</svg>
