<?xml version="1.0" encoding="utf-8"?>
<!-- Generator: Adobe Illustrator 23.0.3, SVG Export Plug-In . SVG Version: 6.00 Build 0)  -->
<svg version="1.1" id="Cart" xmlns="http://www.w3.org/2000/svg" xmlns:xlink="http://www.w3.org/1999/xlink" x="0px" y="0px"
	 viewBox="0 0 512 512" style="enable-background:new 0 0 512 512;" xml:space="preserve">
<style type="text/css">
	.st0{fill:#343434;}
</style>
<path class="st0" d="M371.86,166.44h-26.73v-25.88c0-14.55-11.8-26.34-26.35-26.34H140.14c-14.54,0-26.34,11.79-26.34,26.34v178.65
	c0,14.55,11.8,26.34,26.34,26.34h26.74v25.88c0,14.55,11.8,26.34,26.34,26.34h178.65c14.55,0,26.34-11.79,26.34-26.34V192.79
	C398.21,178.25,386.41,166.44,371.86,166.44z M142.02,291V168.79c0-14.55,11.79-26.34,26.34-26.34h122.22
	c13.76,0,25.05,10.54,26.23,24H193.22c-14.54,0-26.34,11.8-26.34,26.34v124.52C153.02,316.54,142.02,305.05,142.02,291z
	 M369.99,343.23c0,14.54-11.79,26.34-26.34,26.34H221.43c-13.76,0-25.06-10.56-26.23-24.01c-0.08-0.76-0.11-1.54-0.11-2.33v-25.88
	v-96.34c0-14.55,11.79-26.34,26.34-26.34h95.48h26.74c0.5,0,0.99,0.01,1.48,0.04c13.86,0.77,24.86,12.25,24.86,26.3V343.23z"/>
</svg>
