<svg width="14" height="14" viewBox="0 0 14 14" fill="none" xmlns="http://www.w3.org/2000/svg">
<path d="M7.95857 10.6908H1.56113C1.03055 10.6908 0.599998 11.1214 0.599998 11.6521V13.4H8.91968V11.6521C8.91968 11.1214 8.48915 10.6908 7.95857 10.6908Z" fill="#AFBAC5"/>
<path d="M13.2275 10.8263L7.38775 4.98582L8.5157 3.85974C8.70169 4.02376 8.98769 4.01574 9.16367 3.83974C9.34768 3.65373 9.34768 3.35569 9.16367 3.16968L6.73179 0.739479C6.54778 0.553474 6.2478 0.553474 6.06382 0.739479C5.87784 0.923505 5.87784 1.22353 6.06382 1.40753L6.04382 1.38753L2.95592 4.47377L2.97592 4.49575C2.79191 4.30975 2.49192 4.30975 2.30795 4.49575C2.12197 4.67978 2.12197 4.9798 2.30795 5.16383L4.73785 7.59601C4.92384 7.78004 5.22382 7.78004 5.40783 7.59601C5.59183 7.41001 5.59183 7.11199 5.40783 6.92601L5.42783 6.94596L6.55578 5.81987L12.3935 11.6584C12.6235 11.8884 12.9975 11.8884 13.2275 11.6584C13.4575 11.4284 13.4575 11.0563 13.2275 10.8263Z" fill="#AFBAC5"/>
</svg>
