<svg width="32" height="32" viewBox="0 0 32 32" fill="none" xmlns="http://www.w3.org/2000/svg">
<path d="M18.3964 25.2271H2.40284C1.07639 25.2271 0 26.3034 0 27.6302V32.0001H20.7992V27.6302C20.7992 26.3034 19.7229 25.2271 18.3964 25.2271Z" fill="url(#paint0_linear)"/>
<path d="M31.5686 25.5659L16.9691 10.9646L19.789 8.14941C20.254 8.55947 20.969 8.53941 21.4089 8.0994C21.8689 7.63439 21.8689 6.88928 21.4089 6.42426L15.3292 0.348759C14.8692 -0.116253 14.1192 -0.116253 13.6593 0.348759C13.1943 0.808824 13.1943 1.55889 13.6593 2.01888L13.6093 1.96888L5.88954 9.68449L5.93954 9.73945C5.47953 9.27443 4.72956 9.27443 4.26962 9.73945C3.80466 10.1995 3.80466 10.9496 4.26962 11.4096L10.3444 17.4901C10.8093 17.9502 11.5593 17.9502 12.0193 17.4901C12.4793 17.0251 12.4793 16.28 12.0193 15.8151L12.0693 15.865L14.8892 13.0497L29.4836 27.646C30.0586 28.2211 30.9936 28.2211 31.5686 27.646C32.1435 27.071 32.1435 26.1409 31.5686 25.5659Z" fill="url(#paint1_linear)"/>
<defs>
<linearGradient id="paint0_linear" x1="24.2311" y1="28.6136" x2="-3.58786" y2="28.6136" gradientUnits="userSpaceOnUse">
<stop stop-color="#19A3DD"/>
<stop offset="1" stop-color="#BADEB7"/>
</linearGradient>
<linearGradient id="paint1_linear" x1="36.6328" y1="14.0386" x2="-0.922712" y2="14.0387" gradientUnits="userSpaceOnUse">
<stop stop-color="#19A3DD"/>
<stop offset="1" stop-color="#BADEB7"/>
</linearGradient>
</defs>
</svg>
