<svg xmlns="http://www.w3.org/2000/svg" xmlns:xlink="http://www.w3.org/1999/xlink" viewBox="0 0 226.93 226.42"><defs><style>.cls-1{fill:url(#linear-gradient);}.cls-2{fill:url(#linear-gradient-2);}.cls-3{fill:url(#linear-gradient-3);}.cls-4{fill:url(#linear-gradient-4);}.cls-5{fill:url(#linear-gradient-5);}.cls-6{fill:url(#linear-gradient-6);}.cls-7{fill:url(#linear-gradient-7);}.cls-8{fill:url(#linear-gradient-8);}.cls-9{fill:url(#linear-gradient-9);}.cls-10{fill:url(#linear-gradient-10);}.cls-11{fill:url(#linear-gradient-11);}.cls-12{fill:url(#linear-gradient-12);}.cls-13{fill:url(#linear-gradient-13);}.cls-14{fill:url(#linear-gradient-14);}.cls-15{fill:url(#linear-gradient-15);}.cls-16{fill:url(#linear-gradient-16);}.cls-17{fill:url(#linear-gradient-17);}.cls-18{fill:url(#linear-gradient-18);}.cls-19{fill:url(#linear-gradient-19);}.cls-20{fill:url(#linear-gradient-20);}.cls-21{fill:url(#linear-gradient-21);}.cls-22{fill:url(#linear-gradient-22);}.cls-23{fill:url(#linear-gradient-23);}.cls-24{fill:url(#linear-gradient-24);}.cls-25{fill:url(#linear-gradient-25);}.cls-26{fill:url(#linear-gradient-26);}.cls-27{fill:url(#linear-gradient-27);}.cls-28{fill:url(#linear-gradient-28);}.cls-29{fill:url(#linear-gradient-29);}.cls-30{fill:url(#linear-gradient-30);}.cls-31{fill:url(#linear-gradient-31);}.cls-32{fill:url(#linear-gradient-32);}.cls-33{fill:url(#linear-gradient-33);}.cls-34{fill:url(#linear-gradient-34);}.cls-35{fill:url(#linear-gradient-35);}.cls-36{fill:url(#linear-gradient-36);}.cls-37{fill:url(#linear-gradient-37);}.cls-38{fill:url(#linear-gradient-38);}.cls-39{fill:url(#linear-gradient-39);}.cls-40{fill:url(#linear-gradient-40);}.cls-41{fill:url(#linear-gradient-41);}.cls-42{fill:url(#linear-gradient-42);}.cls-43{fill:url(#linear-gradient-43);}.cls-44{fill:url(#linear-gradient-44);}.cls-45{fill:url(#linear-gradient-45);}.cls-46{fill:url(#linear-gradient-46);}.cls-47{fill:url(#linear-gradient-47);}.cls-48{fill:url(#linear-gradient-48);}.cls-49{fill:url(#linear-gradient-49);}.cls-50{fill:url(#linear-gradient-50);}.cls-51{fill:url(#linear-gradient-51);}.cls-52{fill:url(#linear-gradient-52);}.cls-53{fill:url(#linear-gradient-53);}.cls-54{fill:url(#linear-gradient-54);}.cls-55{fill:url(#linear-gradient-55);}.cls-56{fill:url(#linear-gradient-56);}.cls-57{fill:url(#linear-gradient-57);}.cls-58{fill:url(#linear-gradient-58);}.cls-59{fill:url(#linear-gradient-59);}.cls-60{fill:url(#linear-gradient-60);}.cls-61{fill:url(#linear-gradient-61);}.cls-62{fill:url(#linear-gradient-62);}</style><linearGradient id="linear-gradient" x1="72.99" y1="-60" x2="283.1" y2="151.4" gradientUnits="userSpaceOnUse"><stop offset="0.01" stop-color="#badeb7"/><stop offset="1" stop-color="#00a4e3"/></linearGradient><linearGradient id="linear-gradient-2" x1="72.96" y1="-59.96" x2="283.06" y2="151.44" xlink:href="#linear-gradient"/><linearGradient id="linear-gradient-3" x1="73.26" y1="-60.27" x2="283.37" y2="151.13" xlink:href="#linear-gradient"/><linearGradient id="linear-gradient-4" x1="72.93" y1="-59.93" x2="283.03" y2="151.46" xlink:href="#linear-gradient"/><linearGradient id="linear-gradient-5" x1="46.22" y1="-33.39" x2="256.32" y2="178.01" xlink:href="#linear-gradient"/><linearGradient id="linear-gradient-6" x1="46.78" y1="-33.94" x2="256.88" y2="177.45" xlink:href="#linear-gradient"/><linearGradient id="linear-gradient-7" x1="46.38" y1="-33.55" x2="256.48" y2="177.85" xlink:href="#linear-gradient"/><linearGradient id="linear-gradient-8" x1="46.34" y1="-33.51" x2="256.45" y2="177.89" xlink:href="#linear-gradient"/><linearGradient id="linear-gradient-9" x1="46.61" y1="-33.78" x2="256.71" y2="177.62" xlink:href="#linear-gradient"/><linearGradient id="linear-gradient-10" x1="19.98" y1="-7.31" x2="230.08" y2="204.09" xlink:href="#linear-gradient"/><linearGradient id="linear-gradient-11" x1="20.61" y1="-7.93" x2="230.71" y2="203.46" xlink:href="#linear-gradient"/><linearGradient id="linear-gradient-12" x1="20.17" y1="-7.49" x2="230.27" y2="203.9" xlink:href="#linear-gradient"/><linearGradient id="linear-gradient-13" x1="19.73" y1="-7.06" x2="229.83" y2="204.34" xlink:href="#linear-gradient"/><linearGradient id="linear-gradient-14" x1="19.63" y1="-6.97" x2="229.74" y2="204.43" xlink:href="#linear-gradient"/><linearGradient id="linear-gradient-15" x1="-6.92" y1="19.43" x2="203.18" y2="230.82" xlink:href="#linear-gradient"/><linearGradient id="linear-gradient-16" x1="-6.01" y1="18.52" x2="204.09" y2="229.92" xlink:href="#linear-gradient"/><linearGradient id="linear-gradient-17" x1="-6.04" y1="18.56" x2="204.06" y2="229.95" xlink:href="#linear-gradient"/><linearGradient id="linear-gradient-18" x1="-6.54" y1="19.05" x2="203.56" y2="230.45" xlink:href="#linear-gradient"/><linearGradient id="linear-gradient-19" x1="-6.91" y1="19.41" x2="203.19" y2="230.81" xlink:href="#linear-gradient"/><linearGradient id="linear-gradient-20" x1="-33.58" y1="45.92" x2="176.52" y2="257.32" xlink:href="#linear-gradient"/><linearGradient id="linear-gradient-21" x1="-32.63" y1="44.98" x2="177.47" y2="256.37" xlink:href="#linear-gradient"/><linearGradient id="linear-gradient-22" x1="-32.72" y1="45.07" x2="177.38" y2="256.46" xlink:href="#linear-gradient"/><linearGradient id="linear-gradient-23" x1="-32.68" y1="45.03" x2="177.42" y2="256.42" xlink:href="#linear-gradient"/><linearGradient id="linear-gradient-24" x1="-33.1" y1="45.44" x2="177.01" y2="256.84" xlink:href="#linear-gradient"/><linearGradient id="linear-gradient-25" x1="47.23" y1="-34.39" x2="257.33" y2="177.01" xlink:href="#linear-gradient"/><linearGradient id="linear-gradient-26" x1="20.6" y1="-7.93" x2="230.71" y2="203.47" xlink:href="#linear-gradient"/><linearGradient id="linear-gradient-27" x1="-5.98" y1="18.49" x2="204.13" y2="229.88" xlink:href="#linear-gradient"/><linearGradient id="linear-gradient-28" x1="-32.74" y1="45.09" x2="177.36" y2="256.48" xlink:href="#linear-gradient"/><linearGradient id="linear-gradient-29" x1="-59.45" y1="71.63" x2="150.66" y2="283.03" xlink:href="#linear-gradient"/><linearGradient id="linear-gradient-30" x1="-59.26" y1="71.45" x2="150.84" y2="282.85" xlink:href="#linear-gradient"/><linearGradient id="linear-gradient-31" x1="-59.27" y1="71.46" x2="150.83" y2="282.86" xlink:href="#linear-gradient"/><linearGradient id="linear-gradient-32" x1="-59.35" y1="71.53" x2="150.75" y2="282.93" xlink:href="#linear-gradient"/><linearGradient id="linear-gradient-33" x1="59.67" y1="-46.75" x2="269.77" y2="164.64" xlink:href="#linear-gradient"/><linearGradient id="linear-gradient-34" x1="-19.54" y1="31.97" x2="190.56" y2="243.36" xlink:href="#linear-gradient"/><linearGradient id="linear-gradient-35" x1="34.92" y1="-22.16" x2="245.02" y2="189.24" xlink:href="#linear-gradient"/><linearGradient id="linear-gradient-36" x1="-46.02" y1="58.28" x2="164.09" y2="269.68" gradientTransform="translate(229.61 440.19) rotate(-180)" xlink:href="#linear-gradient"/><linearGradient id="linear-gradient-37" x1="33.57" y1="-20.82" x2="243.68" y2="190.58" xlink:href="#linear-gradient"/><linearGradient id="linear-gradient-38" x1="-21.02" y1="33.44" x2="189.08" y2="244.84" xlink:href="#linear-gradient"/><linearGradient id="linear-gradient-39" x1="6.38" y1="6.21" x2="216.48" y2="217.61" xlink:href="#linear-gradient"/><linearGradient id="linear-gradient-40" x1="6.47" y1="6.12" x2="216.57" y2="217.52" xlink:href="#linear-gradient"/><linearGradient id="linear-gradient-41" x1="72.97" y1="-59.98" x2="283.08" y2="151.42" xlink:href="#linear-gradient"/><linearGradient id="linear-gradient-42" x1="72.8" y1="-59.81" x2="282.91" y2="151.59" xlink:href="#linear-gradient"/><linearGradient id="linear-gradient-43" x1="-60.07" y1="72.25" x2="150.03" y2="283.65" xlink:href="#linear-gradient"/><linearGradient id="linear-gradient-44" x1="-59.91" y1="72.09" x2="150.2" y2="283.48" xlink:href="#linear-gradient"/><linearGradient id="linear-gradient-45" x1="20.13" y1="-7.46" x2="230.23" y2="203.94" xlink:href="#linear-gradient"/><linearGradient id="linear-gradient-46" x1="19.96" y1="-7.29" x2="230.06" y2="204.11" xlink:href="#linear-gradient"/><linearGradient id="linear-gradient-47" x1="-6.71" y1="19.22" x2="203.39" y2="230.61" xlink:href="#linear-gradient"/><linearGradient id="linear-gradient-48" x1="-6.54" y1="19.05" x2="203.56" y2="230.44" xlink:href="#linear-gradient"/><linearGradient id="linear-gradient-49" x1="34.94" y1="-22.18" x2="245.04" y2="189.22" xlink:href="#linear-gradient"/><linearGradient id="linear-gradient-50" x1="-20.24" y1="32.67" x2="189.86" y2="244.07" xlink:href="#linear-gradient"/><linearGradient id="linear-gradient-51" x1="-21.09" y1="33.51" x2="189.01" y2="244.91" xlink:href="#linear-gradient"/><linearGradient id="linear-gradient-52" x1="33.18" y1="-20.43" x2="243.28" y2="190.97" xlink:href="#linear-gradient"/><linearGradient id="linear-gradient-53" x1="-47.02" y1="59.28" x2="163.09" y2="270.67" xlink:href="#linear-gradient"/><linearGradient id="linear-gradient-54" x1="57.89" y1="-44.98" x2="267.99" y2="166.41" xlink:href="#linear-gradient"/><linearGradient id="linear-gradient-55" x1="59.55" y1="-46.63" x2="269.65" y2="164.76" xlink:href="#linear-gradient"/><linearGradient id="linear-gradient-56" x1="0.23" y1="12.32" x2="210.33" y2="223.72" xlink:href="#linear-gradient"/><linearGradient id="linear-gradient-57" x1="-46.3" y1="58.56" x2="163.8" y2="269.96" xlink:href="#linear-gradient"/><linearGradient id="linear-gradient-58" x1="13.19" y1="-0.56" x2="223.29" y2="210.84" xlink:href="#linear-gradient"/><linearGradient id="linear-gradient-59" x1="66.94" y1="-53.98" x2="277.04" y2="157.42" xlink:href="#linear-gradient"/><linearGradient id="linear-gradient-60" x1="8.47" y1="4.13" x2="218.57" y2="215.53" xlink:href="#linear-gradient"/><linearGradient id="linear-gradient-61" x1="7.35" y1="5.24" x2="217.45" y2="216.64" xlink:href="#linear-gradient"/><linearGradient id="linear-gradient-62" x1="-52.44" y1="64.67" x2="157.66" y2="276.07" xlink:href="#linear-gradient"/></defs><g id="Layer_2" data-name="Layer 2"><g id="Layer_1-2" data-name="Layer 1"><circle class="cls-1" cx="219.39" cy="87.3" r="7.54"/><circle class="cls-2" cx="192.89" cy="60.71" r="7.54"/><circle class="cls-3" cx="166.48" cy="33.53" r="7.54"/><circle class="cls-4" cx="139.99" cy="7.54" r="7.54"/><circle class="cls-5" cx="86.9" cy="7.54" r="7.54"/><circle class="cls-6" cx="192.89" cy="113.07" r="7.54"/><circle class="cls-7" cx="166.48" cy="87.3" r="7.54"/><circle class="cls-8" cx="139.99" cy="60.71" r="7.54"/><circle class="cls-9" cx="113.5" cy="33.53" r="7.54"/><circle class="cls-10" cx="60.56" cy="33.53" r="7.54"/><circle class="cls-11" cx="166.48" cy="138.84" r="7.54"/><circle class="cls-12" cx="139.99" cy="113.07" r="7.54"/><circle class="cls-13" cx="113.5" cy="87.3" r="7.54"/><circle class="cls-14" cx="86.9" cy="60.71" r="7.54"/><circle class="cls-15" cx="34.11" cy="60.71" r="7.54"/><circle class="cls-16" cx="139.99" cy="165.42" r="7.54"/><circle class="cls-17" cx="113.5" cy="138.84" r="7.54"/><circle class="cls-18" cx="86.9" cy="113.07" r="7.54"/><circle class="cls-19" cx="60.56" cy="87.3" r="7.54"/><circle class="cls-20" cx="7.54" cy="87.3" r="7.54"/><circle class="cls-21" cx="113.5" cy="192.01" r="7.54"/><circle class="cls-22" cx="86.9" cy="165.42" r="7.54"/><circle class="cls-23" cx="60.56" cy="138.84" r="7.54"/><circle class="cls-24" cx="34.11" cy="113.07" r="7.54"/><circle class="cls-25" cx="219.39" cy="138.84" r="7.54"/><circle class="cls-26" cx="192.89" cy="165.42" r="7.54"/><circle class="cls-27" cx="166.48" cy="192.01" r="7.54"/><circle class="cls-28" cx="139.99" cy="218.88" r="7.54"/><circle class="cls-29" cx="86.9" cy="218.88" r="7.54"/><circle class="cls-30" cx="60.56" cy="192.01" r="7.54"/><circle class="cls-31" cx="34.11" cy="165.42" r="7.54"/><circle class="cls-32" cx="7.54" cy="138.84" r="7.54"/><rect class="cls-33" x="90.17" y="5.05" width="46.27" height="4.34"/><path class="cls-34" d="M33.37,58.75a4.92,4.92,0,0,1-.83-.61L6.28,84.4a4.58,4.58,0,0,1,3.28,2.85L35,61.77A4.77,4.77,0,0,1,33.37,58.75Z"/><path class="cls-35" d="M64.23,32.58,90.08,6.73,87.59,5.28c-.9.21-1.81.4-2.73.53L60.49,30.19A4.28,4.28,0,0,1,64.23,32.58Z"/><rect class="cls-36" x="91.67" y="217.93" width="46.27" height="4.34" transform="translate(229.61 440.19) rotate(180)"/><path class="cls-37" d="M217.55,138.07l-26.14,26.14a4.9,4.9,0,0,1,3.06,3.08L220,141.72A18.54,18.54,0,0,1,217.55,138.07Z"/><path class="cls-38" d="M163.67,192l-27.56,27.56a3.66,3.66,0,0,1,3,3.12l28-28A5,5,0,0,1,163.67,192Z"/><path class="cls-39" d="M139.54,59.62,59.06,140.1a4.87,4.87,0,0,1,3.13,3l80.56-80.55A4.32,4.32,0,0,1,139.54,59.62Z"/><path class="cls-40" d="M166.07,84.12,83.74,166.45l.74.18h3.21a4.37,4.37,0,0,1,1.68.32l77.24-77.24A7.22,7.22,0,0,1,166.07,84.12Z"/><path class="cls-41" d="M218.93,87.78a16,16,0,0,1-.05-4.1L196.17,61a3.77,3.77,0,0,1-3.67,2.46L218.17,89.1A9.76,9.76,0,0,1,218.93,87.78Z"/><path class="cls-42" d="M166.36,31.16l-28-28a22.24,22.24,0,0,1-3.48,2.66l29.3,29.3A4.81,4.81,0,0,1,166.36,31.16Z"/><path class="cls-43" d="M34.94,164.69l-28-28c-.06.14-.13.28-.2.41a3.73,3.73,0,0,1-2,3.51l26.92,26.92A6.55,6.55,0,0,1,34.94,164.69Z"/><path class="cls-44" d="M86.62,216.37,62.38,192.13a15,15,0,0,1-1.23,4.55l-.12.24,21.82,21.81A13.08,13.08,0,0,1,86.62,216.37Z"/><path class="cls-45" d="M165.45,140.59a4.22,4.22,0,0,1,2.38-2.59l-25.67-25.67a11.52,11.52,0,0,1-1.54,3,5.28,5.28,0,0,1-.72.82l25.3,25.31A6.29,6.29,0,0,1,165.45,140.59Z"/><path class="cls-46" d="M114.51,84.68,86,56.18a4.42,4.42,0,0,1-3.47,2.67l28.73,28.73A4.84,4.84,0,0,1,114.51,84.68Z"/><path class="cls-47" d="M87,111.13c.22,0,.44-.07.66-.1L58.77,82.11a4.89,4.89,0,0,1-.93,1.34,3.45,3.45,0,0,1-2.08,1.78L84.22,113.7A3.83,3.83,0,0,1,87,111.13Z"/><path class="cls-48" d="M115.54,138.88a5.33,5.33,0,0,1-1.53,1.71l0,0a4.55,4.55,0,0,1-1.67,1l-.09,0L138.55,168a39,39,0,0,1,2.95-2.89l.16-.14Z"/><path class="cls-49" d="M115.51,84.27V29.08a13.2,13.2,0,0,1-4.34,0v55.3A4.94,4.94,0,0,1,115.51,84.27Z"/><path class="cls-50" d="M112.89,191.84a4.4,4.4,0,0,1,2.62-.37V141.3a4,4,0,0,1-4.34-.43v52A11.12,11.12,0,0,1,112.89,191.84Z"/><path class="cls-51" d="M87.58,115.22a4.82,4.82,0,0,1,0-4.33H28.18a10.68,10.68,0,0,1,.48,2.55,3.47,3.47,0,0,1-.35,1.78Z"/><path class="cls-52" d="M192.28,115.22a4.8,4.8,0,0,1,.37-4.33h-53.1a4.61,4.61,0,0,1-.51,4.33Z"/><path class="cls-53" d="M5.61,85.68l-.13,0-.11,0V141a7.22,7.22,0,0,1,4.34.78V87.35A4.47,4.47,0,0,1,5.61,85.68Z"/><path class="cls-54" d="M216.77,91.41v50.52a13.37,13.37,0,0,1,4.33-2V92.19A5,5,0,0,1,216.77,91.41Z"/><path class="cls-55" d="M168.66,86.22V34.64a.8.8,0,0,1-.15,0,4,4,0,0,1-3.08.31,11.1,11.1,0,0,1-1.11-.37V87.3A5.21,5.21,0,0,1,168.66,86.22Z"/><path class="cls-56" d="M168.19,165a4.17,4.17,0,0,1-3.87.05v29.44c1.5-1.25,3.06-2.36,4.34-3.25V164.74Z"/><path class="cls-57" d="M61.81,140.42a4.86,4.86,0,0,1-3.72,2V192a4.55,4.55,0,0,1,4.34-.47V139.59Z"/><path class="cls-58" d="M62.43,59.71V34.22a15.61,15.61,0,0,1-4.34-.54v25.7A7.14,7.14,0,0,1,62.43,59.71Z"/><path class="cls-59" d="M193.87,59a11.11,11.11,0,0,1,.36-1.11H165.42c.31,1.44.58,2.89.83,4.34H194.2l0-.15A4,4,0,0,1,193.87,59Z"/><path class="cls-60" d="M87.74,59.82c.86-.71,1.76-1.35,2.67-2h-56c1.25,1.51,2.36,3.07,3.26,4.34H86.31A3.68,3.68,0,0,1,87.74,59.82Z"/><path class="cls-61" d="M141.1,168h51.58l0-.15a4,4,0,0,1-.31-3.08,11.1,11.1,0,0,1,.37-1.11H140A5.18,5.18,0,0,1,141.1,168Z"/><path class="cls-62" d="M59.2,166.13a4.07,4.07,0,0,1,.79-2.52H32.86c1.25,1.5,2.36,3.06,3.26,4.34H59.36A13.11,13.11,0,0,1,59.2,166.13Z"/></g></g></svg>