<svg width="30" height="30" viewBox="0 0 30 30" fill="none" xmlns="http://www.w3.org/2000/svg">
<path d="M29.0076 12.565C29.5557 12.565 30 12.1197 30 11.5704C30 11.021 29.5557 10.5757 29.0076 10.5757C28.4595 10.5757 28.0152 11.021 28.0152 11.5704C28.0152 12.1197 28.4595 12.565 29.0076 12.565Z" fill="#5FF5FB"/>
<path d="M25.5052 9.04356C26.0533 9.04356 26.4976 8.59824 26.4976 8.0489C26.4976 7.49956 26.0533 7.05423 25.5052 7.05423C24.9571 7.05423 24.5128 7.49956 24.5128 8.0489C24.5128 8.59824 24.9571 9.04356 25.5052 9.04356Z" fill="#5FF5FB"/>
<path d="M22.0042 5.44198C22.5523 5.44198 22.9966 4.99665 22.9966 4.44731C22.9966 3.89797 22.5523 3.45264 22.0042 3.45264C21.4561 3.45264 21.0118 3.89797 21.0118 4.44731C21.0118 4.99665 21.4561 5.44198 22.0042 5.44198Z" fill="#5FF5FB"/>
<path d="M18.5017 1.98933C19.0498 1.98933 19.4941 1.54401 19.4941 0.994667C19.4941 0.445327 19.0498 0 18.5017 0C17.9536 0 17.5093 0.445327 17.5093 0.994667C17.5093 1.54401 17.9536 1.98933 18.5017 1.98933Z" fill="#5FF5FB"/>
<path d="M11.4866 1.98933C12.0347 1.98933 12.479 1.54401 12.479 0.994667C12.479 0.445327 12.0347 0 11.4866 0C10.9385 0 10.4942 0.445327 10.4942 0.994667C10.4942 1.54401 10.9385 1.98933 11.4866 1.98933Z" fill="#5FF5FB"/>
<path d="M25.5052 15.9718C26.0533 15.9718 26.4976 15.5265 26.4976 14.9771C26.4976 14.4278 26.0533 13.9825 25.5052 13.9825C24.9571 13.9825 24.5128 14.4278 24.5128 14.9771C24.5128 15.5265 24.9571 15.9718 25.5052 15.9718Z" fill="#5FF5FB"/>
<path d="M22.0042 12.565C22.5523 12.565 22.9966 12.1197 22.9966 11.5704C22.9966 11.021 22.5523 10.5757 22.0042 10.5757C21.4561 10.5757 21.0118 11.021 21.0118 11.5704C21.0118 12.1197 21.4561 12.565 22.0042 12.565Z" fill="#5FF5FB"/>
<path d="M18.5017 9.04356C19.0498 9.04356 19.4941 8.59824 19.4941 8.0489C19.4941 7.49956 19.0498 7.05423 18.5017 7.05423C17.9536 7.05423 17.5093 7.49956 17.5093 8.0489C17.5093 8.59824 17.9536 9.04356 18.5017 9.04356Z" fill="#5FF5FB"/>
<path d="M15.0007 5.44198C15.5488 5.44198 15.9931 4.99665 15.9931 4.44731C15.9931 3.89797 15.5488 3.45264 15.0007 3.45264C14.4526 3.45264 14.0083 3.89797 14.0083 4.44731C14.0083 4.99665 14.4526 5.44198 15.0007 5.44198Z" fill="#5FF5FB"/>
<path d="M8.00759 5.44198C8.55567 5.44198 8.99999 4.99665 8.99999 4.44731C8.99999 3.89797 8.55567 3.45264 8.00759 3.45264C7.4595 3.45264 7.01519 3.89797 7.01519 4.44731C7.01519 4.99665 7.4595 5.44198 8.00759 5.44198Z" fill="#5FF5FB"/>
<path d="M22.0042 19.3903C22.5523 19.3903 22.9966 18.9449 22.9966 18.3956C22.9966 17.8463 22.5523 17.4009 22.0042 17.4009C21.4561 17.4009 21.0118 17.8463 21.0118 18.3956C21.0118 18.9449 21.4561 19.3903 22.0042 19.3903Z" fill="#5FF5FB"/>
<path d="M18.5017 15.9718C19.0498 15.9718 19.4941 15.5265 19.4941 14.9771C19.4941 14.4278 19.0498 13.9825 18.5017 13.9825C17.9536 13.9825 17.5093 14.4278 17.5093 14.9771C17.5093 15.5265 17.9536 15.9718 18.5017 15.9718Z" fill="#5FF5FB"/>
<path d="M15.0007 12.565C15.5488 12.565 15.9931 12.1197 15.9931 11.5704C15.9931 11.021 15.5488 10.5757 15.0007 10.5757C14.4526 10.5757 14.0083 11.021 14.0083 11.5704C14.0083 12.1197 14.4526 12.565 15.0007 12.565Z" fill="#5FF5FB"/>
<path d="M11.4866 9.04356C12.0347 9.04356 12.479 8.59824 12.479 8.0489C12.479 7.49956 12.0347 7.05423 11.4866 7.05423C10.9385 7.05423 10.4942 7.49956 10.4942 8.0489C10.4942 8.59824 10.9385 9.04356 11.4866 9.04356Z" fill="#5FF5FB"/>
<path d="M4.50508 9.04356C5.05317 9.04356 5.49748 8.59824 5.49748 8.0489C5.49748 7.49956 5.05317 7.05423 4.50508 7.05423C3.957 7.05423 3.51269 7.49956 3.51269 8.0489C3.51269 8.59824 3.957 9.04356 4.50508 9.04356Z" fill="#5FF5FB"/>
<path d="M18.5017 22.9117C19.0498 22.9117 19.4941 22.4664 19.4941 21.9171C19.4941 21.3677 19.0498 20.9224 18.5017 20.9224C17.9536 20.9224 17.5093 21.3677 17.5093 21.9171C17.5093 22.4664 17.9536 22.9117 18.5017 22.9117Z" fill="#5FF5FB"/>
<path d="M15.0007 19.3903C15.5488 19.3903 15.9931 18.9449 15.9931 18.3956C15.9931 17.8463 15.5488 17.4009 15.0007 17.4009C14.4526 17.4009 14.0083 17.8463 14.0083 18.3956C14.0083 18.9449 14.4526 19.3903 15.0007 19.3903Z" fill="#5FF5FB"/>
<path d="M11.4866 15.9718C12.0347 15.9718 12.479 15.5265 12.479 14.9771C12.479 14.4278 12.0347 13.9825 11.4866 13.9825C10.9385 13.9825 10.4942 14.4278 10.4942 14.9771C10.4942 15.5265 10.9385 15.9718 11.4866 15.9718Z" fill="#5FF5FB"/>
<path d="M8.00759 12.565C8.55567 12.565 8.99999 12.1197 8.99999 11.5704C8.99999 11.021 8.55567 10.5757 8.00759 10.5757C7.4595 10.5757 7.01519 11.021 7.01519 11.5704C7.01519 12.1197 7.4595 12.565 8.00759 12.565Z" fill="#5FF5FB"/>
<path d="M0.992399 12.565C1.54049 12.565 1.9848 12.1197 1.9848 11.5704C1.9848 11.021 1.54049 10.5757 0.992399 10.5757C0.444312 10.5757 0 11.021 0 11.5704C0 12.1197 0.444312 12.565 0.992399 12.565Z" fill="#5FF5FB"/>
<path d="M15.0007 26.4332C15.5488 26.4332 15.9931 25.9879 15.9931 25.4386C15.9931 24.8892 15.5488 24.4439 15.0007 24.4439C14.4526 24.4439 14.0083 24.8892 14.0083 25.4386C14.0083 25.9879 14.4526 26.4332 15.0007 26.4332Z" fill="#5FF5FB"/>
<path d="M11.4866 22.9117C12.0347 22.9117 12.479 22.4664 12.479 21.9171C12.479 21.3677 12.0347 20.9224 11.4866 20.9224C10.9385 20.9224 10.4942 21.3677 10.4942 21.9171C10.4942 22.4664 10.9385 22.9117 11.4866 22.9117Z" fill="#5FF5FB"/>
<path d="M8.00759 19.3903C8.55567 19.3903 8.99999 18.9449 8.99999 18.3956C8.99999 17.8463 8.55567 17.4009 8.00759 17.4009C7.4595 17.4009 7.01519 17.8463 7.01519 18.3956C7.01519 18.9449 7.4595 19.3903 8.00759 19.3903Z" fill="#5FF5FB"/>
<path d="M4.50508 15.9718C5.05317 15.9718 5.49748 15.5265 5.49748 14.9771C5.49748 14.4278 5.05317 13.9825 4.50508 13.9825C3.957 13.9825 3.51269 14.4278 3.51269 14.9771C3.51269 15.5265 3.957 15.9718 4.50508 15.9718Z" fill="#5FF5FB"/>
<path d="M29.0076 19.3903C29.5557 19.3903 30 18.9449 30 18.3956C30 17.8463 29.5557 17.4009 29.0076 17.4009C28.4595 17.4009 28.0152 17.8463 28.0152 18.3956C28.0152 18.9449 28.4595 19.3903 29.0076 19.3903Z" fill="#5FF5FB"/>
<path d="M25.5052 22.9117C26.0533 22.9117 26.4976 22.4664 26.4976 21.9171C26.4976 21.3677 26.0533 20.9224 25.5052 20.9224C24.9571 20.9224 24.5128 21.3677 24.5128 21.9171C24.5128 22.4664 24.9571 22.9117 25.5052 22.9117Z" fill="#5FF5FB"/>
<path d="M22.0042 26.4332C22.5523 26.4332 22.9966 25.9879 22.9966 25.4386C22.9966 24.8892 22.5523 24.4439 22.0042 24.4439C21.4561 24.4439 21.0118 24.8892 21.0118 25.4386C21.0118 25.9879 21.4561 26.4332 22.0042 26.4332Z" fill="#5FF5FB"/>
<path d="M18.5017 29.9997C19.0498 29.9997 19.4941 29.5543 19.4941 29.005C19.4941 28.4556 19.0498 28.0103 18.5017 28.0103C17.9536 28.0103 17.5093 28.4556 17.5093 29.005C17.5093 29.5543 17.9536 29.9997 18.5017 29.9997Z" fill="#5FF5FB"/>
<path d="M11.4866 29.9997C12.0347 29.9997 12.479 29.5543 12.479 29.005C12.479 28.4556 12.0347 28.0103 11.4866 28.0103C10.9385 28.0103 10.4942 28.4556 10.4942 29.005C10.4942 29.5543 10.9385 29.9997 11.4866 29.9997Z" fill="#5FF5FB"/>
<path d="M8.00759 26.4332C8.55567 26.4332 8.99999 25.9879 8.99999 25.4386C8.99999 24.8892 8.55567 24.4439 8.00759 24.4439C7.4595 24.4439 7.01519 24.8892 7.01519 25.4386C7.01519 25.9879 7.4595 26.4332 8.00759 26.4332Z" fill="#5FF5FB"/>
<path d="M4.50508 22.9117C5.05317 22.9117 5.49748 22.4664 5.49748 21.9171C5.49748 21.3677 5.05317 20.9224 4.50508 20.9224C3.957 20.9224 3.51269 21.3677 3.51269 21.9171C3.51269 22.4664 3.957 22.9117 4.50508 22.9117Z" fill="#5FF5FB"/>
<path d="M0.992399 19.3903C1.54049 19.3903 1.9848 18.9449 1.9848 18.3956C1.9848 17.8463 1.54049 17.4009 0.992399 17.4009C0.444312 17.4009 0 17.8463 0 18.3956C0 18.9449 0.444312 19.3903 0.992399 19.3903Z" fill="#5FF5FB"/>
<path d="M18.0338 0.662488H11.9197V1.23414H18.0338V0.662488Z" fill="#5FF5FB"/>
<path d="M4.41407 7.78551C4.37985 7.76264 4.33422 7.73977 4.3 7.70548L0.832312 11.1811C1.02623 11.2268 1.19733 11.3755 1.26577 11.5584L4.6308 8.18566C4.51673 8.08276 4.42548 7.93413 4.41407 7.78551Z" fill="#5FF5FB"/>
<path d="M8.48734 4.3214L11.9094 0.891512C11.7953 0.822914 11.6927 0.765749 11.5786 0.697151C11.4645 0.720017 11.3391 0.754316 11.2136 0.765749L7.99684 4.00127C8.22498 4.00127 8.39608 4.13847 8.48734 4.3214Z" fill="#5FF5FB"/>
<path d="M12.1146 28.8793H18.2401V29.451H12.1146V28.8793Z" fill="#5FF5FB"/>
<path d="M28.7574 18.2924L25.3011 21.7566C25.495 21.8252 25.6433 21.9852 25.7003 22.1682L29.0767 18.784C28.9399 18.5897 28.8372 18.4525 28.7574 18.2924Z" fill="#5FF5FB"/>
<path d="M21.6388 25.4379L17.9886 29.085C18.1825 29.1308 18.3536 29.268 18.3879 29.4966L22.0837 25.7924C21.8898 25.7581 21.7187 25.6094 21.6388 25.4379Z" fill="#5FF5FB"/>
<path d="M18.4447 7.8998L7.80204 18.5667C7.99596 18.6239 8.15565 18.784 8.21269 18.9669L18.8667 8.28852C18.6728 8.25422 18.5131 8.09416 18.4447 7.8998Z" fill="#5FF5FB"/>
<path d="M21.9581 11.1469L11.076 22.0539C11.1102 22.0653 11.1444 22.0653 11.1786 22.0768H11.6007C11.6805 22.0768 11.7604 22.0882 11.8174 22.1225L22.0266 11.89C21.8897 11.6499 21.8897 11.3984 21.9581 11.1469Z" fill="#5FF5FB"/>
<path d="M28.9393 11.6276C28.9165 11.4561 28.9165 11.2732 28.9279 11.0903L25.9279 8.08339C25.8366 8.31205 25.6427 8.41494 25.4374 8.41494L28.8366 11.822C28.8708 11.7419 28.905 11.6848 28.9393 11.6276Z" fill="#5FF5FB"/>
<path d="M21.9927 4.12701L18.2969 0.422734C18.16 0.559929 18.0003 0.674258 17.8406 0.777155L21.719 4.66436C21.7076 4.4357 21.833 4.24134 21.9927 4.12701Z" fill="#5FF5FB"/>
<path d="M4.61994 21.8253L0.924106 18.121C0.912699 18.1439 0.9127 18.1553 0.901293 18.1782C0.924107 18.3725 0.798631 18.544 0.638934 18.6469L4.18648 22.2026C4.28914 22.0311 4.43743 21.8939 4.61994 21.8253Z" fill="#5FF5FB"/>
<path d="M11.4524 28.674L8.24708 25.4614C8.22427 25.6557 8.17864 25.8501 8.08739 26.0673C8.08739 26.0787 8.07598 26.0902 8.07598 26.1016L10.9619 28.9941C11.0988 28.8569 11.2699 28.7426 11.4524 28.674Z" fill="#5FF5FB"/>
<path d="M21.8678 18.6242C21.9248 18.4527 22.0503 18.3384 22.1872 18.2812L18.7993 14.8856C18.7537 15.0228 18.6853 15.1486 18.594 15.2858C18.5598 15.3315 18.537 15.3658 18.5027 15.4001L21.845 18.75C21.845 18.7157 21.8564 18.67 21.8678 18.6242Z" fill="#5FF5FB"/>
<path d="M15.1368 11.2156L11.3725 7.44277C11.3041 7.63713 11.1102 7.76289 10.9163 7.79719L14.7148 11.6044C14.7832 11.4214 14.9543 11.2728 15.1368 11.2156Z" fill="#5FF5FB"/>
<path d="M11.5092 14.7252C11.5434 14.7137 11.5662 14.7137 11.6004 14.7137L7.76771 10.8837C7.73349 10.9523 7.69927 11.0095 7.64224 11.0666C7.58521 11.1924 7.48254 11.261 7.36847 11.3067L11.1327 15.0796C11.1898 14.8967 11.3153 14.7595 11.5092 14.7252Z" fill="#5FF5FB"/>
<path d="M15.2741 18.4067C15.2285 18.4867 15.16 18.5667 15.0688 18.6353C15.0117 18.6925 14.9319 18.7497 14.852 18.7725C14.852 18.7725 14.8406 18.7725 14.8406 18.784L18.3197 22.271C18.4338 22.1453 18.5593 22.0309 18.7076 21.8823C18.719 21.8709 18.719 21.8709 18.7304 21.8594L15.2741 18.4067Z" fill="#5FF5FB"/>
<path d="M15.2732 11.1697V3.85264C15.0907 3.88694 14.8968 3.8755 14.7029 3.84121V11.1697C14.874 11.0783 15.0907 11.0897 15.2732 11.1697Z" fill="#5FF5FB"/>
<path d="M14.9208 25.4267C15.0463 25.3696 15.1604 25.3581 15.2631 25.381V18.727C15.0121 18.8299 14.8296 18.7842 14.6927 18.6699V25.5639C14.7726 25.5068 14.841 25.461 14.9208 25.4267Z" fill="#5FF5FB"/>
<path d="M11.5777 15.2625C11.4864 15.091 11.4978 14.8623 11.5891 14.6908H3.72976C3.76398 14.7937 3.7868 14.9081 3.7982 15.0338C3.80961 15.1139 3.7868 15.1939 3.75258 15.2739H11.5777V15.2625Z" fill="#5FF5FB"/>
<path d="M25.4149 15.2625C25.335 15.0796 25.3578 14.8509 25.4605 14.6908H18.4452C18.5251 14.8623 18.4909 15.091 18.3768 15.2625H25.4149Z" fill="#5FF5FB"/>
<path d="M0.742315 11.3524H0.719501V18.6924C0.902011 18.6695 1.10733 18.7038 1.28985 18.7953V11.5811C1.09593 11.604 0.902011 11.5354 0.742315 11.3524Z" fill="#5FF5FB"/>
<path d="M28.6541 12.1073V18.7956C28.8138 18.6813 28.9963 18.5898 29.2245 18.5327V12.2102C29.042 12.2674 28.8138 12.2331 28.6541 12.1073Z" fill="#5FF5FB"/>
<path d="M22.3013 11.4216V4.59609C22.2899 4.59609 22.2899 4.59609 22.2784 4.59609C22.1644 4.65325 22.0275 4.67612 21.8678 4.64182C21.8108 4.63038 21.7651 4.60752 21.7195 4.59609V11.5816C21.8792 11.4444 22.1073 11.3758 22.3013 11.4216Z" fill="#5FF5FB"/>
<path d="M22.2328 21.8599C22.0503 21.9514 21.8678 21.9399 21.7195 21.8713V25.77C21.9134 25.6099 22.1188 25.4613 22.2899 25.3355V21.8256C22.2785 21.837 22.2556 21.8485 22.2328 21.8599Z" fill="#5FF5FB"/>
<path d="M8.16802 18.6014C8.04255 18.7728 7.86004 18.8529 7.67753 18.8643V25.4383C7.84863 25.3239 8.07677 25.2896 8.24787 25.3811V18.4985C8.22506 18.5328 8.20224 18.5671 8.16802 18.6014Z" fill="#5FF5FB"/>
<path d="M8.25814 7.91142V4.5387C8.06423 4.5387 7.87031 4.51583 7.6878 4.4701V7.87712C7.8589 7.80852 8.06423 7.85425 8.25814 7.91142Z" fill="#5FF5FB"/>
<path d="M25.6318 7.8082C25.6432 7.75104 25.666 7.70531 25.6774 7.65957H21.8675C21.9131 7.85394 21.9474 8.03686 21.9816 8.23122H25.6774C25.6774 8.21979 25.6774 8.21979 25.6774 8.20836C25.609 8.10546 25.5862 7.96827 25.6318 7.8082Z" fill="#5FF5FB"/>
<path d="M11.6007 7.92253C11.7147 7.83107 11.8288 7.73961 11.9543 7.65957H4.53981C4.6995 7.85394 4.84779 8.05973 4.97327 8.23122H11.4068C11.4296 8.12833 11.4866 8.02543 11.6007 7.92253Z" fill="#5FF5FB"/>
<path d="M18.651 22.2603H25.4724C25.4724 22.2488 25.4724 22.2488 25.4724 22.2374C25.4153 22.1231 25.3925 21.9859 25.4267 21.8258C25.4381 21.7686 25.4609 21.7229 25.4724 21.6772H18.5027C18.6396 21.8258 18.6967 22.0545 18.651 22.2603Z" fill="#5FF5FB"/>
<path d="M7.82553 22.0087C7.82553 21.8715 7.85975 21.7572 7.92819 21.6772H4.34643C4.50613 21.8715 4.65442 22.0773 4.77989 22.2488H7.84834C7.83694 22.1802 7.82553 22.1002 7.82553 22.0087Z" fill="#5FF5FB"/>
</svg>
