<svg width="18" height="18" viewBox="0 0 18 18" fill="none" xmlns="http://www.w3.org/2000/svg">
<path d="M0.875 5.87499V5.90078C0.874077 6.06183 0.815927 6.21731 0.710937 6.33945V6.3414C0.5 6.59062 0.25 7.03671 0.25 7.74999C0.25 8.39648 0.457031 8.85273 0.70625 9.15273C0.815594 9.2858 0.875251 9.45276 0.875 9.62499C0.875 9.95651 1.0067 10.2745 1.24112 10.5089C1.47554 10.7433 1.79348 10.875 2.125 10.875H2.4375C2.52038 10.875 2.59987 10.8421 2.65847 10.7835C2.71708 10.7249 2.75 10.6454 2.75 10.5625V4.9375C2.75 4.85461 2.71708 4.77513 2.65847 4.71652C2.59987 4.65792 2.52038 4.625 2.4375 4.625H2.125C1.79348 4.625 1.47554 4.75669 1.24112 4.99111C1.0067 5.22553 0.875 5.54347 0.875 5.87499ZM16.6633 6.2871L16.627 6.28046C16.5912 6.27365 16.559 6.25458 16.5358 6.22656C16.5127 6.19854 16.5 6.16331 16.5 6.12695V1.42187C16.5 0.928121 16.1723 0.484371 15.684 0.315621C15.2184 0.155074 14.7332 0.285933 14.4465 0.648824C13.8365 1.37719 13.166 2.05265 12.4422 2.66796C11.5191 3.44921 10.6359 4.00585 9.825 4.3207C9.76586 4.34325 9.71497 4.38321 9.67905 4.43532C9.64312 4.48742 9.62387 4.54921 9.62383 4.61249V10.6797C9.62393 10.8019 9.65984 10.9213 9.72711 11.0233C9.79438 11.1253 9.89007 11.2053 10.0023 11.2535C10.7578 11.5773 11.5742 12.1062 12.4242 12.8269C13.1535 13.4478 13.8289 14.1294 14.443 14.8644C14.5414 14.9879 14.6669 15.0869 14.8099 15.1538C14.9529 15.2207 15.1094 15.2536 15.2672 15.25C15.4059 15.2494 15.5436 15.2264 15.675 15.182C16.1762 15.0156 16.5 14.5879 16.5 14.0937V9.37226C16.5 9.33538 16.5131 9.2997 16.5369 9.27153C16.5607 9.24337 16.5937 9.22453 16.6301 9.21835L16.6633 9.21288C17.0391 9.11093 17.75 8.6746 17.75 7.74999C17.75 6.82539 17.0391 6.38906 16.6633 6.2871ZM8.375 11.5V4.9375C8.375 4.85461 8.34208 4.77513 8.28347 4.71652C8.22487 4.65792 8.14538 4.625 8.0625 4.625H4.3125C4.22962 4.625 4.15013 4.65792 4.09153 4.71652C4.03292 4.77513 4 4.85461 4 4.9375V16.8125C4 17.0611 4.09877 17.2996 4.27459 17.4754C4.4504 17.6512 4.68886 17.75 4.9375 17.75H6.98633C7.18108 17.7516 7.37362 17.7086 7.54919 17.6243C7.72477 17.54 7.87871 17.4167 7.99922 17.2637C8.12278 17.1053 8.20588 16.9192 8.24134 16.7215C8.2768 16.5237 8.26355 16.3203 8.20273 16.1289C8.13945 15.9266 8.06094 15.6992 7.97734 15.4574C7.66836 14.5629 7.26094 14.0094 7.15234 12.7496C7.47903 12.7425 7.78994 12.6077 8.01847 12.3741C8.24699 12.1405 8.37498 11.8268 8.375 11.5Z" fill="url(#paint0_linear)"/>
<defs>
<linearGradient id="paint0_linear" x1="20.6375" y1="8.99901" x2="-2.76875" y2="8.99901" gradientUnits="userSpaceOnUse">
<stop stop-color="#19A3DD"/>
<stop offset="1" stop-color="#BADEB7"/>
</linearGradient>
</defs>
</svg>
