<svg width="57" height="57" viewBox="0 0 57 57" fill="none" xmlns="http://www.w3.org/2000/svg">
<g clip-path="url(#clip0)">
<path fill-rule="evenodd" clip-rule="evenodd" d="M37.6269 25.689C36.9629 26.353 36.552 27.271 36.552 28.2844C36.552 29.2978 36.9629 30.2159 37.6269 30.8798C38.2908 31.5438 39.2079 31.9547 40.2223 31.9547C41.2357 31.9547 42.1537 31.5438 42.8177 30.8798C43.4817 30.2159 43.8926 29.2978 43.8926 28.2844C43.8926 27.271 43.4822 26.3535 42.8177 25.689C42.1537 25.025 41.2357 24.6141 40.2223 24.6141C39.2084 24.6146 38.2908 25.026 37.6269 25.689ZM28.3948 26.8581C28.0295 27.2234 27.8041 27.7275 27.8036 28.2844C27.8036 28.8418 28.0295 29.3465 28.3948 29.7117C28.7601 30.077 29.2642 30.3024 29.8216 30.3024C30.379 30.3024 30.8832 30.076 31.2485 29.7107C31.6132 29.3459 31.8392 28.8413 31.8392 28.2839C31.8392 27.7265 31.6132 27.2229 31.2479 26.8576C30.8832 26.4918 30.378 26.2664 29.8211 26.2659C29.2642 26.2664 28.7596 26.4923 28.3948 26.8581ZM20.5128 20.4915C22.4811 19.306 24.5068 18.3807 26.5884 17.7152C26.1621 17.0103 25.6447 16.3617 25.0488 15.7863C24.3044 15.0675 23.4391 14.4656 22.479 14.0147C20.9728 13.3077 19.3365 13.0188 17.7273 13.1351C16.5059 13.2232 15.3024 13.5464 14.1856 14.0987C15.5612 14.6413 16.783 15.4205 17.8149 16.4124C18.9691 17.5205 19.8846 18.893 20.5128 20.4915ZM36.8471 31.6606C35.9828 30.7963 35.4485 29.6031 35.4485 28.2844C35.449 26.9662 35.9828 25.7725 36.8471 24.9092C37.7109 24.0455 38.9041 23.5111 40.2228 23.5111C41.5405 23.5111 42.7342 24.0449 43.5985 24.9092C44.4623 25.773 44.9971 26.9667 44.9971 28.2844C44.9966 29.6026 44.4628 30.7963 43.599 31.6601C42.7352 32.5239 41.541 33.0582 40.2233 33.0582C38.9036 33.0582 37.7104 32.5239 36.8471 31.6606ZM27.614 30.4915C27.05 29.9274 26.7006 29.1466 26.7006 28.2849C26.7006 27.4232 27.0505 26.6429 27.6146 26.0778C28.1791 25.5133 28.9599 25.1639 29.8222 25.1633C30.6839 25.1633 31.4641 25.5133 32.0287 26.0778C32.5933 26.6424 32.9432 27.4227 32.9432 28.2844C32.9432 29.1461 32.5938 29.9269 32.0292 30.4915C31.4647 31.0561 30.6839 31.4055 29.8216 31.406C28.9599 31.406 28.1791 31.0566 27.614 30.4915ZM19.5726 22.4224C20.254 26.2751 20.2586 30.2942 19.5726 34.1474C26.4618 38.9761 35.0699 40.3337 43.0559 37.7383C45.6124 36.9073 47.9963 35.6987 50.1408 34.1802C49.7735 32.236 49.5839 30.2768 49.5834 28.2854C49.5834 26.2874 49.7715 24.3493 50.1403 22.3912C47.9957 20.8716 45.6119 19.6641 43.0554 18.8331C35.2553 16.2966 26.6606 17.5364 19.9041 22.1903L19.5726 22.4224ZM26.5884 38.8546C24.5073 38.1896 22.4816 37.2644 20.5122 36.0789C19.8841 37.6763 18.9686 39.0488 17.8138 40.1575C16.782 41.1483 15.5606 41.9291 14.1851 42.4706C15.3019 43.0229 16.5054 43.3462 17.7267 43.4353C19.3349 43.5516 20.9728 43.2621 22.4775 42.5556C23.4381 42.1053 24.3039 41.5028 25.0478 40.7846C25.6447 40.2082 26.1621 39.5596 26.5884 38.8546ZM18.4758 22.5346C12.8838 19.5268 8.76419 26.1157 4.09642 28.2854C8.76419 30.4551 12.8838 37.0431 18.4752 34.0357C18.5869 33.4035 18.6843 32.7662 18.7586 32.1284C16.3722 33.1868 12.6291 31.946 11.2356 30.0391C11.8796 30.2015 13.8377 29.9351 14.0314 29.2322C14.3674 28.0098 10.6408 30.1216 8.13608 28.1425C9.39485 27.9299 9.93945 27.3545 11.7341 26.0404C13.5308 24.7243 15.4864 23.2934 18.7432 24.3206C18.6858 23.7376 18.5777 23.112 18.4758 22.5346ZM51.1245 23.1223C50.8309 24.8298 50.6865 26.5482 50.687 28.2844C50.687 30.0202 50.834 31.738 51.125 33.4471C52.0103 32.7554 52.8526 32.0075 53.6461 31.2077C54.5458 30.2999 55.3839 29.3234 56.1504 28.2844C55.3829 27.2464 54.5453 26.2694 53.6456 25.3616C52.852 24.5619 52.0093 23.8134 51.1245 23.1223Z" fill="#F0B90B"/>
</g>
<defs>
<clipPath id="clip0">
<rect width="40.0007" height="40" fill="white" transform="translate(28.2843) rotate(45)"/>
</clipPath>
</defs>
</svg>
