<svg width="20" height="20" viewBox="0 0 20 20" fill="none" xmlns="http://www.w3.org/2000/svg">
<rect width="20" height="20" rx="10" fill="#EFB82D"/>
<path d="M16.5369 8.8639C16.7926 8.8639 17 8.65608 17 8.39972C17 8.14337 16.7926 7.93555 16.5369 7.93555C16.2811 7.93555 16.0737 8.14337 16.0737 8.39972C16.0737 8.65608 16.2811 8.8639 16.5369 8.8639Z" fill="#0F0F10"/>
<path d="M14.9023 7.22035C15.1581 7.22035 15.3654 7.01253 15.3654 6.75617C15.3654 6.49981 15.1581 6.29199 14.9023 6.29199C14.6466 6.29199 14.4392 6.49981 14.4392 6.75617C14.4392 7.01253 14.6466 7.22035 14.9023 7.22035Z" fill="#0F0F10"/>
<path d="M13.2685 5.53968C13.5243 5.53968 13.7317 5.33186 13.7317 5.07551C13.7317 4.81915 13.5243 4.61133 13.2685 4.61133C13.0128 4.61133 12.8054 4.81915 12.8054 5.07551C12.8054 5.33186 13.0128 5.53968 13.2685 5.53968Z" fill="#0F0F10"/>
<path d="M11.634 3.92835C11.8898 3.92835 12.0971 3.72053 12.0971 3.46418C12.0971 3.20782 11.8898 3 11.634 3C11.3782 3 11.1709 3.20782 11.1709 3.46418C11.1709 3.72053 11.3782 3.92835 11.634 3.92835Z" fill="#0F0F10"/>
<path d="M8.36034 3.92835C8.61611 3.92835 8.82345 3.72053 8.82345 3.46418C8.82345 3.20782 8.61611 3 8.36034 3C8.10456 3 7.89722 3.20782 7.89722 3.46418C7.89722 3.72053 8.10456 3.92835 8.36034 3.92835Z" fill="#0F0F10"/>
<path d="M14.9023 10.4537C15.1581 10.4537 15.3654 10.2459 15.3654 9.98957C15.3654 9.73321 15.1581 9.52539 14.9023 9.52539C14.6466 9.52539 14.4392 9.73321 14.4392 9.98957C14.4392 10.2459 14.6466 10.4537 14.9023 10.4537Z" fill="#0F0F10"/>
<path d="M13.2685 8.8639C13.5243 8.8639 13.7317 8.65608 13.7317 8.39972C13.7317 8.14337 13.5243 7.93555 13.2685 7.93555C13.0128 7.93555 12.8054 8.14337 12.8054 8.39972C12.8054 8.65608 13.0128 8.8639 13.2685 8.8639Z" fill="#0F0F10"/>
<path d="M11.634 7.22035C11.8898 7.22035 12.0971 7.01253 12.0971 6.75617C12.0971 6.49981 11.8898 6.29199 11.634 6.29199C11.3782 6.29199 11.1709 6.49981 11.1709 6.75617C11.1709 7.01253 11.3782 7.22035 11.634 7.22035Z" fill="#0F0F10"/>
<path d="M10.0005 5.53968C10.2562 5.53968 10.4636 5.33186 10.4636 5.07551C10.4636 4.81915 10.2562 4.61133 10.0005 4.61133C9.7447 4.61133 9.53735 4.81915 9.53735 5.07551C9.53735 5.33186 9.7447 5.53968 10.0005 5.53968Z" fill="#0F0F10"/>
<path d="M6.7368 5.53968C6.99257 5.53968 7.19992 5.33186 7.19992 5.07551C7.19992 4.81915 6.99257 4.61133 6.7368 4.61133C6.48103 4.61133 6.27368 4.81915 6.27368 5.07551C6.27368 5.33186 6.48103 5.53968 6.7368 5.53968Z" fill="#0F0F10"/>
<path d="M13.2685 12.0485C13.5243 12.0485 13.7317 11.8407 13.7317 11.5843C13.7317 11.3279 13.5243 11.1201 13.2685 11.1201C13.0128 11.1201 12.8054 11.3279 12.8054 11.5843C12.8054 11.8407 13.0128 12.0485 13.2685 12.0485Z" fill="#0F0F10"/>
<path d="M11.634 10.4537C11.8898 10.4537 12.0971 10.2459 12.0971 9.98957C12.0971 9.73321 11.8898 9.52539 11.634 9.52539C11.3782 9.52539 11.1709 9.73321 11.1709 9.98957C11.1709 10.2459 11.3782 10.4537 11.634 10.4537Z" fill="#0F0F10"/>
<path d="M10.0005 8.8639C10.2562 8.8639 10.4636 8.65608 10.4636 8.39972C10.4636 8.14337 10.2562 7.93555 10.0005 7.93555C9.7447 7.93555 9.53735 8.14337 9.53735 8.39972C9.53735 8.65608 9.7447 8.8639 10.0005 8.8639Z" fill="#0F0F10"/>
<path d="M8.36034 7.22035C8.61611 7.22035 8.82345 7.01253 8.82345 6.75617C8.82345 6.49981 8.61611 6.29199 8.36034 6.29199C8.10456 6.29199 7.89722 6.49981 7.89722 6.75617C7.89722 7.01253 8.10456 7.22035 8.36034 7.22035Z" fill="#0F0F10"/>
<path d="M5.10252 7.22035C5.3583 7.22035 5.56564 7.01253 5.56564 6.75617C5.56564 6.49981 5.3583 6.29199 5.10252 6.29199C4.84675 6.29199 4.6394 6.49981 4.6394 6.75617C4.6394 7.01253 4.84675 7.22035 5.10252 7.22035Z" fill="#0F0F10"/>
<path d="M11.634 13.692C11.8898 13.692 12.0971 13.4842 12.0971 13.2278C12.0971 12.9715 11.8898 12.7637 11.634 12.7637C11.3782 12.7637 11.1709 12.9715 11.1709 13.2278C11.1709 13.4842 11.3782 13.692 11.634 13.692Z" fill="#0F0F10"/>
<path d="M10.0005 12.0485C10.2562 12.0485 10.4636 11.8407 10.4636 11.5843C10.4636 11.3279 10.2562 11.1201 10.0005 11.1201C9.7447 11.1201 9.53735 11.3279 9.53735 11.5843C9.53735 11.8407 9.7447 12.0485 10.0005 12.0485Z" fill="#0F0F10"/>
<path d="M8.36034 10.4537C8.61611 10.4537 8.82345 10.2459 8.82345 9.98957C8.82345 9.73321 8.61611 9.52539 8.36034 9.52539C8.10456 9.52539 7.89722 9.73321 7.89722 9.98957C7.89722 10.2459 8.10456 10.4537 8.36034 10.4537Z" fill="#0F0F10"/>
<path d="M6.7368 8.8639C6.99257 8.8639 7.19992 8.65608 7.19992 8.39972C7.19992 8.14337 6.99257 7.93555 6.7368 7.93555C6.48103 7.93555 6.27368 8.14337 6.27368 8.39972C6.27368 8.65608 6.48103 8.8639 6.7368 8.8639Z" fill="#0F0F10"/>
<path d="M3.46312 8.8639C3.71889 8.8639 3.92624 8.65608 3.92624 8.39972C3.92624 8.14337 3.71889 7.93555 3.46312 7.93555C3.20735 7.93555 3 8.14337 3 8.39972C3 8.65608 3.20735 8.8639 3.46312 8.8639Z" fill="#0F0F10"/>
<path d="M10.0005 15.3356C10.2562 15.3356 10.4636 15.1278 10.4636 14.8714C10.4636 14.615 10.2562 14.4072 10.0005 14.4072C9.7447 14.4072 9.53735 14.615 9.53735 14.8714C9.53735 15.1278 9.7447 15.3356 10.0005 15.3356Z" fill="#0F0F10"/>
<path d="M8.36034 13.692C8.61611 13.692 8.82345 13.4842 8.82345 13.2278C8.82345 12.9715 8.61611 12.7637 8.36034 12.7637C8.10456 12.7637 7.89722 12.9715 7.89722 13.2278C7.89722 13.4842 8.10456 13.692 8.36034 13.692Z" fill="#0F0F10"/>
<path d="M6.7368 12.0485C6.99257 12.0485 7.19992 11.8407 7.19992 11.5843C7.19992 11.3279 6.99257 11.1201 6.7368 11.1201C6.48103 11.1201 6.27368 11.3279 6.27368 11.5843C6.27368 11.8407 6.48103 12.0485 6.7368 12.0485Z" fill="#0F0F10"/>
<path d="M5.10252 10.4537C5.3583 10.4537 5.56564 10.2459 5.56564 9.98957C5.56564 9.73321 5.3583 9.52539 5.10252 9.52539C4.84675 9.52539 4.6394 9.73321 4.6394 9.98957C4.6394 10.2459 4.84675 10.4537 5.10252 10.4537Z" fill="#0F0F10"/>
<path d="M16.5369 12.0485C16.7926 12.0485 17 11.8407 17 11.5843C17 11.3279 16.7926 11.1201 16.5369 11.1201C16.2811 11.1201 16.0737 11.3279 16.0737 11.5843C16.0737 11.8407 16.2811 12.0485 16.5369 12.0485Z" fill="#0F0F10"/>
<path d="M14.9023 13.692C15.1581 13.692 15.3654 13.4842 15.3654 13.2278C15.3654 12.9715 15.1581 12.7637 14.9023 12.7637C14.6466 12.7637 14.4392 12.9715 14.4392 13.2278C14.4392 13.4842 14.6466 13.692 14.9023 13.692Z" fill="#0F0F10"/>
<path d="M13.2685 15.3356C13.5243 15.3356 13.7317 15.1278 13.7317 14.8714C13.7317 14.615 13.5243 14.4072 13.2685 14.4072C13.0128 14.4072 12.8054 14.615 12.8054 14.8714C12.8054 15.1278 13.0128 15.3356 13.2685 15.3356Z" fill="#0F0F10"/>
<path d="M11.634 16.9996C11.8898 16.9996 12.0971 16.7918 12.0971 16.5355C12.0971 16.2791 11.8898 16.0713 11.634 16.0713C11.3782 16.0713 11.1709 16.2791 11.1709 16.5355C11.1709 16.7918 11.3782 16.9996 11.634 16.9996Z" fill="#0F0F10"/>
<path d="M8.36034 16.9996C8.61611 16.9996 8.82345 16.7918 8.82345 16.5355C8.82345 16.2791 8.61611 16.0713 8.36034 16.0713C8.10456 16.0713 7.89722 16.2791 7.89722 16.5355C7.89722 16.7918 8.10456 16.9996 8.36034 16.9996Z" fill="#0F0F10"/>
<path d="M6.7368 15.3356C6.99257 15.3356 7.19992 15.1278 7.19992 14.8714C7.19992 14.615 6.99257 14.4072 6.7368 14.4072C6.48103 14.4072 6.27368 14.615 6.27368 14.8714C6.27368 15.1278 6.48103 15.3356 6.7368 15.3356Z" fill="#0F0F10"/>
<path d="M5.10252 13.692C5.3583 13.692 5.56564 13.4842 5.56564 13.2278C5.56564 12.9715 5.3583 12.7637 5.10252 12.7637C4.84675 12.7637 4.6394 12.9715 4.6394 13.2278C4.6394 13.4842 4.84675 13.692 5.10252 13.692Z" fill="#0F0F10"/>
<path d="M3.46312 12.0485C3.71889 12.0485 3.92624 11.8407 3.92624 11.5843C3.92624 11.3279 3.71889 11.1201 3.46312 11.1201C3.20735 11.1201 3 11.3279 3 11.5843C3 11.8407 3.20735 12.0485 3.46312 12.0485Z" fill="#0F0F10"/>
<path d="M11.4157 3.30957H8.5625V3.57634H11.4157V3.30957Z" fill="#0F0F10"/>
<path d="M5.05967 6.63305C5.0437 6.62238 5.02241 6.61171 5.00644 6.5957L3.38818 8.21766C3.47868 8.239 3.55853 8.30836 3.59047 8.39372L5.16081 6.81979C5.10758 6.77177 5.06499 6.70241 5.05967 6.63305Z" fill="#0F0F10"/>
<path d="M6.96059 5.01651L8.55755 3.4159C8.50431 3.38388 8.45641 3.35721 8.40317 3.3252C8.34994 3.33587 8.29139 3.35187 8.23283 3.35721L6.73169 4.86712C6.83815 4.86712 6.918 4.93114 6.96059 5.01651Z" fill="#0F0F10"/>
<path d="M8.65332 16.4766H11.5119V16.7433H8.65332V16.4766Z" fill="#0F0F10"/>
<path d="M16.4198 11.5361L14.8069 13.1527C14.8974 13.1848 14.9666 13.2595 14.9932 13.3448L16.5689 11.7656C16.505 11.6749 16.4571 11.6108 16.4198 11.5361Z" fill="#0F0F10"/>
<path d="M13.098 14.8711L11.3945 16.5731C11.485 16.5944 11.5649 16.6584 11.5808 16.7651L13.3056 15.0365C13.2151 15.0205 13.1352 14.9511 13.098 14.8711Z" fill="#0F0F10"/>
<path d="M11.6074 6.68652L6.64087 11.6644C6.73136 11.6911 6.80589 11.7658 6.8325 11.8512L11.8044 6.86793C11.7139 6.85192 11.6394 6.77722 11.6074 6.68652Z" fill="#0F0F10"/>
<path d="M13.247 8.20215L8.1687 13.2921C8.18467 13.2974 8.20064 13.2974 8.21661 13.3028H8.41357C8.45083 13.3028 8.48809 13.3081 8.51471 13.3241L13.279 8.54895C13.2151 8.4369 13.2151 8.31953 13.247 8.20215Z" fill="#0F0F10"/>
<path d="M16.5048 8.42545C16.4942 8.34542 16.4942 8.26005 16.4995 8.17469L15.0995 6.77148C15.0569 6.87819 14.9664 6.92621 14.8706 6.92621L16.4569 8.51615C16.4729 8.4788 16.4889 8.45212 16.5048 8.42545Z" fill="#0F0F10"/>
<path d="M13.2631 4.92592L11.5384 3.19727C11.4745 3.26129 11.4 3.31464 11.3254 3.36266L13.1353 5.17669C13.13 5.06998 13.1886 4.97928 13.2631 4.92592Z" fill="#0F0F10"/>
<path d="M5.15589 13.1847L3.43118 11.4561C3.42585 11.4667 3.42585 11.4721 3.42053 11.4827C3.43118 11.5734 3.37262 11.6535 3.2981 11.7015L4.95361 13.3608C5.00152 13.2808 5.07072 13.2167 5.15589 13.1847Z" fill="#0F0F10"/>
<path d="M8.34422 16.3811L6.8484 14.8818C6.83776 14.9725 6.81646 15.0632 6.77388 15.1646C6.77388 15.1699 6.76855 15.1753 6.76855 15.1806L8.11532 16.5305C8.1792 16.4664 8.25905 16.4131 8.34422 16.3811Z" fill="#0F0F10"/>
<path d="M13.2049 11.691C13.2315 11.6109 13.29 11.5576 13.3539 11.5309L11.7729 9.94629C11.7516 10.0103 11.7197 10.069 11.6771 10.133C11.6611 10.1544 11.6505 10.1704 11.6345 10.1864L13.1942 11.7496C13.1942 11.7336 13.1995 11.7123 13.2049 11.691Z" fill="#0F0F10"/>
<path d="M10.0638 8.23333L8.30717 6.47266C8.27523 6.56336 8.18473 6.62205 8.09424 6.63805L9.86687 8.41473C9.8988 8.32936 9.97865 8.26 10.0638 8.23333Z" fill="#0F0F10"/>
<path d="M8.3708 9.87178C8.38677 9.86645 8.39741 9.86645 8.41338 9.86645L6.62479 8.0791C6.60882 8.11111 6.59285 8.13779 6.56623 8.16447C6.53962 8.22316 6.49171 8.25517 6.43848 8.27651L8.19513 10.0372C8.22175 9.95182 8.2803 9.88779 8.3708 9.87178Z" fill="#0F0F10"/>
<path d="M10.1278 11.5898C10.1065 11.6272 10.0746 11.6645 10.032 11.6966C10.0054 11.7232 9.96812 11.7499 9.93086 11.7606C9.93086 11.7606 9.92554 11.7606 9.92554 11.7659L11.5491 13.3932C11.6023 13.3345 11.6609 13.2812 11.7301 13.2118C11.7354 13.2065 11.7354 13.2065 11.7408 13.2011L10.1278 11.5898Z" fill="#0F0F10"/>
<path d="M10.1275 8.21294V4.7983C10.0423 4.81431 9.95182 4.80897 9.86133 4.79297V8.21294C9.94118 8.17026 10.0423 8.17559 10.1275 8.21294Z" fill="#0F0F10"/>
<path d="M9.96291 14.8661C10.0215 14.8394 10.0747 14.8341 10.1226 14.8448V11.7396C10.0055 11.7876 9.92032 11.7662 9.85645 11.7129V14.9301C9.89371 14.9034 9.92565 14.8821 9.96291 14.8661Z" fill="#0F0F10"/>
<path d="M8.40284 10.1222C8.36025 10.0422 8.36558 9.9355 8.40816 9.85547H4.74048C4.75645 9.90349 4.76709 9.95684 4.77242 10.0155C4.77774 10.0529 4.76709 10.0902 4.75112 10.1276H8.40284V10.1222Z" fill="#0F0F10"/>
<path d="M14.8601 10.1222C14.8228 10.0369 14.8335 9.93016 14.8814 9.85547H11.6076C11.6449 9.9355 11.6289 10.0422 11.5757 10.1222H14.8601Z" fill="#0F0F10"/>
<path d="M3.3461 8.29785H3.34077H3.33545V11.7232C3.42062 11.7125 3.51644 11.7285 3.60161 11.7712V8.40456C3.51111 8.41523 3.42062 8.38322 3.3461 8.29785Z" fill="#0F0F10"/>
<path d="M16.3718 8.65039V11.7716C16.4464 11.7182 16.5315 11.6755 16.638 11.6489V8.69841C16.5528 8.72509 16.4464 8.70908 16.3718 8.65039Z" fill="#0F0F10"/>
<path d="M13.4072 8.32975V5.14453C13.4019 5.14453 13.4019 5.14453 13.3966 5.14453C13.3433 5.17121 13.2795 5.18188 13.2049 5.16587C13.1783 5.16054 13.157 5.14987 13.1357 5.14453V8.40444C13.2103 8.34042 13.3167 8.3084 13.4072 8.32975Z" fill="#0F0F10"/>
<path d="M13.3753 13.2016C13.2901 13.2442 13.2049 13.2389 13.1357 13.2069V15.0262C13.2262 14.9516 13.3221 14.8822 13.4019 14.8235V13.1855C13.3966 13.1909 13.3859 13.1962 13.3753 13.2016Z" fill="#0F0F10"/>
<path d="M6.81142 11.6808C6.75286 11.7609 6.66769 11.7982 6.58252 11.8035V14.8714C6.66237 14.818 6.76883 14.802 6.84868 14.8447V11.6328C6.83803 11.6488 6.82739 11.6648 6.81142 11.6808Z" fill="#0F0F10"/>
<path d="M6.85356 6.69188V5.11795C6.76307 5.11795 6.67257 5.10728 6.5874 5.08594V6.67588C6.66725 6.64386 6.76307 6.66521 6.85356 6.69188Z" fill="#0F0F10"/>
<path d="M14.9612 6.64358C14.9666 6.6169 14.9772 6.59556 14.9825 6.57422H13.2046C13.2259 6.66492 13.2419 6.75028 13.2578 6.84098H14.9825C14.9825 6.83565 14.9825 6.83565 14.9825 6.83031C14.9506 6.7823 14.94 6.71827 14.9612 6.64358Z" fill="#0F0F10"/>
<path d="M8.41347 6.69693C8.4667 6.65425 8.51993 6.61157 8.57849 6.57422H5.11841C5.19293 6.66492 5.26213 6.76095 5.32069 6.84098H8.32297C8.33362 6.79297 8.36024 6.74495 8.41347 6.69693Z" fill="#0F0F10"/>
<path d="M11.7037 13.3873H14.887C14.887 13.382 14.887 13.382 14.887 13.3767C14.8604 13.3233 14.8497 13.2593 14.8657 13.1846C14.871 13.1579 14.8817 13.1366 14.887 13.1152H11.6345C11.6984 13.1846 11.725 13.2913 11.7037 13.3873Z" fill="#0F0F10"/>
<path d="M6.6519 13.27C6.6519 13.2059 6.66787 13.1526 6.69981 13.1152H5.02832C5.10285 13.2059 5.17205 13.302 5.2306 13.382H6.66254C6.65722 13.35 6.6519 13.3126 6.6519 13.27Z" fill="#0F0F10"/>
</svg>
