<svg id="Layer_1" data-name="Layer 1" xmlns="http://www.w3.org/2000/svg" viewBox="0 0 53.88 64.02"><defs><style>.cls-1{fill:#c6b79b;}.cls-2{fill:#a3947b;}.cls-3{fill:#3c5a99;}.cls-4{fill:#2f5089;}.cls-5{fill:#397d46;}.cls-6{fill:#479c57;}.cls-7{fill:#fff;fill-rule:evenodd;}</style></defs><title>Icon FB-01</title><path class="cls-1" d="M25.43,20.88l1.8-7.72a4.73,4.73,0,0,1,2.17-2.82C32.91,8.17,32,9.1,34.6,4.9c0,0,.3-.8,1.44-.17S36.77,6,36.77,6c-1.92,3-2.23,3.79-3.67,4.68-2.27,1.39-3.15,1.72-3.44,3l-1.81,7.72Z"/><path class="cls-2" d="M35.63,4.48a.81.81,0,0,0-1,.35C32,9,32.9,8.1,29.39,10.27a4.71,4.71,0,0,0-2.16,2.89l-1.8,7.74,1.11.23,1.62-7.27a5.26,5.26,0,0,1,2.19-3.23c3.54-2.45,2.59-1.39,5.26-6.08Z"/><path class="cls-3" d="M53.88,39.74c0,8.38-3.13,15.74-7.85,20A16.5,16.5,0,0,1,35.12,64a11.73,11.73,0,0,1-8.18-3c-4.3,4.17-13,4.18-19.1-1.29C3.12,55.48,0,48.12,0,39.74,0,26.63,7.67,16,17.12,16a14.08,14.08,0,0,1,9.82,4.29A14.05,14.05,0,0,1,36.75,16C46.21,16,53.88,26.63,53.88,39.74Z"/><path class="cls-4" d="M53.88,39.74c0,8.38-3.13,15.74-7.85,20A16.5,16.5,0,0,1,35.12,64a11.73,11.73,0,0,1-8.18-3V20.28A14.05,14.05,0,0,1,36.75,16C46.21,16,53.88,26.63,53.88,39.74Z"/><path class="cls-5" d="M16.43,13.8c6.36,2.31,13.9-2.41,13.9-2.41L7.29,3S10.06,11.49,16.43,13.8Z"/><path class="cls-6" d="M21.19.64C14.83-1.67,7.29,3,7.29,3l23,8.36S27.56,3,21.19.64Z"/><path class="cls-7" d="M23.76,39.09V50.93a.31.31,0,0,0,.31.31h4.39a.31.31,0,0,0,.31-.31h0v-12H32a.31.31,0,0,0,.31-.28l.3-3.63a.3.3,0,0,0-.27-.33H28.81v-2.6A1.09,1.09,0,0,1,29.9,31h2.46a.31.31,0,0,0,.31-.31h0V27.06a.29.29,0,0,0-.3-.3h-4.2a4.4,4.4,0,0,0-4.41,4.39v3.51h-2.2a.31.31,0,0,0-.31.31h0v3.62a.31.31,0,0,0,.31.31h2.2Z"/></svg>