<svg id="Layer_1" data-name="Layer 1" xmlns="http://www.w3.org/2000/svg" viewBox="0 0 43.69 57.71"><defs><style>.cls-1{fill:#21c9f7;}.cls-2{fill:#3cf;}.cls-3{fill:#6c603d;}.cls-4{fill:#479c57;}.cls-5{fill:#397d46;}.cls-6{fill:#5b4f2f;}.cls-7,.cls-8{fill:#fff;}.cls-8{fill-rule:evenodd;}</style></defs><title>Icon TWITTER-01</title><path class="cls-1" d="M43.73,27.54c0,8.22-2.75,26.2-13.5,29.89-1.54.52-3.81-.93-6.17-.79a12,12,0,0,0-2.22.39V15.56a6.67,6.67,0,0,0,1,.13c3.18.18,4.53-2.61,10.84-1.44S43.73,20.25,43.73,27.54Z"/><path class="cls-2" d="M21.84,15.56V57c-1.54.41-2.89,1-3.49.86C6.32,55.64,0,38.21,0,29.48A15.13,15.13,0,0,1,11.82,14.79C17.72,13.6,19.34,15.09,21.84,15.56Z"/><path class="cls-3" d="M21.84,17.31c0-1.27-1.36-3.91-3-4v-.23c1.8.15,3.22,2.93,3.25,4.27Z"/><path class="cls-4" d="M2.35,2.74C11.83,4,7,17.74,19.3,13.3,23.6,1.62,11.1-3.64,2.35,2.74Z"/><path class="cls-3" d="M22,17.73c0-.75.9-2.82,2.12-3V15c-1.09.19-2,2.13-1.94,2.8Z"/><path class="cls-4" d="M23.58,15c3.61,5.86,12.85-5.75,9.75-10.15C32.88,17.12,20,9.18,23.58,15Z"/><path class="cls-5" d="M33.33,4.89c-1.09,4.29-6.78,6.79-9.13,7.66C26.89,12.19,33,13.26,33.33,4.89Z"/><path class="cls-5" d="M17.11,13.94c-.06,0-4.21,1.21-6.21-2.37S11.38-.54,2.35,2.74C11.21,3.89,7.54,16,17.11,13.94Z"/><path class="cls-6" d="M22.39,18.27c-.05-1.3-.2-5.33-.29-5.53a.65.65,0,0,0-.75-.35.6.6,0,0,0-.57.51.79.79,0,0,0,.25.44c.09.11.59,3.63.78,4.93Z"/><path class="cls-7" d="M36.4,25.68a11.15,11.15,0,0,1-2.72.78c.44-.08,1.08-.87,1.34-1.19a4.86,4.86,0,0,0,.91-1.65.1.1,0,0,0-.14-.14,13.88,13.88,0,0,1-3.23,1.23.23.23,0,0,1-.22-.06,1.92,1.92,0,0,0-.28-.29,6.1,6.1,0,0,0-1.56-1,5.57,5.57,0,0,0-4.67.26A6,6,0,0,0,24,25.18a5.66,5.66,0,0,0-1.1,2.19,5.85,5.85,0,0,0,0,2.32c0,.12,0,.14-.12.12-4.42-.65-8.09-2.24-11.07-5.63-.13-.15-.2-.15-.31,0a5.56,5.56,0,0,0,1,6.63,7.87,7.87,0,0,0,.68.6,5.71,5.71,0,0,1-2.14-.6c-.13-.08-.19,0-.2.12a3.31,3.31,0,0,0,0,.63,5.69,5.69,0,0,0,3.5,4.53,4.48,4.48,0,0,0,.71.22,6.11,6.11,0,0,1-2.09.06c-.16,0-.21,0-.16.19A5.9,5.9,0,0,0,17,40.26a1.55,1.55,0,0,1,.6.08h0c-.49.75-2.21,1.31-3,1.59a10.91,10.91,0,0,1-4.57.59H9.66c-.07,0,0,.1.07.16.31.21.63.39.95.57a16.14,16.14,0,0,0,3.06,1.22c5.49,1.51,11.67.4,15.79-3.69,3.23-3.22,4.37-7.65,4.37-12.09,0-.18.2-.27.33-.36a10.53,10.53,0,0,0,2.13-2.24.6.6,0,0,0,.14-.43h0C36.5,25.61,36.51,25.63,36.4,25.68Z"/><path class="cls-8" d="M18.52,45.08h0S18.57,45.08,18.52,45.08Z"/><path class="cls-8" d="M28,23.06a.11.11,0,0,1-.11,0Z"/></svg>