<svg id="Layer_1" data-name="Layer 1" xmlns="http://www.w3.org/2000/svg" viewBox="0 0 50.43 82.05"><defs><style>.cls-1{fill:#36c636;}.cls-2{fill:#10a028;}.cls-3{fill:#397d46;}.cls-4{fill:#479c57;}.cls-5{fill:#c6b79b;}.cls-6{fill:#a3947b;}.cls-7{fill:#00afe5;}.cls-8{fill:#ce5e11;}.cls-9{fill:#00afd6;}.cls-10{fill:#b8daec;}.cls-11{fill:#88cde3;}.cls-12{fill:#e7f7fc;}</style></defs><title>Icon reddit-01</title><path class="cls-1" d="M23.07,26.73c-.07-.17-1.47-4-.64-6.73l.67.24c-.75,2.44.61,6.12.62,6.17Z"/><path class="cls-2" d="M23.71,26.65l-.7-.14c0-.18.81-4.21,2.89-6l.44.61C24.5,22.73,23.71,26.62,23.71,26.65Z"/><path class="cls-3" d="M24.59,22.64c-2.8-7.86,1.9-19.71,15.26-17.7C32.81,10.91,38.29,23.09,24.59,22.64Z"/><path class="cls-3" d="M18.88,19.13c-4.52-5.28-4.75-16.6-8.5-18.84C19.35,5.53,16.8,14.19,18.88,19.13Z"/><path class="cls-4" d="M22.59,21.94C27.08,20.09,29.73,2.21,10.38.29,21.4,7.73,12.8,17.67,22.59,21.94Z"/><path class="cls-5" d="M26,37.38,24.23,30c-.28-1.24-1.13-1.56-3.3-2.89-1.38-.85-1.67-1.58-3.51-4.49,0,0-.4-.61.69-1.22s1.38.17,1.38.17c2.52,4,1.62,3.13,5,5.2a4.53,4.53,0,0,1,2.08,2.71l1.73,7.39Z"/><path class="cls-6" d="M18.53,21.21c2.56,4.49,1.65,3.48,5,5.82a5.09,5.09,0,0,1,2.1,3.1l1.55,7,1.07-.23-1.73-7.41a4.47,4.47,0,0,0-2.07-2.77c-3.36-2.08-2.46-1.19-5-5.21a.77.77,0,0,0-1-.34Z"/><path class="cls-7" d="M34.93,33.83c-1.79-3-5.49-4.16-9.77-4.16S17,30.88,15.22,34.06C4.55,36.76-1,49,.34,60.07c1.8,14.87,11.36,24.42,24.93,21,13,3.36,23.56-6.73,24.92-21C51.35,48.45,45.67,36.19,34.93,33.83Z"/><path class="cls-8" d="M33.17,34.81C32,32.4,30.77,31.09,27.38,31a4.64,4.64,0,0,1,1.94,4.85c16.83,6.19,18.5,39.07-2.24,44C55.87,81.47,53.74,38.19,33.17,34.81Z"/><path class="cls-9" d="M50.18,60.09c-1.41,14.24-11.89,24.33-24.9,21h0V29.69c4.22,0,7.85,1.19,9.63,4.17C45.69,36.19,51.36,48.46,50.18,60.09Z"/><polygon class="cls-10" points="15.71 60.47 19.03 69.47 33.75 49.02 15.71 60.47"/><polygon class="cls-11" points="19.4 62.47 19.08 69.56 26.84 62.96 19.4 62.47"/><path class="cls-12" d="M37.35,45.56l-29,11a.94.94,0,0,0-.56,1.19v0a.93.93,0,0,0,.55.55l7.53,2.52,17-11L19.44,62.42,30,70.4A1.91,1.91,0,0,0,32.63,70a1.84,1.84,0,0,0,.32-.66l5.68-22.72a.93.93,0,0,0-.69-1.12h0A1,1,0,0,0,37.35,45.56Z"/></svg>