<svg id="Layer_1" data-name="Layer 1" xmlns="http://www.w3.org/2000/svg" xmlns:xlink="http://www.w3.org/1999/xlink" viewBox="0 0 47.87 23.12"><defs><style>.cls-1{fill:url(#Íîâûé_îáðàçåö_ãðàäèåíòà_1);}.cls-2{fill:url(#Íîâûé_îáðàçåö_ãðàäèåíòà_1-2);}</style><linearGradient id="Íîâûé_îáðàçåö_ãðàäèåíòà_1" x1="26.46" y1="-21.68" x2="34.18" y2="25.04" gradientUnits="userSpaceOnUse"><stop offset="0" stop-color="#54a61f"/><stop offset="0.28" stop-color="#519e1b"/><stop offset="0.71" stop-color="#488a0e"/><stop offset="1" stop-color="#417804"/></linearGradient><linearGradient id="Íîâûé_îáðàçåö_ãðàäèåíòà_1-2" x1="18.89" y1="-2.46" x2="22.76" y2="20.95" xlink:href="#Íîâûé_îáðàçåö_ãðàäèåíòà_1"/></defs><title>Icon INS-01-01</title><path class="cls-1" d="M47.82,0S44.07,5.14,31.17,2.82C22.63,1.29,18.21,4.21,16,7.21a8.35,8.35,0,0,0-1.6,5.55c.58.09,1.17.19,1.76.24.8.06,1.61.14,2.41.13s1.62,0,2.42-.05a34.24,34.24,0,0,0,4.71-.61A40.77,40.77,0,0,0,30,11.35c1.37-.44,2.66-.91,3.82-1.4a47.18,47.18,0,0,0,5.49-2.73c1.28-.75,2-1.25,2-1.25s-.63.58-1.81,1.5a47.33,47.33,0,0,1-5.17,3.46c-1.12.65-2.37,1.3-3.72,1.94a41,41,0,0,1-4.37,1.74,35.57,35.57,0,0,1-4.93,1.3c-.86.16-1.73.32-2.62.4s-1.78.15-2.68.19c-.11,0-.22,0-.33,0C29.68,37.26,49,2.78,47.82,0Z"/><path class="cls-2" d="M41.31,6s-.65.56-1.86,1.43a46,46,0,0,1-5.25,3.28c-1.12.61-2.38,1.21-3.73,1.81a43,43,0,0,1-4.38,1.58,36.46,36.46,0,0,1-4.87,1.13c-.84.12-1.7.26-2.57.31s-1.73.09-2.61.11c-.3,0-.6,0-.9,0l-1.73-.08c-.86-.12-1.74-.17-2.59-.35a23.53,23.53,0,0,1-2.52-.55l-1.23-.33c-.4-.13-.79-.28-1.18-.42l-1.16-.41L3.62,13l-1.09-.49-1-.54L1,11.66l-.53-.29a1.4,1.4,0,0,1,.94-2.45A1.37,1.37,0,0,1,2,9l0,0,.33.2a6.37,6.37,0,0,0,.55.35c.29.18.59.38.9.56l1,.51,1,.52,1,.45c.35.15.7.31,1.07.45l1.11.38c.74.28,1.52.46,2.3.67s1.59.31,2.4.47l.85.11c.53.06,1.07.12,1.6.15.83,0,1.66.09,2.48.05s1.65-.07,2.47-.13A34.9,34.9,0,0,0,25.81,13a43,43,0,0,0,4.36-1.27c1.36-.5,2.64-1,3.79-1.54a47.7,47.7,0,0,0,5.41-2.91C40.63,6.49,41.31,6,41.31,6Z"/></svg>