<svg id="Layer_1" data-name="Layer 1" xmlns="http://www.w3.org/2000/svg" viewBox="0 0 50.43 82.05"><defs><style>.cls-1{fill:#fff;}.cls-2{fill:#36c636;}.cls-3{fill:#10a028;}.cls-4{fill:#397d46;}.cls-5{fill:#479c57;}.cls-6{fill:#c6b79b;}.cls-7{fill:#a3947b;}.cls-8{fill:#ff5722;}.cls-9{fill:#ce5e11;}.cls-10{fill:#ef3e1b;}</style></defs><title>Icon reddit</title><path class="cls-1" d="M40.24,58.08V67a.41.41,0,0,1-.41.39h-4.6a.41.41,0,0,1-.4-.39v-8.3c0-2.19-.78-3.68-2.73-3.68a3,3,0,0,0-2.8,2,3.67,3.67,0,0,0-.18,1.32V67a.39.39,0,0,1-.39.39H24.14a.39.39,0,0,1-.4-.39c0-2.26.06-12.94,0-15.46a.4.4,0,0,1,.37-.4h4.63a.39.39,0,0,1,.39.4v2h0v-.06A5.38,5.38,0,0,1,34,50.77c3.56,0,6.23,2.32,6.23,7.31ZM15.77,67.4h4.6a.41.41,0,0,0,.41-.39V51.55a.4.4,0,0,0-.4-.4H15.77a.4.4,0,0,0-.4.4V67A.39.39,0,0,0,15.77,67.4Z"/><circle class="cls-1" cx="17.89" cy="46.19" r="2.9"/><path class="cls-2" d="M23,26.77c-.07-.17-1.48-4-.64-6.76l.67.23c-.75,2.46.61,6.16.62,6.2Z"/><path class="cls-3" d="M23.66,26.69l-.7-.14c0-.18.82-4.23,2.9-6l.44.61C24.45,22.75,23.66,26.66,23.66,26.69Z"/><path class="cls-4" d="M24.54,22.66c-2.81-7.9,1.92-19.82,15.35-17.8C32.81,10.87,38.32,23.11,24.54,22.66Z"/><path class="cls-4" d="M18.8,19.13C14.26,13.83,14,2.45,10.27.19,19.28,5.46,16.72,14.16,18.8,19.13Z"/><path class="cls-5" d="M22.53,22C27.05,20.1,29.72,2.12,10.27.19,21.34,7.67,12.69,17.66,22.53,22Z"/><path class="cls-6" d="M25.92,37.47,24.18,30c-.28-1.25-1.13-1.57-3.31-2.91-1.39-.85-1.68-1.59-3.53-4.51,0,0-.4-.62.7-1.23s1.38.17,1.38.17c2.53,4,1.63,3.15,5,5.23a4.56,4.56,0,0,1,2.09,2.72l1.73,7.43Z"/><path class="cls-7" d="M18.45,21.22c2.57,4.51,1.66,3.5,5.07,5.86a5.08,5.08,0,0,1,2.1,3.11l1.56,7L28.25,37l-1.73-7.46a4.5,4.5,0,0,0-2.08-2.78c-3.38-2.09-2.48-1.2-5-5.24a.77.77,0,0,0-1-.33Z"/><path class="cls-8" d="M34.94,33.91c-1.79-3-5.51-4.18-9.82-4.18s-8.22,1.21-10,4.41C4.4,36.85-1.15,49.18.17,60.29,2,75.24,11.58,84.84,25.23,81.39c13.05,3.38,23.68-6.77,25.06-21.08C51.45,48.6,45.74,36.28,34.94,33.91Z"/><path class="cls-9" d="M33.17,34.89C32,32.47,30.76,31.16,27.35,31a4.66,4.66,0,0,1,1.95,4.87c16.92,6.23,18.6,39.28-2.25,44.28C56,81.8,53.85,38.3,33.17,34.89Z"/><path class="cls-10" d="M50.28,60.31c-1.42,14.31-12,24.46-25,21.08h0V29.75c4.24,0,7.9,1.19,9.68,4.19C45.75,36.28,51.46,48.62,50.28,60.31Z"/><path class="cls-1" d="M39.12,52.07a3.87,3.87,0,0,0-2.75,1.12,18.54,18.54,0,0,0-9.92-3.11l2-9.17,6.38,1.46a2.86,2.86,0,0,0,2.79,2.93h0a2.92,2.92,0,1,0-2.56-4.22l-7-1.59a.69.69,0,0,0-.8.52l-2.2,10.15a18.65,18.65,0,0,0-9.88,3.15,3.8,3.8,0,0,0-2.8-1.24,3.88,3.88,0,0,0-1.66,7.36,7.46,7.46,0,0,0-.19,1.82c0,6.15,6.83,11.14,15.23,11.14S41,67.4,41,61.25a7.16,7.16,0,0,0-.23-1.85,3.88,3.88,0,0,0-1.68-7.33ZM16.57,59.81a2.86,2.86,0,1,1,2.86,2.89,2.86,2.86,0,0,1-2.86-2.89Zm15.56,6.92c-2.64,2.68-10.08,2.68-12.72,0a.7.7,0,0,1,0-1v0a.69.69,0,0,1,1,0c2,2.1,8.69,2.13,10.79,0a.7.7,0,0,1,1,1Zm-.07-4a2.9,2.9,0,1,1,2.88-2.92v0a2.86,2.86,0,0,1-2.83,2.88Z"/></svg>