<svg width="140" height="120" viewBox="0 0 140 120" fill="none" xmlns="http://www.w3.org/2000/svg">
<path d="M95.4445 40.8446L98.7036 37.5878L101.96 40.8469L98.7013 44.1037L95.4445 40.8446Z" fill="#F3C111"/>
<path d="M88.9252 34.3265L92.1843 31.0685L95.4422 34.3265L92.1843 37.5844L88.9252 34.3265Z" fill="#F3C111"/>
<path d="M82.4093 27.8129L85.6684 24.5549L88.9263 27.8129L85.6684 31.0708L82.4093 27.8129Z" fill="#F3C111"/>
<path d="M108.477 53.8776L111.736 50.6196L114.994 53.8776L111.736 57.1355L108.477 53.8776Z" fill="#F3C111"/>
<path d="M101.96 47.3606L105.218 44.1015L108.477 47.3594L105.219 50.6185L101.96 47.3606Z" fill="#F3C111"/>
<path d="M74.6875 84.2239C73.8212 84.2228 73.0292 83.7368 72.6366 82.9662L68.4753 74.8056L59.4305 76.2354C58.4394 76.3997 57.455 75.9024 57.0005 75.007C56.5449 74.1104 56.7227 73.0236 57.4393 72.3194L63.9158 65.8429L59.7691 57.6823C59.3157 56.7924 59.4867 55.7124 60.1932 55.0071C60.8986 54.3006 61.9786 54.1296 62.8673 54.5829L71.0313 58.7307L77.5067 52.252C78.2109 51.5342 79.2988 51.3565 80.1942 51.8121C81.0909 52.2677 81.5881 53.251 81.4239 54.2421L79.9591 63.3105L88.122 67.4718C89.0096 67.9263 89.5046 68.9006 89.3471 69.8861C89.1896 70.8715 88.4156 71.6433 87.4301 71.7985L78.383 73.2317L76.9633 82.2788C76.8069 83.2643 76.0341 84.0372 75.0486 84.1936C74.9293 84.2138 74.8078 84.2239 74.6875 84.2239ZM69.7702 69.9547C70.6364 69.9547 71.4295 70.4418 71.8233 71.2135L73.5209 74.5468L74.107 70.8603C74.2634 69.8748 75.0373 69.1019 76.0239 68.9456L79.7094 68.3583L76.3761 66.6607C75.4862 66.2074 74.9901 65.2343 75.1453 64.2488L75.7303 60.551L73.0934 63.1958C72.3869 63.9 71.3069 64.071 70.4182 63.6165L67.0815 61.9189L68.7824 65.2534C69.2347 66.1421 69.0637 67.2221 68.3583 67.9275L65.7112 70.5768L69.4091 69.9918C69.5283 69.9693 69.6487 69.9569 69.7702 69.9547Z" fill="#F3C111"/>
<path d="M137.521 34.6078L126.116 23.2027L124.487 24.8317C122.746 26.6013 120.19 27.301 117.789 26.6654C115.389 26.0287 113.515 24.1545 112.879 21.7537C112.244 19.3542 112.944 16.7971 114.714 15.0567L116.343 13.4278L104.938 2.02497C102.239 -0.674988 97.8621 -0.674988 95.1621 2.02497L87.0184 10.1698L82.1315 5.28291C79.4315 2.58296 75.0553 2.58296 72.3554 5.28291L2.02497 75.6133C-0.674988 78.3133 -0.674988 82.6906 2.02497 85.3894L13.43 96.7945L15.0579 95.1655C17.7938 92.5533 22.0991 92.5533 24.834 95.1655C27.5339 97.8643 27.5339 102.242 24.834 104.94L23.205 106.569L34.61 117.977C37.3089 120.674 41.6839 120.674 44.3827 117.977L52.5276 109.83L57.4168 114.717C60.1156 117.415 64.4906 117.415 67.1906 114.717L137.521 44.3816C140.221 41.6817 140.221 37.3044 137.521 34.6055V34.6078ZM41.1225 114.714C40.6906 115.147 40.1044 115.39 39.4936 115.39C38.8816 115.39 38.2955 115.147 37.8635 114.714L29.5577 106.404C32.5862 101.835 31.9776 95.7662 28.102 91.8907C24.2253 88.0151 18.1561 87.4076 13.5886 90.4372L5.28066 82.1315C4.38067 81.2315 4.38067 79.7735 5.28066 78.8735L75.6133 8.54085C76.0453 8.10774 76.6314 7.86474 77.2434 7.86474C77.8554 7.86474 78.4415 8.10774 78.8735 8.54085L83.7604 13.4278L24.8317 72.3588C22.134 75.0576 22.134 79.4326 24.8317 82.1315L36.2345 93.5365L37.8635 91.9075C40.5623 89.2076 44.9396 89.2076 47.6384 91.9075C50.3384 94.6064 50.3384 98.9837 47.6384 101.682L46.0072 103.311L49.2674 106.569L41.1225 114.714ZM134.263 41.1259L63.9304 111.456C63.0304 112.356 61.5713 112.356 60.6725 111.456L52.3645 103.148C55.3839 98.5798 54.7697 92.5173 50.8964 88.6473C47.0219 84.7853 40.9684 84.1744 36.3999 87.1837L28.0896 78.8735C27.1897 77.9747 27.1897 76.5156 28.0896 75.6156L98.4201 5.28291C98.8521 4.85092 99.4393 4.6068 100.05 4.6068C100.662 4.6068 101.248 4.85092 101.68 5.28291L109.988 13.5774C106.963 18.1448 107.573 24.2096 111.446 28.084C115.32 31.9573 121.385 32.5682 125.953 29.5442L134.265 37.8567C135.164 38.7556 135.164 40.2147 134.265 41.1147L134.263 41.1259Z" fill="#F3C111"/>
</svg>
