
    <svg width="210" height="232" viewBox="0 0 210 232" fill="none" xmlns="http://www.w3.org/2000/svg">
      <!-- eggs -->
      <g clip-path="url(#clip1)">
    <rect opacity="0.01" width="210" height="270" rx="40" fill="white"></rect>
    <path d="M132.216 52.1244C135.142 52.375 139.157 53.192 143.771 55.8561C147.892 58.2352 150.504 60.9295 152.223 63.1909C158.241 60.8002 164.294 62.2485 168.42 64.6306C171.862 66.6178 163.585 83.3244 156.34 85.5534C155.239 88.6112 153.677 93.2277 150.492 95.6822C144.979 100.547 138.027 98.6531 134.491 96.9757C130.954 95.2982 119.79 88.8525 115.307 85.9001L115.193 85.8251C110.757 82.9034 106.803 80.2999 105.686 73.9741C104.574 67.6776 109.677 62.5425 112.15 60.0538L112.158 60.045C109.497 53.4324 119.282 39.8622 124.238 39.1223C127.213 38.6781 129.986 46.8058 132.216 52.1244Z" fill="#FDF9F2" stroke="#333333" stroke-width="0.945114" stroke-linecap="round" stroke-linejoin="round"></path>
    <path d="M132.216 52.1244C129.986 46.8058 127.213 38.6781 124.238 39.1223C119.282 39.8622 109.497 53.4324 112.158 60.045L112.15 60.0538C109.677 62.5424 104.574 67.6776 105.686 73.9741C106.813 80.3539 111.776 84.2196 115.585 85.4186C115.119 84.7699 114.382 83.9785 113.552 83.088C110.209 79.4984 105.364 74.2974 110.721 70.3331C113.043 68.6154 115.474 69.3457 118.272 70.1858C122.649 71.5006 127.922 73.0841 135.066 65.9722C139.713 61.3457 140.409 57.1892 139.239 53.7093C136.522 52.6966 134.135 52.2887 132.216 52.1244Z" fill="#F3D69A"></path>
    <path d="M168.42 64.6306C164.294 62.2485 158.241 60.8001 152.223 63.1909C151.17 61.8054 149.781 60.2573 147.916 58.7188C145.567 59.833 142.482 61.7372 139.67 68.6304C135.914 77.8334 140.166 81.7257 143.816 85.0671C146.078 87.1374 148.108 88.9961 147.86 91.7754C147.249 98.6337 141.425 97.588 137.343 96.8553C136.348 96.6765 135.456 96.5164 134.768 96.4942C137.69 98.5225 144.979 100.547 150.492 95.6822C153.55 93.3257 155.111 88.9768 156.206 85.9272C156.251 85.8003 156.296 85.6756 156.34 85.5534C163.585 83.3244 171.862 66.6178 168.42 64.6306Z" fill="#F3D69A"></path>
    <path d="M123.783 67.4387C123.294 68.2863 121.706 68.2858 120.237 67.4376C118.768 66.5894 117.974 65.2147 118.463 64.3671C118.952 63.5195 120.54 63.52 122.009 64.3682C123.478 65.2164 124.273 66.5911 123.783 67.4387Z" fill="#FFC5C5"></path>
    <path d="M148.747 81.8517C148.258 82.6993 146.67 82.6988 145.201 81.8506C143.732 81.0024 142.938 79.6277 143.427 78.7801C143.916 77.9325 145.504 77.933 146.973 78.7812C148.442 79.6294 149.237 81.0041 148.747 81.8517Z" fill="#FFC5C5"></path>
    <path d="M132.216 52.1244C135.142 52.375 139.157 53.192 143.771 55.8561C147.892 58.2352 150.504 60.9295 152.223 63.1909C158.241 60.8001 164.294 62.2485 168.42 64.6306C171.862 66.6178 163.585 83.3244 156.34 85.5534C155.239 88.6112 153.677 93.2276 150.492 95.6822C144.979 100.547 138.027 98.6531 134.491 96.9756C130.954 95.2982 119.79 88.8525 115.307 85.9001L115.193 85.8251C110.757 82.9034 106.803 80.2999 105.686 73.9741C104.574 67.6776 109.677 62.5424 112.15 60.0538L112.158 60.045C109.497 53.4324 119.282 39.8622 124.238 39.1223C127.213 38.6781 129.986 46.8058 132.216 52.1244Z" stroke="#333333" stroke-width="1.71444" stroke-linecap="round" stroke-linejoin="round"></path>
    <path d="M129.546 53.4409C129.961 52.2485 126.676 43.0535 123.651 42.7396C118.825 42.2387 113.795 57.9207 114.555 58.4956C115.314 59.0705 118.357 55.6438 121.276 54.5324C126.26 52.635 129.13 54.6333 129.546 53.4409Z" fill="white"></path>
    <path d="M151.949 66.406C152.772 65.4523 162.358 63.7068 164.14 66.1642C166.983 70.0855 155.941 82.2516 155.065 81.8819C154.189 81.5122 155.631 77.1735 155.134 74.0969C154.286 68.8441 151.126 67.3597 151.949 66.406Z" fill="white"></path>
  </g><g clip-path="url(#clip1)">
    <path d="M104.824 76.8609C72.6873 76.8609 47.0001 113.282 47.0001 154.881C47.0001 196.481 72.7985 216.856 104.824 216.856C136.85 216.856 162.648 196.481 162.648 154.881C162.648 113.282 136.961 76.8609 104.824 76.8609Z" fill="url(#paint4_linear)" stroke="#333333" stroke-width="1.71444" stroke-linecap="round" stroke-linejoin="round"></path>
    <path d="M104.824 76.8609C72.6873 76.8609 47.0001 113.282 47.0001 154.881C47.0001 196.481 72.7985 216.856 104.824 216.856C136.85 216.856 162.648 196.481 162.648 154.881C162.648 113.282 136.961 76.8609 104.824 76.8609Z" fill="url(#paint5_linear)" stroke="#333333" stroke-width="1.71444" stroke-linecap="round" stroke-linejoin="round"></path>
    <path d="M158.494 126.316C152.452 106.18 140.277 89.7283 124.987 81.8645C110.15 106.204 133.052 133.24 158.494 126.316Z" fill="#F3D69A"></path>
    <path d="M47.0002 154.881C47.0002 149.299 47.4628 143.81 48.3414 138.489C74.3906 142.801 90.8502 189.288 84.662 213.845C62.6307 206.783 47.0002 187.262 47.0002 154.881Z" fill="#F3D69A"></path>
    <path d="M141.671 205.063C149.043 199.246 154.87 191.263 158.494 181.086C142.867 179.575 135.258 192.509 141.671 205.063Z" fill="#F3D69A"></path>
    <path d="M83.5207 111.86C83.5207 116.902 79.433 120.99 74.3906 120.99C69.3482 120.99 65.2605 116.902 65.2605 111.86C65.2605 106.817 69.3482 102.73 74.3906 102.73C79.433 102.73 83.5207 106.817 83.5207 111.86Z" fill="#F3D69A"></path>
    <path d="M126.128 130.881C126.128 139.705 118.975 146.859 110.15 146.859C101.326 146.859 94.1726 139.705 94.1726 130.881C94.1726 122.057 101.326 114.903 110.15 114.903C118.975 114.903 126.128 122.057 126.128 130.881Z" fill="#F3D69A"></path>
    <path d="M104.824 76.8609C72.6873 76.8609 47.0001 113.282 47.0001 154.881C47.0001 196.481 72.7985 216.856 104.824 216.856C136.85 216.856 162.648 196.481 162.648 154.881C162.648 113.282 136.961 76.8609 104.824 76.8609Z" stroke="#333333" stroke-width="1.71444" stroke-linecap="round" stroke-linejoin="round"></path>
    <rect opacity="0.01" width="210" height="270" rx="40" fill="white"></rect>
    <path d="M104.824 76.8609C72.6873 76.8609 47.0001 113.282 47.0001 154.881C47.0001 196.481 72.7985 216.856 104.824 216.856C136.85 216.856 162.648 196.481 162.648 154.881C162.648 113.282 136.961 76.8609 104.824 76.8609Z" fill="url(#paint6_linear)" stroke="#333333" stroke-width="1.71444" stroke-linecap="round" stroke-linejoin="round"></path>
    <path d="M104.824 76.8609C72.6873 76.8609 47.0001 113.282 47.0001 154.881C47.0001 196.481 72.7985 216.856 104.824 216.856C136.85 216.856 162.648 196.481 162.648 154.881C162.648 113.282 136.961 76.8609 104.824 76.8609Z" fill="url(#paint7_linear)" stroke="#333333" stroke-width="1.71444" stroke-linecap="round" stroke-linejoin="round"></path>
    <path d="M158.494 126.316C152.452 106.18 140.277 89.7283 124.987 81.8645C110.15 106.204 133.052 133.24 158.494 126.316Z" fill="#F3D69A"></path>
    <path d="M47.0002 154.881C47.0002 149.299 47.4628 143.81 48.3414 138.489C74.3906 142.801 90.8502 189.288 84.662 213.845C62.6307 206.783 47.0002 187.262 47.0002 154.881Z" fill="#F3D69A"></path>
    <path d="M141.671 205.063C149.043 199.246 154.87 191.263 158.494 181.086C142.867 179.575 135.258 192.509 141.671 205.063Z" fill="#F3D69A"></path>
    <path d="M83.5207 111.86C83.5207 116.902 79.433 120.99 74.3906 120.99C69.3482 120.99 65.2605 116.902 65.2605 111.86C65.2605 106.817 69.3482 102.73 74.3906 102.73C79.433 102.73 83.5207 106.817 83.5207 111.86Z" fill="#F3D69A"></path>
    <path d="M126.128 130.881C126.128 139.705 118.975 146.859 110.15 146.859C101.326 146.859 94.1726 139.705 94.1726 130.881C94.1726 122.057 101.326 114.903 110.15 114.903C118.975 114.903 126.128 122.057 126.128 130.881Z" fill="#F3D69A"></path>
    <path d="M104.824 76.8609C72.6873 76.8609 47.0001 113.282 47.0001 154.881C47.0001 196.481 72.7985 216.856 104.824 216.856C136.85 216.856 162.648 196.481 162.648 154.881C162.648 113.282 136.961 76.8609 104.824 76.8609Z" stroke="#333333" stroke-width="1.71444" stroke-linecap="round" stroke-linejoin="round"></path>
  </g><g clip-path="url(#clip1)">
    <rect opacity="0.01" width="210" height="270" rx="40" fill="white"></rect>
    <circle cx="127.906" cy="65.2411" r="2.37268" transform="rotate(30 127.906 65.2411)" fill="#3E3E3E"></circle>
    <circle cx="129.206" cy="65.0042" r="0.800951" transform="rotate(30 129.206 65.0042)" fill="white"></circle>
    <circle cx="143.524" cy="74.2582" r="2.37268" transform="rotate(30 143.524 74.2582)" fill="#3E3E3E"></circle>
    <circle cx="144.789" cy="74.0012" r="0.800951" transform="rotate(30 144.789 74.0012)" fill="white"></circle>
    <ellipse cx="134.2" cy="72.3693" rx="2.60994" ry="1.30497" transform="rotate(30 134.2 72.3693)" fill="#3E3E3E"></ellipse>
    <path d="M133.868 73.0846C133.823 73.2255 133.748 73.3922 133.644 73.5665C133.301 74.386 133.064 75.4717 133.833 76.4187C133.97 76.5877 134.116 76.7308 134.265 76.8511C128.381 87.0427 124.714 84.9255 130.598 74.7339C132.113 75.2894 133.174 74.3504 133.644 73.5665C133.717 73.3926 133.794 73.2307 133.868 73.0846Z" fill="#E09384"></path>
    <path d="M130.598 74.7339C132.45 75.413 133.624 73.8587 133.868 73.0846C133.447 73.9191 132.901 75.2708 133.833 76.4187C133.97 76.5877 134.116 76.7308 134.265 76.8511M130.598 74.7339C128.746 74.0549 128.781 72.8109 129.01 72.4145M130.598 74.7339C124.714 84.9255 128.381 87.0427 134.265 76.8511M137.014 77.0355C136.891 77.3429 135.438 77.7936 134.265 76.8511" stroke="#3E3E3E" stroke-width="0.739427" stroke-linecap="round" stroke-linejoin="round"></path>
  </g><g>
    <path d="M124.463 52.6608C129.892 52.9708 151.9 64.9601 153.723 66.9136C154.972 68.2528 163.36 83.663 156.798 86.8463C157.154 84.7995 152.502 73.066 138.5 65.9999C124.498 58.9338 113.72 58.0702 110.228 61.7865C108.38 54.8239 119.035 52.3509 124.463 52.6608Z" fill="white" stroke="#333333" stroke-width="0.681102"></path>
    <path d="M153.723 66.9136C154.972 68.2528 163.36 83.663 156.798 86.8463C157.042 85.4446 155.327 78.4677 148.5 72.9999C150.526 74.3186 152.898 77.7348 153.947 74.1216C154.996 70.5083 143.181 61.5484 137.142 57.5202C144.669 61.1861 152.656 65.7699 153.723 66.9136Z" fill="#C2C5E6" fill-opacity="0.56"></path>
    <path d="M124.463 52.6608C129.892 52.9708 151.9 64.9601 153.723 66.9136C154.972 68.2528 163.36 83.663 156.798 86.8463C157.154 84.7995 152.502 73.066 138.5 65.9999C124.498 58.9338 113.72 58.0702 110.228 61.7865C108.38 54.8239 119.035 52.3509 124.463 52.6608Z" stroke="#333333" stroke-width="0.681102"></path>
    <path d="M152.606 50.8421C149.271 44.3656 143.751 40.264 137.525 42.6871C131.3 45.1102 119.012 58.0505 120.003 59.976C120.684 61.2976 129.125 61.8706 136.447 60.4282C137.378 60.2447 138.291 60.0287 139.167 59.7775C145.033 61.9041 150.617 65.287 155.259 69.6053C156.454 64.9609 154.972 55.4378 152.606 50.8421Z" fill="#C2C5E6"></path>
    <path d="M143.615 57.9633C144.092 57.6852 144.529 57.3783 144.917 57.0405M143.615 57.9633C144.119 58.6541 145.512 59.836 147.055 59.0372M143.615 57.9633C143.191 58.2108 142.738 58.4424 142.262 58.6588C141.312 59.0907 140.268 59.4619 139.167 59.7775M139.167 59.7775C138.291 60.0287 137.378 60.2447 136.447 60.4282C129.125 61.8706 120.684 61.2976 120.003 59.976C119.012 58.0505 131.3 45.1103 137.525 42.6871C143.751 40.264 149.271 44.3656 152.606 50.8421C154.972 55.4378 156.454 64.9609 155.259 69.6053C150.617 65.287 145.033 61.9041 139.167 59.7775Z" stroke="black" stroke-width="0.681102"></path>
    <path d="M143.615 57.9633C144.092 57.6852 144.529 57.3783 144.917 57.0405C144.262 55.9127 142.173 54.1336 139.059 56.0388C135.945 57.9441 125.058 59.4574 120.003 59.976C120.684 61.2976 129.125 61.8706 136.447 60.4282C137.378 60.2447 138.291 60.0287 139.167 59.7775C143.279 61.2685 147.254 63.377 150.862 65.9924C152.4 67.1074 153.872 68.3146 155.259 69.6053C156.454 64.9609 154.972 55.4378 152.606 50.8421C151.628 48.9439 150.463 47.2497 149.147 45.8639C150.293 49.7135 152.551 58.3145 148.535 60.6108C146.38 61.8434 142.461 60.1078 139.167 59.7775C140.268 59.4619 141.312 59.0907 142.262 58.6588C142.738 58.4424 143.191 58.2108 143.615 57.9633C144.119 58.6541 145.512 59.836 147.055 59.0372C147.341 58.5066 147.709 57.5777 146.899 58.107C146.088 58.6362 144.372 58.2317 143.615 57.9633Z" fill="#A3A9E0"></path>
    <path d="M143.615 57.9633C144.092 57.6852 144.529 57.3783 144.917 57.0405M143.615 57.9633C144.119 58.6541 145.512 59.836 147.055 59.0372M143.615 57.9633C143.191 58.2108 142.738 58.4424 142.262 58.6588C141.312 59.0907 140.268 59.4619 139.167 59.7775M139.167 59.7775C138.291 60.0287 137.378 60.2447 136.447 60.4282C129.125 61.8706 120.684 61.2976 120.003 59.976C119.012 58.0505 131.3 45.1103 137.525 42.6871C143.751 40.264 149.271 44.3656 152.606 50.8421C154.972 55.4378 156.454 64.9609 155.259 69.6053C150.617 65.287 145.033 61.9041 139.167 59.7775Z" stroke="#333333" stroke-width="0.681102"></path>
    <ellipse rx="3.94388" ry="3.95459" transform="matrix(-0.682122 -0.731238 -0.729718 0.683748 119.702 60.2681)" fill="white" stroke="#333333" stroke-width="0.838212"></ellipse>
    <path d="M122.391 63.1516C120.798 64.645 118.301 64.5644 116.815 62.9717C116.616 62.7573 116.444 62.5265 116.301 62.2838C120.065 62.8748 121.55 61.9377 123.019 58.1178C124.035 59.6929 123.81 61.822 122.391 63.1516Z" fill="#DDDEF1"></path>
    <ellipse rx="3.94388" ry="3.95459" transform="matrix(-0.682122 -0.731238 -0.729718 0.683748 119.702 60.2681)" stroke="#333333" stroke-width="0.838212"></ellipse>
  </g>
      <defs>
        <linearGradient id="paint0_linear" x1="69.8253" y1="100.11" x2="141.725" y2="205.487" gradientUnits="userSpaceOnUse">
        <stop stop-color="white"/>
        <stop offset="1" stop-color="#F0F0F0"/>
        </linearGradient>
        <linearGradient id="paint1_linear" x1="69.8253" y1="100.11" x2="141.725" y2="205.487" gradientUnits="userSpaceOnUse">
        <stop stop-color="white"/>
        <stop offset="1" stop-color="#F0F0F0"/>
        </linearGradient>
        <linearGradient id="paint2_linear" x1="69.8253" y1="100.11" x2="141.725" y2="205.487" gradientUnits="userSpaceOnUse">
        <stop stop-color="white"/>
        <stop offset="1" stop-color="#F0F0F0"/>
        </linearGradient>
        <linearGradient id="paint3_linear" x1="69.8253" y1="100.11" x2="141.725" y2="205.487" gradientUnits="userSpaceOnUse">
        <stop stop-color="white"/>
        <stop offset="1" stop-color="#F0F0F0"/>
        </linearGradient>
        <linearGradient id="paint4_linear" x1="69.8254" y1="100.067" x2="141.725" y2="205.444" gradientUnits="userSpaceOnUse">
        <stop stop-color="white"/>
        <stop offset="1" stop-color="#F0F0F0"/>
        </linearGradient>
        <linearGradient id="paint5_linear" x1="69.8254" y1="100.067" x2="141.725" y2="205.444" gradientUnits="userSpaceOnUse">
        <stop stop-color="#FDF9F2"/>
        <stop offset="1" stop-color="#FFF2DC"/>
        </linearGradient>
        <linearGradient id="paint6_linear" x1="69.8254" y1="100.067" x2="141.725" y2="205.444" gradientUnits="userSpaceOnUse">
        <stop stop-color="white"/>
        <stop offset="1" stop-color="#F0F0F0"/>
        </linearGradient>
        <linearGradient id="paint7_linear" x1="69.8254" y1="100.067" x2="141.725" y2="205.444" gradientUnits="userSpaceOnUse">
        <stop stop-color="#FDF9F2"/>
        <stop offset="1" stop-color="#FFF2DC"/>
        </linearGradient>
        <linearGradient id="paint8_linear" x1="69.8261" y1="99.7261" x2="141.726" y2="205.103" gradientUnits="userSpaceOnUse">
        <stop stop-color="white"/>
        <stop offset="1" stop-color="#F0F0F0"/>
        </linearGradient>
        <linearGradient id="paint9_linear" x1="69.8261" y1="99.7261" x2="141.726" y2="205.103" gradientUnits="userSpaceOnUse">
        <stop stop-color="#E3E0DD"/>
        <stop offset="1" stop-color="#D5CFC9"/>
        </linearGradient>
        <linearGradient id="paint10_linear" x1="69.8261" y1="99.7261" x2="141.726" y2="205.103" gradientUnits="userSpaceOnUse">
        <stop stop-color="white"/>
        <stop offset="1" stop-color="#F0F0F0"/>
        </linearGradient>
        <linearGradient id="paint11_linear" x1="69.8261" y1="99.7261" x2="141.726" y2="205.103" gradientUnits="userSpaceOnUse">
        <stop stop-color="#E3E0DD"/>
        <stop offset="1" stop-color="#D5CFC9"/>
        </linearGradient>
        <clipPath id="clip0">
          <rect width="210" height="232" fill="white"/>
        </clipPath>
        <clipPath id="clip1">
          <rect width="210" height="232" fill="white"/>
        </clipPath>
        <clipPath id="clip2">
          <rect width="210" height="232" fill="white"/>
        </clipPath>
        <clipPath id="clip3">
          <rect width="210" height="232" fill="white"/>
        </clipPath>
        <clipPath id="clip4">
          <rect width="210" height="232" fill="white"/>
        </clipPath>

        <!-- hat -->
        <filter id="kitten_filter0_d" x="102.923" y="18.5003" width="91.5802" height="80.8113" filterUnits="userSpaceOnUse" color-interpolation-filters="sRGB">
          <feFlood flood-opacity="0" result="BackgroundImageFix"/>
          <feColorMatrix in="SourceAlpha" type="matrix" values="0 0 0 0 0 0 0 0 0 0 0 0 0 0 0 0 0 0 127 0"/>
          <feOffset dy="1.13753"/>
          <feGaussianBlur stdDeviation="3.55479"/>
          <feColorMatrix type="matrix" values="0 0 0 0 0.275 0 0 0 0 0.239937 0 0 0 0 0.171875 0 0 0 0.25 0"/>
          <feBlend mode="normal" in2="BackgroundImageFix" result="effect1_dropShadow"/>
          <feBlend mode="normal" in="SourceGraphic" in2="effect1_dropShadow" result="shape"/>
        </filter>
        <filter id="puppy_filter0_d" x="100.999" y="21.554" width="85.9486" height="75.9705" filterUnits="userSpaceOnUse" color-interpolation-filters="sRGB">
          <feFlood flood-opacity="0" result="BackgroundImageFix"/>
          <feColorMatrix in="SourceAlpha" type="matrix" values="0 0 0 0 0 0 0 0 0 0 0 0 0 0 0 0 0 0 127 0"/>
          <feOffset dy="1.13753"/>
          <feGaussianBlur stdDeviation="3.55479"/>
          <feColorMatrix type="matrix" values="0 0 0 0 0.275 0 0 0 0 0.239937 0 0 0 0 0.171875 0 0 0 0.25 0"/>
          <feBlend mode="normal" in2="BackgroundImageFix" result="effect1_dropShadow"/>
          <feBlend mode="normal" in="SourceGraphic" in2="effect1_dropShadow" result="shape"/>
        </filter>
        <filter id="bunny_filter0_d" x="105.155" y="22.0595" width="85.1164" height="75.2548" filterUnits="userSpaceOnUse" color-interpolation-filters="sRGB">
          <feFlood flood-opacity="0" result="BackgroundImageFix"/>
          <feColorMatrix in="SourceAlpha" type="matrix" values="0 0 0 0 0 0 0 0 0 0 0 0 0 0 0 0 0 0 127 0"/>
          <feOffset dy="1.13753"/>
          <feGaussianBlur stdDeviation="3.55479"/>
          <feColorMatrix type="matrix" values="0 0 0 0 0.275 0 0 0 0 0.239937 0 0 0 0 0.171875 0 0 0 0.25 0"/>
          <feBlend mode="normal" in2="BackgroundImageFix" result="effect1_dropShadow"/>
          <feBlend mode="normal" in="SourceGraphic" in2="effect1_dropShadow" result="shape"/>
        </filter>
      </defs>
    </svg>
  